SplineFontDB: 3.0
FontName: Michroma
FullName: Michroma
FamilyName: Michroma
Weight: Book
Version: 1.000
ItalicAngle: 0
UnderlinePosition: -154
UnderlineWidth: 102
Ascent: 1638
Descent: 410
InvalidEm: 0
sfntRevision: 0x00010000
LayerCount: 2
Layer: 0 0 "Back" 1
Layer: 1 0 "Fore" 0
XUID: [1021 429 1199933213 1364466]
UniqueID: 4127632
FSType: 0
OS2Version: 2
OS2_WeightWidthSlopeOnly: 0
OS2_UseTypoMetrics: 1
CreationTime: 1300491889
ModificationTime: 1445544756
PfmFamily: 81
TTFWeight: 400
TTFWidth: 5
LineGap: 0
VLineGap: 0
Panose: 0 0 0 0 0 0 0 0 0 0
OS2TypoAscent: 2368
OS2TypoAOffset: 0
OS2TypoDescent: -544
OS2TypoDOffset: 0
OS2TypoLinegap: 0
OS2WinAscent: 2368
OS2WinAOffset: 0
OS2WinDescent: 544
OS2WinDOffset: 0
HheadAscent: 2368
HheadAOffset: 0
HheadDescent: -544
HheadDOffset: 0
OS2SubXSize: 1434
OS2SubYSize: 1331
OS2SubXOff: 0
OS2SubYOff: 287
OS2SupXSize: 1434
OS2SupYSize: 1331
OS2SupXOff: 0
OS2SupYOff: 977
OS2StrikeYSize: 102
OS2StrikeYPos: 512
OS2CapHeight: 1536
OS2XHeight: 1152
OS2Vendor: 'newt'
OS2CodePages: 40000001.80d40000
OS2UnicodeRanges: 80000027.00000043.00000000.00000000
Lookup: 258 0 0 "'kern' Horizontal Kerning in Latin lookup 0" { "'kern' Horizontal Kerning in Latin lookup 0 per glyph data 0"  "'kern' Horizontal Kerning in Latin lookup 0 kerning class 1"  } ['kern' ('latn' <'dflt' > ) ]
MarkAttachClasses: 1
DEI: 91125
KernClass2: 8+ 3 "'kern' Horizontal Kerning in Latin lookup 0 kerning class 1"
 1 T
 1 Y
 3 m n
 1 K
 1 L
 1 P
 1 V
 7 b e o p
 13 a c d e g o q
 5 v w y
 0 {} -512 {} 0 {} 0 {} -512 {} 0 {} 0 {} 0 {} -64 {} 0 {} -128 {} 0 {} 0 {} -128 {} 0 {} 0 {} -64 {} 0 {} 0 {} -256 {} 0 {} 0 {} 0 {} -64 {}
LangName: 1033 "" "" "Regular" "1.000;pyrs;Michroma" "" "Version 1.000" "" "" "" "" "" "" "" "" "http://scripts.sil.org/OFL"
Encoding: UnicodeBmp
UnicodeInterp: none
NameList: AGL For New Fonts
DisplaySize: -48
AntiAlias: 1
FitToEm: 1
WinInfo: 51 17 13
BeginPrivate: 4
BlueValues 27 [-32 0 1152 1184 1536 1568]
OtherBlues 11 [-384 -384]

StartChar: exclam
Encoding: 33 33 4
Width: 448
GlyphClass: 2
Flags: W
LayerCount: 2
Back
Fore
SplineSet
128 1536 m 1
 320 1536 l 1
 272 448 l 1
 176 448 l 1
 128 1536 l 1
320 0 m 1
 128 0 l 1
 128 192 l 1
 320 192 l 1
 320 0 l 1
EndSplineSet
Validated: 1
EndChar

StartChar: quotedbl
Encoding: 34 34 5
Width: 768
GlyphClass: 2
Flags: W
LayerCount: 2
Back
Fore
SplineSet
128 1536 m 1
 320 1536 l 1
 288 1152 l 1
 160 1152 l 1
 128 1536 l 1
448 1536 m 1
 640 1536 l 1
 608 1152 l 1
 480 1152 l 1
 448 1536 l 1
EndSplineSet
Validated: 1
EndChar

StartChar: numbersign
Encoding: 35 35 6
Width: 1536
GlyphClass: 2
Flags: W
LayerCount: 2
Back
Fore
SplineSet
835 320 m 1
 526 320 l 1
 415 -128 l 1
 255 -80 l 1
 354 320 l 1
 128 320 l 1
 128 480 l 1
 393 480 l 1
 489 864 l 1
 192 864 l 1
 192 1024 l 1
 528 1024 l 1
 640 1472 l 1
 800 1424 l 1
 700 1024 l 1
 1009 1024 l 1
 1121 1472 l 1
 1281 1424 l 1
 1181 1024 l 1
 1408 1024 l 1
 1408 864 l 1
 1142 864 l 1
 1046 480 l 1
 1344 480 l 1
 1344 320 l 1
 1007 320 l 1
 896 -128 l 1
 736 -80 l 1
 835 320 l 1
565 480 m 1
 874 480 l 1
 970 864 l 1
 661 864 l 1
 565 480 l 1
EndSplineSet
Validated: 1
EndChar

StartChar: dollar
Encoding: 36 36 7
Width: 2018
GlyphClass: 2
Flags: W
LayerCount: 2
Back
Fore
SplineSet
913 -36 m 1
 831.999023438 -35.9951171875 l 2
 735.999023438 -35.9951171875 651.999023438 -32.328125 579.999023438 -24.9951171875 c 0
 507.999023438 -17.662109375 445.999023438 -6.4951171875 393.999023438 8.5048828125 c 0
 341.999023438 23.5048828125 298.999023438 42.5048828125 264.999023438 65.5048828125 c 0
 230.999023438 88.5048828125 203.83203125 115.504882812 183.499023438 146.504882812 c 0
 163.166015625 177.504882812 148.999023438 212.837890625 140.999023438 252.504882812 c 0
 132.999023438 292.171875 128.999023438 336.004882812 128.999023438 384.004882812 c 1
 320.999023438 384.004882812 l 1
 320.999023438 324.004882812 329.666015625 277.004882812 346.999023438 243.004882812 c 0
 364.33203125 209.004882812 392.999023438 183.504882812 432.999023438 166.504882812 c 0
 472.999023438 149.504882812 525.499023438 138.837890625 590.499023438 134.504882812 c 0
 655.499023438 130.171875 735.999023438 128.004882812 831.999023438 128.004882812 c 2
 912.999023438 128.004882812 l 1
 912.999023438 704.004882812 l 1
 895.999023438 704.004882812 l 2
 778.666015625 704.004882812 678.166015625 708.337890625 594.499023438 717.004882812 c 0
 510.83203125 725.671875 440.665039062 738.171875 383.998046875 754.504882812 c 0
 327.331054688 770.837890625 281.998046875 791.170898438 247.998046875 815.50390625 c 0
 213.998046875 839.836914062 188.165039062 867.669921875 170.498046875 899.002929688 c 0
 152.831054688 930.3359375 141.331054688 965.168945312 135.998046875 1003.50195312 c 0
 130.665039062 1041.83496094 127.998046875 1083.33496094 127.998046875 1128.00195312 c 0
 127.998046875 1174.66894531 132.165039062 1218.00195312 140.498046875 1258.00195312 c 0
 148.831054688 1298.00195312 164.331054688 1334.16894531 186.998046875 1366.50195312 c 0
 209.665039062 1398.83496094 240.665039062 1427.66796875 279.998046875 1453.00097656 c 0
 319.331054688 1478.33398438 369.831054688 1499.50097656 431.498046875 1516.50097656 c 0
 493.165039062 1533.50097656 567.33203125 1546.33398438 653.999023438 1555.00097656 c 0
 728.666015625 1562.33398438 814.999023438 1566.66699219 912.999023438 1568 c 1
 912.999023438 1664 l 1
 1104.99902344 1664 l 1
 1104.99902344 1568 l 1
 1151.99902344 1568 l 2
 1247.99902344 1568 1331.99902344 1564.5 1403.99902344 1557.5 c 0
 1475.99902344 1550.5 1537.99902344 1539.5 1589.99902344 1524.5 c 0
 1641.99902344 1509.5 1685.16601562 1490.83300781 1719.49902344 1468.5 c 0
 1753.83203125 1446.16699219 1781.16503906 1419.5 1801.49804688 1388.5 c 0
 1821.83105469 1357.5 1835.99804688 1322.33300781 1843.99804688 1283 c 0
 1851.99804688 1243.66699219 1855.99804688 1200 1855.99804688 1152 c 1
 1663.99804688 1152 l 1
 1663.99804688 1212 1655.33105469 1259 1637.99804688 1293 c 0
 1620.66503906 1327 1591.99804688 1352.5 1551.99804688 1369.5 c 0
 1511.99804688 1386.5 1459.33105469 1397.16699219 1393.99804688 1401.5 c 0
 1328.66503906 1405.83300781 1247.99804688 1408 1151.99804688 1408 c 2
 1104.99804688 1408 l 1
 1104.99804688 864 l 1
 1159.99804688 864 l 2
 1265.33105469 864 1355.6640625 859.666992188 1430.99707031 851 c 0
 1506.33007812 842.333007812 1569.83007812 829.5 1621.49707031 812.5 c 0
 1673.1640625 795.5 1714.33105469 774.333007812 1744.99804688 749 c 0
 1775.66503906 723.666992188 1799.33203125 694.833984375 1815.99902344 662.500976562 c 0
 1832.66601562 630.16796875 1843.49902344 594.000976562 1848.49902344 554.000976562 c 0
 1853.49902344 514.000976562 1855.99902344 470.66796875 1855.99902344 424.000976562 c 0
 1855.99902344 377.333984375 1851.83203125 333.500976562 1843.49902344 292.500976562 c 0
 1835.16601562 251.500976562 1820.33300781 214.000976562 1799 180.000976562 c 0
 1777.66699219 146.000976562 1748.66699219 115.66796875 1712 89.0009765625 c 0
 1675.33300781 62.333984375 1628.66601562 39.6669921875 1571.99902344 21 c 0
 1515.33203125 2.3330078125 1446.99902344 -11.6669921875 1366.99902344 -21 c 0
 1291.66601562 -30.3330078125 1204.33300781 -35.3330078125 1105 -36 c 1
 1105 -128 l 1
 913 -128 l 1
 913 -36 l 1
912.999023438 864.004882812 m 1
 912.998046875 1408.00585938 l 1
 805.665039062 1406.67285156 715.998046875 1402.00585938 643.998046875 1394.00585938 c 0
 561.331054688 1385.33886719 495.998046875 1370.33886719 447.998046875 1349.00585938 c 0
 399.998046875 1327.67285156 366.665039062 1299.00585938 347.998046875 1263.00585938 c 0
 329.331054688 1227.00585938 319.998046875 1182.00585938 319.998046875 1128.00585938 c 0
 319.998046875 1094.67285156 322.331054688 1065.00585938 326.998046875 1039.00585938 c 0
 331.665039062 1013.00585938 341.165039062 990.172851562 355.498046875 970.505859375 c 0
 369.831054688 950.838867188 389.998046875 934.338867188 415.998046875 921.005859375 c 0
 441.998046875 907.672851562 476.331054688 896.672851562 518.998046875 888.005859375 c 0
 561.665039062 879.338867188 613.83203125 873.171875 675.499023438 869.504882812 c 0
 737.166015625 865.837890625 810.666015625 864.004882812 895.999023438 864.004882812 c 2
 912.999023438 864.004882812 l 1
1104.99804688 704.005859375 m 1
 1104.99707031 128.005859375 l 1
 1209.6640625 128.672851562 1296.99707031 134.005859375 1366.99707031 144.005859375 c 0
 1440.99707031 154.672851562 1499.99707031 171.672851562 1543.99707031 195.005859375 c 0
 1587.99707031 218.338867188 1618.99707031 248.838867188 1636.99707031 286.505859375 c 0
 1654.99707031 324.172851562 1663.99707031 370.005859375 1663.99707031 424.005859375 c 0
 1663.99707031 478.005859375 1657.83007812 523.005859375 1645.49707031 559.005859375 c 0
 1633.1640625 595.005859375 1608.83105469 623.672851562 1572.49804688 645.005859375 c 0
 1536.16503906 666.338867188 1484.99804688 681.505859375 1418.99804688 690.505859375 c 0
 1352.99804688 699.505859375 1266.66503906 704.005859375 1159.99804688 704.005859375 c 2
 1104.99804688 704.005859375 l 1
EndSplineSet
Validated: 524289
EndChar

StartChar: percent
Encoding: 37 37 8
Width: 1023
GlyphClass: 2
Flags: W
LayerCount: 2
Back
Fore
SplineSet
64 0 m 1
 256 0 l 1
 960 1536 l 1
 768 1536 l 1
 64 0 l 1
EndSplineSet
Validated: 9
EndChar

StartChar: ampersand
Encoding: 38 38 9
Width: 2432
GlyphClass: 2
Flags: W
LayerCount: 2
Back
Fore
SplineSet
1760 768 m 1
 1952.00195312 767.999023438 l 1
 1952.00195312 703.999023438 l 2
 1952.00195312 601.33203125 1948.50195312 512.665039062 1941.50195312 437.998046875 c 0
 1934.50195312 363.331054688 1920.33496094 299.998046875 1899.00195312 247.998046875 c 0
 1877.66894531 195.998046875 1847.3359375 153.831054688 1808.00292969 121.498046875 c 0
 1768.66992188 89.1650390625 1717.00292969 63.998046875 1653.00292969 45.998046875 c 0
 1589.00292969 27.998046875 1510.8359375 15.8310546875 1418.50292969 9.498046875 c 0
 1326.16992188 3.1650390625 1216.00292969 -0.001953125 1088.00292969 -0.001953125 c 0
 970.669921875 -0.001953125 865.502929688 0.8310546875 772.502929688 2.498046875 c 0
 679.502929688 4.1650390625 597.502929688 9.6650390625 526.502929688 18.998046875 c 0
 455.502929688 28.3310546875 394.669921875 43.3310546875 344.002929688 63.998046875 c 0
 293.3359375 84.6650390625 252.002929688 113.998046875 220.002929688 151.998046875 c 0
 188.002929688 189.998046875 164.669921875 238.165039062 150.002929688 296.498046875 c 0
 135.3359375 354.831054688 128.002929688 426.6640625 128.002929688 511.997070312 c 0
 128.002929688 575.997070312 135.169921875 631.497070312 149.502929688 678.497070312 c 0
 163.8359375 725.497070312 182.3359375 765.6640625 205.002929688 798.997070312 c 0
 227.669921875 832.330078125 252.669921875 859.330078125 280.002929688 879.997070312 c 0
 307.3359375 900.6640625 334.002929688 916.997070312 360.002929688 928.997070312 c 0
 386.002929688 940.997070312 409.8359375 949.1640625 431.502929688 953.497070312 c 0
 453.169921875 957.830078125 469.336914062 959.997070312 480.00390625 959.997070312 c 1
 456.00390625 975.997070312 434.170898438 992.330078125 414.50390625 1008.99707031 c 0
 394.836914062 1025.6640625 378.00390625 1043.99707031 364.00390625 1063.99707031 c 0
 350.00390625 1083.99707031 339.170898438 1106.33007812 331.50390625 1130.99707031 c 0
 323.836914062 1155.6640625 320.00390625 1183.99707031 320.00390625 1215.99707031 c 0
 320.00390625 1279.99707031 330.50390625 1333.1640625 351.50390625 1375.49707031 c 0
 372.50390625 1417.83007812 400.836914062 1451.99707031 436.50390625 1477.99707031 c 0
 472.170898438 1503.99707031 513.50390625 1523.33007812 560.50390625 1535.99707031 c 0
 607.50390625 1548.6640625 657.00390625 1557.33105469 709.00390625 1561.99804688 c 0
 761.00390625 1566.66503906 814.00390625 1568.83203125 868.00390625 1568.49902344 c 0
 922.00390625 1568.16601562 974.00390625 1567.99902344 1024.00390625 1567.99902344 c 0
 1130.67089844 1567.99902344 1223.83789062 1566.49902344 1303.50488281 1563.49902344 c 0
 1383.171875 1560.49902344 1451.33886719 1553.99902344 1508.00585938 1543.99902344 c 0
 1564.67285156 1533.99902344 1611.33984375 1519.33203125 1648.00683594 1499.99902344 c 0
 1684.67382812 1480.66601562 1713.67382812 1454.33300781 1735.00683594 1421 c 0
 1756.33984375 1387.66699219 1771.17285156 1346.5 1779.50585938 1297.5 c 0
 1787.83886719 1248.5 1792.00585938 1189.33300781 1792.00585938 1120 c 1
 1600.00585938 1120 l 1
 1600.00585938 1168 1597.67285156 1208.5 1593.00585938 1241.5 c 0
 1588.33886719 1274.5 1578.83886719 1301.66699219 1564.50585938 1323 c 0
 1550.17285156 1344.33300781 1530.00585938 1360.66601562 1504.00585938 1371.99902344 c 0
 1478.00585938 1383.33203125 1443.67285156 1391.66503906 1401.00585938 1396.99804688 c 0
 1358.33886719 1402.33105469 1306.171875 1405.49804688 1244.50488281 1406.49804688 c 0
 1182.83789062 1407.49804688 1109.33789062 1407.99804688 1024.00488281 1407.99804688 c 0
 928.004882812 1407.99804688 847.337890625 1406.99804688 782.004882812 1404.99804688 c 0
 716.671875 1402.99804688 664.004882812 1395.99804688 624.004882812 1383.99804688 c 0
 584.004882812 1371.99804688 555.337890625 1352.99804688 538.004882812 1326.99804688 c 0
 520.671875 1300.99804688 512.004882812 1263.99804688 512.004882812 1215.99804688 c 0
 512.004882812 1198.66503906 514.671875 1181.83203125 520.004882812 1165.49902344 c 0
 525.337890625 1149.16601562 534.170898438 1132.99902344 546.50390625 1116.99902344 c 0
 558.836914062 1100.99902344 575.169921875 1085.33203125 595.502929688 1069.99902344 c 0
 615.8359375 1054.66601562 641.3359375 1039.33300781 672.002929688 1024 c 2
 2304.00292969 192 l 1
 2240.00292969 32 l 1
 640.002929688 833 l 1
 592.002929688 833 548.3359375 827 509.002929688 815 c 0
 469.669921875 803 436.002929688 784.166992188 408.002929688 758.5 c 0
 380.002929688 732.833007812 358.3359375 699.666015625 343.002929688 658.999023438 c 0
 327.669921875 618.33203125 320.002929688 569.33203125 320.002929688 511.999023438 c 0
 320.002929688 458.666015625 324.169921875 413.666015625 332.502929688 376.999023438 c 0
 340.8359375 340.33203125 355.668945312 310.165039062 377.001953125 286.498046875 c 0
 398.334960938 262.831054688 427.334960938 244.6640625 464.001953125 231.997070312 c 0
 500.668945312 219.330078125 547.501953125 209.997070312 604.501953125 203.997070312 c 0
 661.501953125 197.997070312 729.668945312 194.497070312 809.001953125 193.497070312 c 0
 888.334960938 192.497070312 981.334960938 191.997070312 1088.00195312 191.997070312 c 0
 1173.33496094 191.997070312 1249.16796875 192.497070312 1315.50097656 193.497070312 c 0
 1381.83398438 194.497070312 1439.83398438 197.830078125 1489.50097656 203.497070312 c 0
 1539.16796875 209.1640625 1581.16796875 218.331054688 1615.50097656 230.998046875 c 0
 1649.83398438 243.665039062 1677.66699219 261.83203125 1699 285.499023438 c 0
 1720.33300781 309.166015625 1735.83300781 339.333007812 1745.5 376 c 0
 1755.16699219 412.666992188 1760 458 1760 512 c 2
 1760 768 l 1
EndSplineSet
Validated: 524325
EndChar

StartChar: quotesingle
Encoding: 39 39 10
Width: 448
GlyphClass: 2
Flags: W
LayerCount: 2
Back
Fore
SplineSet
128 1536 m 1
 320 1536 l 1
 288 1152 l 1
 160 1152 l 1
 128 1536 l 1
EndSplineSet
Validated: 1
EndChar

StartChar: parenleft
Encoding: 40 40 11
Width: 768
GlyphClass: 2
Flags: W
LayerCount: 2
Back
Fore
SplineSet
640 -64 m 1
 554.666992188 -64 482.833984375 -52.3310546875 424.500976562 -28.998046875 c 0
 366.16796875 -5.6650390625 318.000976562 26.16796875 280.000976562 66.5009765625 c 0
 242.000976562 106.833984375 212.66796875 154.000976562 192.000976562 208.000976562 c 0
 171.333984375 262.000976562 156.333984375 319.833984375 147.000976562 381.500976562 c 0
 137.66796875 443.16796875 132.16796875 507.000976562 130.500976562 573.000976562 c 0
 128.833984375 639.000976562 128.000976562 704.000976562 128.000976562 768.000976562 c 0
 128.000976562 832.000976562 128.833984375 897.000976562 130.500976562 963.000976562 c 0
 132.16796875 1029.00097656 137.66796875 1092.83398438 147.000976562 1154.50097656 c 0
 156.333984375 1216.16796875 171.333984375 1274.00097656 192.000976562 1328.00097656 c 0
 212.66796875 1382.00097656 242.000976562 1429.16796875 280.000976562 1469.50097656 c 0
 318.000976562 1509.83398438 366.16796875 1541.66699219 424.500976562 1565 c 0
 482.833984375 1588.33300781 554.666992188 1600 640 1600 c 1
 640 1440 l 1
 586 1440 540.666992188 1433.83300781 504 1421.5 c 0
 467.333007812 1409.16699219 437.166015625 1390.5 413.499023438 1365.5 c 0
 389.83203125 1340.5 371.665039062 1309.33300781 358.998046875 1272 c 0
 346.331054688 1234.66699219 337.1640625 1191.16699219 331.497070312 1141.5 c 0
 325.830078125 1091.83300781 322.497070312 1035.83300781 321.497070312 973.5 c 0
 320.497070312 911.166992188 319.997070312 842.666992188 319.997070312 768 c 0
 319.997070312 693.333007812 320.497070312 624.833007812 321.497070312 562.5 c 0
 322.497070312 500.166992188 325.830078125 444.166992188 331.497070312 394.5 c 0
 337.1640625 344.833007812 346.331054688 301.333007812 358.998046875 264 c 0
 371.665039062 226.666992188 389.83203125 195.5 413.499023438 170.5 c 0
 437.166015625 145.5 467.333007812 126.833007812 504 114.5 c 0
 540.666992188 102.166992188 586 96 640 96 c 1
 640 -64 l 1
EndSplineSet
Validated: 524289
EndChar

StartChar: parenright
Encoding: 41 41 12
Width: 768
GlyphClass: 2
Flags: W
LayerCount: 2
Back
Fore
SplineSet
128 96 m 1
 181.333007812 96 226.5 102.165039062 263.5 114.498046875 c 0
 300.5 126.831054688 330.833007812 145.498046875 354.5 170.498046875 c 0
 378.166992188 195.498046875 396.333984375 226.665039062 409.000976562 263.998046875 c 0
 421.66796875 301.331054688 430.834960938 344.831054688 436.501953125 394.498046875 c 0
 442.168945312 444.165039062 445.501953125 500.165039062 446.501953125 562.498046875 c 0
 447.501953125 624.831054688 448.001953125 693.331054688 448.001953125 767.998046875 c 0
 448.001953125 842.665039062 447.501953125 911.165039062 446.501953125 973.498046875 c 0
 445.501953125 1035.83105469 442.168945312 1091.83105469 436.501953125 1141.49804688 c 0
 430.834960938 1191.16503906 421.66796875 1234.66503906 409.000976562 1271.99804688 c 0
 396.333984375 1309.33105469 378.166992188 1340.49804688 354.5 1365.49804688 c 0
 330.833007812 1390.49804688 300.5 1409.16503906 263.5 1421.49804688 c 0
 226.5 1433.83105469 181.333007812 1439.99804688 128 1439.99804688 c 1
 128 1599.99804688 l 1
 213.333007812 1599.99804688 285.166015625 1588.33105469 343.499023438 1564.99804688 c 0
 401.83203125 1541.66503906 449.999023438 1509.83203125 487.999023438 1469.49902344 c 0
 525.999023438 1429.16601562 555.33203125 1381.99902344 575.999023438 1327.99902344 c 0
 596.666015625 1273.99902344 611.666015625 1216.16601562 620.999023438 1154.49902344 c 0
 630.33203125 1092.83203125 635.83203125 1028.99902344 637.499023438 962.999023438 c 0
 639.166015625 896.999023438 639.999023438 831.999023438 639.999023438 767.999023438 c 0
 639.999023438 703.999023438 639.166015625 638.999023438 637.499023438 572.999023438 c 0
 635.83203125 506.999023438 630.33203125 443.166015625 620.999023438 381.499023438 c 0
 611.666015625 319.83203125 596.666015625 261.999023438 575.999023438 207.999023438 c 0
 555.33203125 153.999023438 525.999023438 106.83203125 487.999023438 66.4990234375 c 0
 449.999023438 26.166015625 401.83203125 -5.6669921875 343.499023438 -29 c 0
 285.166015625 -52.3330078125 213.333007812 -64 128 -64 c 1
 128 96 l 1
EndSplineSet
Validated: 524289
EndChar

StartChar: asterisk
Encoding: 42 42 13
Width: 1415
GlyphClass: 2
Flags: W
LayerCount: 2
Back
Fore
SplineSet
420 384 m 1
 264 495 l 1
 628 896 l 1
 128 1072 l 1
 228 1250 l 1
 660 992 l 1
 612 1536 l 1
 804 1536 l 1
 756 992 l 1
 1187 1250 l 1
 1287 1072 l 1
 788 896 l 1
 1152 495 l 1
 996 384 l 1
 708 834 l 1
 420 384 l 1
EndSplineSet
Validated: 1
EndChar

StartChar: plus
Encoding: 43 43 14
Width: 1344
GlyphClass: 2
Flags: W
LayerCount: 2
Back
Fore
SplineSet
128 960 m 1
 576 960 l 1
 576 1408 l 1
 768 1408 l 1
 768 960 l 1
 1216 960 l 1
 1216 800 l 1
 768 800 l 1
 768 320 l 1
 576 320 l 1
 576 800 l 1
 128 800 l 1
 128 960 l 1
EndSplineSet
Validated: 1
EndChar

StartChar: comma
Encoding: 44 44 15
Width: 448
GlyphClass: 2
Flags: W
LayerCount: 2
Back
Fore
SplineSet
128 128 m 1
 320 128 l 1
 192 -256 l 1
 64 -256 l 1
 128 128 l 1
EndSplineSet
Validated: 1
EndChar

StartChar: hyphen
Encoding: 45 45 16
Width: 1024
GlyphClass: 2
Flags: W
LayerCount: 2
Back
Fore
SplineSet
128 672 m 1
 896 672 l 1
 896 512 l 1
 128 512 l 1
 128 672 l 1
EndSplineSet
Validated: 1
EndChar

StartChar: period
Encoding: 46 46 17
Width: 448
GlyphClass: 2
Flags: W
LayerCount: 2
Back
Fore
SplineSet
320 0 m 1
 128 0 l 1
 128 192 l 1
 320 192 l 1
 320 0 l 1
EndSplineSet
Validated: 1
EndChar

StartChar: slash
Encoding: 47 47 18
Width: 1023
GlyphClass: 2
Flags: W
LayerCount: 2
Back
Fore
SplineSet
768 1536 m 1
 960 1536 l 1
 256 0 l 1
 64 0 l 1
 768 1536 l 1
EndSplineSet
Validated: 1
EndChar

StartChar: zero
Encoding: 48 48 19
Width: 2048
GlyphClass: 2
Flags: W
LayerCount: 2
Back
Fore
SplineSet
1217 1568 m 2
 1334.33300781 1568 1433.16601562 1560.83300781 1513.49902344 1546.5 c 0
 1593.83203125 1532.16699219 1659.99902344 1510.5 1711.99902344 1481.5 c 0
 1763.99902344 1452.5 1803.99902344 1416 1831.99902344 1372 c 0
 1859.99902344 1328 1880.49902344 1276.33300781 1893.49902344 1217 c 0
 1906.49902344 1157.66699219 1914.16601562 1090.66699219 1916.49902344 1016 c 0
 1918.83203125 941.333007812 1919.99902344 858.666015625 1919.99902344 767.999023438 c 0
 1919.99902344 677.33203125 1918.83203125 594.665039062 1916.49902344 519.998046875 c 0
 1914.16601562 445.331054688 1906.49902344 378.331054688 1893.49902344 318.998046875 c 0
 1880.49902344 259.665039062 1859.99902344 207.998046875 1831.99902344 163.998046875 c 0
 1803.99902344 119.998046875 1763.99902344 83.498046875 1711.99902344 54.498046875 c 0
 1659.99902344 25.498046875 1593.83203125 3.8310546875 1513.49902344 -10.501953125 c 0
 1433.16601562 -24.8349609375 1334.33300781 -32.001953125 1217 -32.001953125 c 2
 832 -32.001953125 l 2
 714.666992188 -32.001953125 615.833984375 -24.8349609375 535.500976562 -10.501953125 c 0
 455.16796875 3.8310546875 389.000976562 25.498046875 337.000976562 54.498046875 c 0
 285.000976562 83.498046875 244.833984375 119.998046875 216.500976562 163.998046875 c 0
 188.16796875 207.998046875 167.500976562 259.665039062 154.500976562 318.998046875 c 0
 141.500976562 378.331054688 134.000976562 445.331054688 132.000976562 519.998046875 c 0
 130.000976562 594.665039062 129.000976562 677.33203125 129.000976562 767.999023438 c 0
 129.000976562 858.666015625 130.000976562 941.333007812 132.000976562 1016 c 0
 134.000976562 1090.66699219 141.500976562 1157.66699219 154.500976562 1217 c 0
 167.500976562 1276.33300781 188.16796875 1328 216.500976562 1372 c 0
 244.833984375 1416 285.000976562 1452.5 337.000976562 1481.5 c 0
 389.000976562 1510.5 455.16796875 1532.16699219 535.500976562 1546.5 c 0
 615.833984375 1560.83300781 714.666992188 1568 832 1568 c 2
 1217 1568 l 2
1217 128 m 2
 1302.33300781 128 1374 130.5 1432 135.5 c 0
 1490 140.5 1538 150.666992188 1576 166 c 0
 1614 181.333007812 1643.33300781 203.333007812 1664 232 c 0
 1684.66699219 260.666992188 1699.66699219 298.666992188 1709 346 c 0
 1718.33300781 393.333007812 1723.83300781 451.5 1725.5 520.5 c 0
 1727.16699219 589.5 1728 672 1728 768 c 0
 1728 864 1727.16699219 946.5 1725.5 1015.5 c 0
 1723.83300781 1084.5 1718.33300781 1142.66699219 1709 1190 c 0
 1699.66699219 1237.33300781 1684.66699219 1275.33300781 1664 1304 c 0
 1643.33300781 1332.66699219 1614.16601562 1354.66699219 1576.49902344 1370 c 0
 1538.83203125 1385.33300781 1490.83203125 1395.5 1432.49902344 1400.5 c 0
 1374.16601562 1405.5 1302.33300781 1408 1217 1408 c 2
 832 1408 l 2
 746.666992188 1408 674.833984375 1405.5 616.500976562 1400.5 c 0
 558.16796875 1395.5 510.000976562 1385.33300781 472.000976562 1370 c 0
 434.000976562 1354.66699219 404.66796875 1332.66699219 384.000976562 1304 c 0
 363.333984375 1275.33300781 348.333984375 1237.33300781 339.000976562 1190 c 0
 329.66796875 1142.66699219 324.334960938 1084.5 323.001953125 1015.5 c 0
 321.668945312 946.5 321.001953125 864 321.001953125 768 c 0
 321.001953125 672 321.834960938 589.5 323.501953125 520.5 c 0
 325.168945312 451.5 330.668945312 393.333007812 340.001953125 346 c 0
 349.334960938 298.666992188 364.16796875 260.666992188 384.500976562 232 c 0
 404.833984375 203.333007812 434.000976562 181.333007812 472.000976562 166 c 0
 510.000976562 150.666992188 558.16796875 140.5 616.500976562 135.5 c 0
 674.833984375 130.5 746.666992188 128 832 128 c 2
 1217 128 l 2
EndSplineSet
Validated: 524289
EndChar

StartChar: one
Encoding: 49 49 20
Width: 992
GlyphClass: 2
Flags: W
LayerCount: 2
Back
Fore
SplineSet
608 1536 m 1
 864 1536 l 1
 864 0 l 1
 672 0 l 1
 672 1376 l 1
 224 992 l 1
 128 1120 l 1
 608 1536 l 1
EndSplineSet
Validated: 1
EndChar

StartChar: two
Encoding: 50 50 21
Width: 1984
GlyphClass: 2
Flags: W
LayerCount: 2
Back
Fore
SplineSet
128 192 m 2
 128 232 128.998046875 271.83203125 130.998046875 311.499023438 c 0
 132.998046875 351.166015625 137.498046875 389.166015625 144.498046875 425.499023438 c 0
 151.498046875 461.83203125 161.831054688 495.999023438 175.498046875 527.999023438 c 0
 189.165039062 559.999023438 207.83203125 588.166015625 231.499023438 612.499023438 c 0
 255.166015625 636.83203125 284.666015625 656.999023438 319.999023438 672.999023438 c 0
 355.33203125 688.999023438 397.999023438 699.33203125 447.999023438 703.999023438 c 2
 1471.99902344 799.999023438 l 2
 1503.99902344 802.666015625 1531.99902344 807.333007812 1555.99902344 814 c 0
 1579.99902344 820.666992188 1599.83203125 833.5 1615.49902344 852.5 c 0
 1631.16601562 871.5 1642.99902344 899.333007812 1650.99902344 936 c 0
 1658.99902344 972.666992188 1662.99902344 1023 1662.99902344 1087 c 0
 1662.99902344 1140.33300781 1658.99902344 1185.33300781 1650.99902344 1222 c 0
 1642.99902344 1258.66699219 1629.66601562 1289 1610.99902344 1313 c 0
 1592.33203125 1337 1567.16503906 1355.33300781 1535.49804688 1368 c 0
 1503.83105469 1380.66699219 1464.33105469 1390 1416.99804688 1396 c 0
 1369.66503906 1402 1313.66503906 1405.5 1248.99804688 1406.5 c 0
 1184.33105469 1407.5 1109.33105469 1408 1023.99804688 1408 c 0
 906.665039062 1408 807.83203125 1405.83300781 727.499023438 1401.5 c 0
 647.166015625 1397.16699219 580.833007812 1389.33398438 528.5 1378.00097656 c 0
 476.166992188 1366.66796875 436 1351.33496094 408 1332.00195312 c 0
 380 1312.66894531 359.5 1287.50195312 346.5 1256.50195312 c 0
 333.5 1225.50195312 325.833007812 1188.33496094 323.5 1145.00195312 c 0
 321.166992188 1101.66894531 320 1050.66894531 320 992.001953125 c 1
 128 992.001953125 l 1
 128 1088.00195312 136.833007812 1168.83496094 154.5 1234.50195312 c 0
 172.166992188 1300.16894531 198.166992188 1354.3359375 232.5 1397.00292969 c 0
 266.833007812 1439.66992188 309.333007812 1472.66992188 360 1496.00292969 c 0
 410.666992188 1519.3359375 469.166992188 1536.3359375 535.5 1547.00292969 c 0
 601.833007812 1557.66992188 675.833007812 1563.83691406 757.5 1565.50390625 c 0
 839.166992188 1567.17089844 928 1568.00390625 1024 1568.00390625 c 0
 1120 1568.00390625 1207.16699219 1566.50390625 1285.5 1563.50390625 c 0
 1363.83300781 1560.50390625 1433.83300781 1553.67089844 1495.5 1543.00390625 c 0
 1557.16699219 1532.33691406 1610.66699219 1516.66992188 1656 1496.00292969 c 0
 1701.33300781 1475.3359375 1738.83300781 1447.16894531 1768.5 1411.50195312 c 0
 1798.16699219 1375.83496094 1820.16699219 1331.66796875 1834.5 1279.00097656 c 0
 1848.83300781 1226.33398438 1856 1162.66699219 1856 1088 c 0
 1856 1024 1851.33300781 965.833007812 1842 913.5 c 0
 1832.66699219 861.166992188 1816 815.666992188 1792 777 c 0
 1768 738.333007812 1735.33300781 707.333007812 1694 684 c 0
 1652.66699219 660.666992188 1600 646 1536 640 c 2
 512 544 l 2
 463.333007812 539.333007812 426 530.333007812 400 517 c 0
 374 503.666992188 355 482.5 343 453.5 c 0
 331 424.5 324.166992188 386.333007812 322.5 339 c 0
 320.833007812 291.666992188 320 232 320 160 c 1
 1824 160 l 1
 1824 0 l 1
 128 0 l 1
 128 192 l 2
EndSplineSet
Validated: 524289
EndChar

StartChar: three
Encoding: 51 51 22
Width: 1984
GlyphClass: 2
Flags: W
LayerCount: 2
Back
Fore
SplineSet
1472 864 m 2
 1504 864 1531.99902344 866.676757812 1555.99902344 872.009765625 c 0
 1579.99902344 877.342773438 1599.83203125 887.842773438 1615.49902344 903.509765625 c 0
 1631.16601562 919.176757812 1642.99902344 941.676757812 1650.99902344 971.009765625 c 0
 1658.99902344 1000.34277344 1662.99902344 1039.00976562 1662.99902344 1087.00976562 c 0
 1662.99902344 1140.34277344 1658.99902344 1185.34277344 1650.99902344 1222.00976562 c 0
 1642.99902344 1258.67675781 1629.66601562 1289.00976562 1610.99902344 1313.00976562 c 0
 1592.33203125 1337.00976562 1567.16503906 1355.34277344 1535.49804688 1368.00976562 c 0
 1503.83105469 1380.67675781 1464.33105469 1390.00976562 1416.99804688 1396.00976562 c 0
 1369.66503906 1402.00976562 1313.66503906 1405.50976562 1248.99804688 1406.50976562 c 0
 1184.33105469 1407.50976562 1109.33105469 1408.00976562 1023.99804688 1408.00976562 c 0
 906.665039062 1408.00976562 807.83203125 1406.50976562 727.499023438 1403.50976562 c 0
 647.166015625 1400.50976562 580.833007812 1394.84277344 528.5 1386.50976562 c 0
 476.166992188 1378.17675781 436 1366.67675781 408 1352.00976562 c 0
 380 1337.34277344 359.5 1318.17578125 346.5 1294.50878906 c 0
 333.5 1270.84179688 325.833007812 1242.00878906 323.5 1208.00878906 c 0
 321.166992188 1174.00878906 320 1134.00878906 320 1088.00878906 c 1
 128 1088.00878906 l 1
 128 1168.67578125 136.833007812 1236.67578125 154.5 1292.00878906 c 0
 172.166992188 1347.34179688 198.166992188 1392.84179688 232.5 1428.50878906 c 0
 266.833007812 1464.17578125 309.333007812 1491.50878906 360 1510.50878906 c 0
 410.666992188 1529.50878906 469.166992188 1543.17578125 535.5 1551.50878906 c 0
 601.833007812 1559.84179688 675.833007812 1564.67480469 757.5 1566.0078125 c 0
 839.166992188 1567.34082031 928 1568.0078125 1024 1568.0078125 c 0
 1120 1568.0078125 1207.16699219 1566.5078125 1285.5 1563.5078125 c 0
 1363.83300781 1560.5078125 1433.83300781 1553.67480469 1495.5 1543.0078125 c 0
 1557.16699219 1532.34082031 1610.66699219 1516.67382812 1656 1496.00683594 c 0
 1701.33300781 1475.33984375 1738.83300781 1447.17285156 1768.5 1411.50585938 c 0
 1798.16699219 1375.83886719 1820.16699219 1331.671875 1834.5 1279.00488281 c 0
 1848.83300781 1226.33789062 1856 1162.67089844 1856 1088.00390625 c 0
 1856 1040.00390625 1852.83300781 999.336914062 1846.5 966.00390625 c 0
 1840.16699219 932.670898438 1830.5 904.50390625 1817.5 881.50390625 c 0
 1804.5 858.50390625 1788 839.50390625 1768 824.50390625 c 0
 1748 809.50390625 1724 796.00390625 1696 784.00390625 c 1
 1724 772.00390625 1748 756.670898438 1768 738.00390625 c 0
 1788 719.336914062 1804.5 696.50390625 1817.5 669.50390625 c 0
 1830.5 642.50390625 1840.16699219 610.836914062 1846.5 574.50390625 c 0
 1852.83300781 538.170898438 1856 496.00390625 1856 448.00390625 c 0
 1856 373.336914062 1848.83300781 309.669921875 1834.5 257.002929688 c 0
 1820.16699219 204.3359375 1798.16699219 160.168945312 1768.5 124.501953125 c 0
 1738.83300781 88.8349609375 1701.33300781 60.66796875 1656 40.0009765625 c 0
 1610.66699219 19.333984375 1557.16699219 3.6669921875 1495.5 -7 c 0
 1433.83300781 -17.6669921875 1363.83300781 -24.5 1285.5 -27.5 c 0
 1207.16699219 -30.5 1120 -32 1024 -32 c 0
 928 -32 839.166992188 -31.3330078125 757.5 -30 c 0
 675.833007812 -28.6669921875 601.833007812 -23.333984375 535.5 -14.0009765625 c 0
 469.166992188 -4.66796875 410.666992188 10.1650390625 360 30.498046875 c 0
 309.333007812 50.8310546875 266.833007812 79.998046875 232.5 117.998046875 c 0
 198.166992188 155.998046875 172.166992188 204.331054688 154.5 262.998046875 c 0
 136.833007812 321.665039062 128 393.998046875 128 479.998046875 c 1
 320 479.998046875 l 1
 320 429.331054688 321.333007812 385.498046875 324 348.498046875 c 0
 326.666992188 311.498046875 334.333984375 279.998046875 347.000976562 253.998046875 c 0
 359.66796875 227.998046875 380.000976562 206.831054688 408.000976562 190.498046875 c 0
 436.000976562 174.165039062 476.16796875 161.33203125 528.500976562 151.999023438 c 0
 580.833984375 142.666015625 647.166992188 136.333007812 727.5 133 c 0
 807.833007812 129.666992188 906.666015625 128 1023.99902344 128 c 0
 1109.33203125 128 1184.33203125 128.5 1248.99902344 129.5 c 0
 1313.66601562 130.5 1369.66601562 134 1416.99902344 140 c 0
 1464.33203125 146 1503.83203125 155.333007812 1535.49902344 168 c 0
 1567.16601562 180.666992188 1592.33300781 199 1611 223 c 0
 1629.66699219 247 1643 277.333007812 1651 314 c 0
 1659 350.666992188 1663 395.666992188 1663 449 c 0
 1663 505 1659 549.833007812 1651 583.5 c 0
 1643 617.166992188 1631.16699219 643 1615.5 661 c 0
 1599.83300781 679 1580 690.666992188 1556 696 c 0
 1532 701.333007812 1504 704 1472 704 c 2
 768 704 l 1
 768 864 l 1
 1472 864 l 2
EndSplineSet
Validated: 524289
EndChar

StartChar: four
Encoding: 52 52 23
Width: 2048
GlyphClass: 2
Flags: W
LayerCount: 2
Back
Fore
SplineSet
1664 320 m 1
 1664 0 l 1
 1472 0 l 1
 1472 320 l 1
 128 320 l 1
 128 512 l 1
 1408 1536 l 1
 1664 1536 l 1
 1664 480 l 1
 1920 480 l 1
 1920 320 l 1
 1664 320 l 1
1472 480 m 1
 1472 1408 l 1
 320 480 l 1
 1472 480 l 1
EndSplineSet
Validated: 1
EndChar

StartChar: five
Encoding: 53 53 24
Width: 1984
GlyphClass: 2
Flags: W
LayerCount: 2
Back
Fore
SplineSet
1280 1056 m 2
 1365.33300781 1056 1438.83300781 1051.5 1500.5 1042.5 c 0
 1562.16699219 1033.5 1614.33398438 1019.5 1657.00097656 1000.5 c 0
 1699.66796875 981.5 1734.00097656 957.333007812 1760.00097656 928 c 0
 1786.00097656 898.666992188 1806.16796875 863.833984375 1820.50097656 823.500976562 c 0
 1834.83398438 783.16796875 1844.33398438 737.16796875 1849.00097656 685.500976562 c 0
 1853.66796875 633.833984375 1856.00097656 576.000976562 1856.00097656 512.000976562 c 0
 1856.00097656 428.66796875 1848.83398438 357.16796875 1834.50097656 297.500976562 c 0
 1820.16796875 237.833984375 1798.16796875 187.833984375 1768.50097656 147.500976562 c 0
 1738.83398438 107.16796875 1701.33398438 75.16796875 1656.00097656 51.5009765625 c 0
 1610.66796875 27.833984375 1557.16796875 9.833984375 1495.50097656 -2.4990234375 c 0
 1433.83398438 -14.83203125 1363.83398438 -22.83203125 1285.50097656 -26.4990234375 c 0
 1207.16796875 -30.166015625 1120.00097656 -31.9990234375 1024.00097656 -31.9990234375 c 0
 928.000976562 -31.9990234375 839.16796875 -31.33203125 757.500976562 -29.9990234375 c 0
 675.833984375 -28.666015625 601.833984375 -23.3330078125 535.500976562 -14 c 0
 469.16796875 -4.6669921875 410.66796875 10.166015625 360.000976562 30.4990234375 c 0
 309.333984375 50.83203125 266.833984375 79.9990234375 232.500976562 117.999023438 c 0
 198.16796875 155.999023438 172.16796875 204.33203125 154.500976562 262.999023438 c 0
 136.833984375 321.666015625 128.000976562 393.999023438 128.000976562 479.999023438 c 1
 320.000976562 479.999023438 l 1
 320.000976562 429.33203125 321.16796875 385.499023438 323.500976562 348.499023438 c 0
 325.833984375 311.499023438 333.500976562 279.999023438 346.500976562 253.999023438 c 0
 359.500976562 227.999023438 380.000976562 206.83203125 408.000976562 190.499023438 c 0
 436.000976562 174.166015625 476.16796875 161.333007812 528.500976562 152 c 0
 580.833984375 142.666992188 647.166992188 136.333984375 727.5 133.000976562 c 0
 807.833007812 129.66796875 906.666015625 128.000976562 1023.99902344 128.000976562 c 0
 1109.33203125 128.000976562 1184.33203125 128.66796875 1248.99902344 130.000976562 c 0
 1313.66601562 131.333984375 1369.83300781 135.666992188 1417.5 143 c 0
 1465.16699219 150.333007812 1504.66699219 161.833007812 1536 177.5 c 0
 1567.33300781 193.166992188 1592.5 215.333984375 1611.5 244.000976562 c 0
 1630.5 272.66796875 1644 308.834960938 1652 352.501953125 c 0
 1660 396.168945312 1664 449.668945312 1664 513.001953125 c 0
 1664 598.334960938 1659 666.334960938 1649 717.001953125 c 0
 1639 767.668945312 1620 806.168945312 1592 832.501953125 c 0
 1564 858.834960938 1525 876.001953125 1475 884.001953125 c 0
 1425 892.001953125 1360 896.001953125 1280 896.001953125 c 2
 768 896.001953125 l 2
 680 896.001953125 608.666992188 892.168945312 554 884.501953125 c 0
 499.333007812 876.834960938 456 866.001953125 424 852.001953125 c 0
 392 838.001953125 368.666992188 821.168945312 354 801.501953125 c 0
 339.333007812 781.834960938 328 760.001953125 320 736.001953125 c 1
 128 736.001953125 l 1
 128 1536.00195312 l 1
 1792 1536.00195312 l 1
 1792 1376.00195312 l 1
 320 1376.00195312 l 1
 320 896.001953125 l 2
 320.666992188 897.334960938 323.5 902.16796875 328.5 910.500976562 c 0
 333.5 918.833984375 342.166992188 929.000976562 354.5 941.000976562 c 0
 366.833007812 953.000976562 383.5 965.66796875 404.5 979.000976562 c 0
 425.5 992.333984375 452.5 1004.66699219 485.5 1016 c 0
 518.5 1027.33300781 558.166992188 1036.83300781 604.5 1044.5 c 0
 650.833007812 1052.16699219 705.333007812 1056 768 1056 c 2
 1280 1056 l 2
EndSplineSet
Validated: 524289
EndChar

StartChar: six
Encoding: 54 54 25
Width: 1984
GlyphClass: 2
Flags: W
LayerCount: 2
Back
Fore
SplineSet
960 1408 m 0
 856.666992188 1408 769.169921875 1406.33203125 697.502929688 1402.99902344 c 0
 625.8359375 1399.66601562 566.3359375 1391.83300781 519.002929688 1379.5 c 0
 471.669921875 1367.16699219 434.669921875 1348.66699219 408.002929688 1324 c 0
 381.3359375 1299.33300781 361.502929688 1265.66601562 348.502929688 1222.99902344 c 0
 335.502929688 1180.33203125 327.502929688 1127.16503906 324.502929688 1063.49804688 c 0
 321.502929688 999.831054688 320.002929688 922.6640625 320.002929688 831.997070312 c 1
 372.002929688 863.330078125 439.3359375 887.163085938 522.002929688 903.49609375 c 0
 604.669921875 919.829101562 708.002929688 927.99609375 832.002929688 927.99609375 c 2
 1153.00292969 927.99609375 l 2
 1297.00292969 927.99609375 1414.66992188 917.99609375 1506.00292969 897.99609375 c 0
 1597.3359375 877.99609375 1668.8359375 847.99609375 1720.50292969 807.99609375 c 0
 1772.16992188 767.99609375 1807.66992188 717.99609375 1827.00292969 657.99609375 c 0
 1846.3359375 597.99609375 1856.00292969 527.99609375 1856.00292969 447.99609375 c 0
 1856.00292969 367.99609375 1846.3359375 297.99609375 1827.00292969 237.99609375 c 0
 1807.66992188 177.99609375 1772.16992188 127.99609375 1720.50292969 87.99609375 c 0
 1668.8359375 47.99609375 1597.3359375 17.99609375 1506.00292969 -2.00390625 c 0
 1414.66992188 -22.00390625 1297.00292969 -32.00390625 1153.00292969 -32.00390625 c 2
 832.002929688 -32.00390625 l 2
 714.669921875 -32.00390625 615.836914062 -24.8369140625 535.50390625 -10.50390625 c 0
 455.170898438 3.8291015625 388.837890625 25.49609375 336.504882812 54.49609375 c 0
 284.171875 83.49609375 244.004882812 119.99609375 216.004882812 163.99609375 c 0
 188.004882812 207.99609375 167.504882812 259.663085938 154.504882812 318.99609375 c 0
 141.504882812 378.329101562 133.837890625 445.329101562 131.504882812 519.99609375 c 0
 129.171875 594.663085938 128.004882812 677.330078125 128.004882812 767.997070312 c 0
 128.004882812 863.997070312 129.337890625 950.497070312 132.004882812 1027.49707031 c 0
 134.671875 1104.49707031 143.671875 1172.49707031 159.004882812 1231.49707031 c 0
 174.337890625 1290.49707031 198.670898438 1341.33007812 232.00390625 1383.99707031 c 0
 265.336914062 1426.6640625 312.836914062 1461.49707031 374.50390625 1488.49707031 c 0
 436.170898438 1515.49707031 514.50390625 1535.49707031 609.50390625 1548.49707031 c 0
 704.50390625 1561.49707031 821.336914062 1567.99707031 960.00390625 1567.99707031 c 0
 1077.33691406 1567.99707031 1179.33691406 1563.6640625 1266.00390625 1554.99707031 c 0
 1352.67089844 1546.33007812 1426.83789062 1533.33007812 1488.50488281 1515.99707031 c 0
 1550.171875 1498.6640625 1600.671875 1477.33105469 1640.00488281 1451.99804688 c 0
 1679.33789062 1426.66503906 1710.17089844 1397.33203125 1732.50390625 1363.99902344 c 0
 1754.83691406 1330.66601562 1770.16992188 1293.66601562 1778.50292969 1252.99902344 c 0
 1786.8359375 1212.33203125 1791.00292969 1167.99902344 1791.00292969 1119.99902344 c 1
 1632.00292969 1119.99902344 l 1
 1632.00292969 1146.66601562 1630.16992188 1172.33300781 1626.50292969 1197 c 0
 1622.8359375 1221.66699219 1614.00292969 1244.66699219 1600.00292969 1266 c 0
 1586.00292969 1287.33300781 1564.66992188 1306.66601562 1536.00292969 1323.99902344 c 0
 1507.3359375 1341.33203125 1468.16894531 1356.33203125 1418.50195312 1368.99902344 c 0
 1368.83496094 1381.66601562 1306.66796875 1391.33300781 1232.00097656 1398 c 0
 1157.33398438 1404.66699219 1066.66699219 1408 960 1408 c 0
832.002929688 767.999023438 m 2
 762.002929688 767.999023438 700.668945312 767.166992188 648.001953125 765.5 c 0
 595.334960938 763.833007812 550.16796875 760 512.500976562 754 c 0
 474.833984375 748 443.500976562 739.333007812 418.500976562 728 c 0
 393.500976562 716.666992188 373.833984375 701.5 359.500976562 682.5 c 0
 345.16796875 663.5 335.000976562 640 329.000976562 612 c 0
 323.000976562 584 320.000976562 550.666992188 320.000976562 512 c 0
 320.000976562 458.666992188 323.000976562 412.166992188 329.000976562 372.5 c 0
 335.000976562 332.833007812 345.16796875 298.833007812 359.500976562 270.5 c 0
 373.833984375 242.166992188 393.500976562 218.666992188 418.500976562 200 c 0
 443.500976562 181.333007812 474.833984375 166.666015625 512.500976562 155.999023438 c 0
 550.16796875 145.33203125 595.334960938 137.999023438 648.001953125 133.999023438 c 0
 700.668945312 129.999023438 762.001953125 127.999023438 832.001953125 127.999023438 c 2
 1153.00195312 127.999023438 l 2
 1227.66894531 127.999023438 1292.16894531 129.999023438 1346.50195312 133.999023438 c 0
 1400.83496094 137.999023438 1446.83496094 144.666015625 1484.50195312 153.999023438 c 0
 1522.16894531 163.33203125 1552.8359375 175.999023438 1576.50292969 191.999023438 c 0
 1600.16992188 207.999023438 1618.50292969 227.83203125 1631.50292969 251.499023438 c 0
 1644.50292969 275.166015625 1653.16992188 303.166015625 1657.50292969 335.499023438 c 0
 1661.8359375 367.83203125 1664.00292969 405.33203125 1664.00292969 447.999023438 c 0
 1664.00292969 490.666015625 1661.66992188 528.166015625 1657.00292969 560.499023438 c 0
 1652.3359375 592.83203125 1643.50292969 620.83203125 1630.50292969 644.499023438 c 0
 1617.50292969 668.166015625 1599.3359375 687.999023438 1576.00292969 703.999023438 c 0
 1552.66992188 719.999023438 1522.00292969 732.666015625 1484.00292969 741.999023438 c 0
 1446.00292969 751.33203125 1400.00292969 757.999023438 1346.00292969 761.999023438 c 0
 1292.00292969 765.999023438 1227.66992188 767.999023438 1153.00292969 767.999023438 c 2
 832.002929688 767.999023438 l 2
EndSplineSet
Validated: 524289
EndChar

StartChar: seven
Encoding: 55 55 26
Width: 1984
GlyphClass: 2
Flags: W
LayerCount: 2
Back
Fore
SplineSet
704 0 m 1
 448 0 l 1
 1632 1376 l 1
 128 1376 l 1
 128 1536 l 1
 1856 1536 l 1
 1856 1344 l 1
 704 0 l 1
EndSplineSet
Validated: 1
EndChar

StartChar: eight
Encoding: 56 56 27
Width: 1984
GlyphClass: 2
Flags: W
LayerCount: 2
Back
Fore
SplineSet
1121 1568 m 2
 1265 1568 1382.66992188 1558.99804688 1474.00292969 1540.99804688 c 0
 1565.3359375 1522.99804688 1636.8359375 1496.49804688 1688.50292969 1461.49804688 c 0
 1740.16992188 1426.49804688 1775.66992188 1383.16503906 1795.00292969 1331.49804688 c 0
 1814.3359375 1279.83105469 1824.00292969 1219.99804688 1824.00292969 1151.99804688 c 0
 1824.00292969 1113.99804688 1820.66992188 1078.16503906 1814.00292969 1044.49804688 c 0
 1807.3359375 1010.83105469 1795.50292969 979.998046875 1778.50292969 951.998046875 c 0
 1761.50292969 923.998046875 1738.66992188 898.498046875 1710.00292969 875.498046875 c 0
 1681.3359375 852.498046875 1644.66894531 832.665039062 1600.00195312 815.998046875 c 1
 1650.66894531 797.331054688 1692.66894531 774.998046875 1726.00195312 748.998046875 c 0
 1759.33496094 722.998046875 1785.50195312 693.665039062 1804.50195312 660.998046875 c 0
 1823.50195312 628.331054688 1836.83496094 592.831054688 1844.50195312 554.498046875 c 0
 1852.16894531 516.165039062 1856.00195312 475.33203125 1856.00195312 431.999023438 c 0
 1856.00195312 381.999023438 1852.00195312 335.83203125 1844.00195312 293.499023438 c 0
 1836.00195312 251.166015625 1822.00195312 212.833007812 1802.00195312 178.5 c 0
 1782.00195312 144.166992188 1754.83496094 113.833984375 1720.50195312 87.5009765625 c 0
 1686.16894531 61.16796875 1643.00195312 39.16796875 1591.00195312 21.5009765625 c 0
 1539.00195312 3.833984375 1476.83496094 -9.4990234375 1404.50195312 -18.4990234375 c 0
 1332.16894531 -27.4990234375 1248.00195312 -31.9990234375 1152.00195312 -31.9990234375 c 2
 831.001953125 -31.9990234375 l 2
 687.001953125 -31.9990234375 569.334960938 -21.83203125 478.001953125 -1.4990234375 c 0
 386.668945312 18.833984375 315.168945312 48.6669921875 263.501953125 88 c 0
 211.834960938 127.333007812 176.334960938 175.833007812 157.001953125 233.5 c 0
 137.668945312 291.166992188 128.001953125 357.333984375 128.001953125 432.000976562 c 0
 128.001953125 475.333984375 131.668945312 516.166992188 139.001953125 554.5 c 0
 146.334960938 592.833007812 159.66796875 628.333007812 179.000976562 661 c 0
 198.333984375 693.666992188 224.500976562 723 257.500976562 749 c 0
 290.500976562 775 332.66796875 797.333007812 384.000976562 816 c 1
 339.333984375 832.666992188 302.500976562 852.5 273.500976562 875.5 c 0
 244.500976562 898.5 221.66796875 924 205.000976562 952 c 0
 188.333984375 980 176.666992188 1010.83300781 170 1044.5 c 0
 163.333007812 1078.16699219 160 1114 160 1152 c 0
 160 1220 169.666992188 1279.83300781 189 1331.5 c 0
 208.333007812 1383.16699219 243.833007812 1426.5 295.5 1461.5 c 0
 347.166992188 1496.5 418.666992188 1523 510 1541 c 0
 601.333007812 1559 719 1568 863 1568 c 2
 1121 1568 l 2
1152.00292969 127.998046875 m 2
 1226.66992188 127.998046875 1291.16992188 130.165039062 1345.50292969 134.498046875 c 0
 1399.8359375 138.831054688 1445.8359375 145.831054688 1483.50292969 155.498046875 c 0
 1521.16992188 165.165039062 1551.83691406 177.665039062 1575.50390625 192.998046875 c 0
 1599.17089844 208.331054688 1617.50390625 227.331054688 1630.50390625 249.998046875 c 0
 1643.50390625 272.665039062 1652.33691406 298.998046875 1657.00390625 328.998046875 c 0
 1661.67089844 358.998046875 1664.00390625 393.331054688 1664.00390625 431.998046875 c 0
 1664.00390625 469.331054688 1661.83691406 502.831054688 1657.50390625 532.498046875 c 0
 1653.17089844 562.165039062 1644.50390625 588.165039062 1631.50390625 610.498046875 c 0
 1618.50390625 632.831054688 1600.17089844 651.998046875 1576.50390625 667.998046875 c 0
 1552.83691406 683.998046875 1522.00390625 696.998046875 1484.00390625 706.998046875 c 0
 1446.00390625 716.998046875 1399.83691406 724.331054688 1345.50390625 728.998046875 c 0
 1291.17089844 733.665039062 1226.67089844 735.998046875 1152.00390625 735.998046875 c 2
 831.00390625 735.998046875 l 2
 756.336914062 735.998046875 691.836914062 733.665039062 637.50390625 728.998046875 c 0
 583.170898438 724.331054688 537.170898438 716.998046875 499.50390625 706.998046875 c 0
 461.836914062 696.998046875 431.169921875 683.998046875 407.502929688 667.998046875 c 0
 383.8359375 651.998046875 365.502929688 632.831054688 352.502929688 610.498046875 c 0
 339.502929688 588.165039062 330.8359375 562.165039062 326.502929688 532.498046875 c 0
 322.169921875 502.831054688 320.002929688 469.331054688 320.002929688 431.998046875 c 0
 320.002929688 393.331054688 322.3359375 358.998046875 327.002929688 328.998046875 c 0
 331.669921875 298.998046875 340.502929688 272.665039062 353.502929688 249.998046875 c 0
 366.502929688 227.331054688 384.669921875 208.331054688 408.002929688 192.998046875 c 0
 431.3359375 177.665039062 462.002929688 165.165039062 500.002929688 155.498046875 c 0
 538.002929688 145.831054688 584.002929688 138.831054688 638.002929688 134.498046875 c 0
 692.002929688 130.165039062 756.3359375 127.998046875 831.002929688 127.998046875 c 2
 1152.00292969 127.998046875 l 2
1152.00292969 895.998046875 m 2
 1256.66992188 895.998046875 1340.50390625 899.831054688 1403.50390625 907.498046875 c 0
 1466.50390625 915.165039062 1514.83691406 928.665039062 1548.50390625 947.998046875 c 0
 1582.17089844 967.331054688 1604.50390625 993.498046875 1615.50390625 1026.49804688 c 0
 1626.50390625 1059.49804688 1632.00390625 1101.33105469 1632.00390625 1151.99804688 c 0
 1632.00390625 1185.33105469 1629.83691406 1214.83105469 1625.50390625 1240.49804688 c 0
 1621.17089844 1266.16503906 1612.50390625 1288.49804688 1599.50390625 1307.49804688 c 0
 1586.50390625 1326.49804688 1568.17089844 1342.33105469 1544.50390625 1354.99804688 c 0
 1520.83691406 1367.66503906 1490.00390625 1377.99804688 1452.00390625 1385.99804688 c 0
 1414.00390625 1393.99804688 1367.83691406 1399.66503906 1313.50390625 1402.99804688 c 0
 1259.17089844 1406.33105469 1194.67089844 1407.99804688 1120.00390625 1407.99804688 c 2
 863.00390625 1407.99804688 l 2
 788.336914062 1407.99804688 723.836914062 1406.33105469 669.50390625 1402.99804688 c 0
 615.170898438 1399.66503906 569.170898438 1393.99804688 531.50390625 1385.99804688 c 0
 493.836914062 1377.99804688 463.169921875 1367.66503906 439.502929688 1354.99804688 c 0
 415.8359375 1342.33105469 397.502929688 1326.49804688 384.502929688 1307.49804688 c 0
 371.502929688 1288.49804688 362.8359375 1266.16503906 358.502929688 1240.49804688 c 0
 354.169921875 1214.83105469 352.002929688 1185.33105469 352.002929688 1151.99804688 c 0
 352.002929688 1117.33105469 354.3359375 1086.99804688 359.002929688 1060.99804688 c 0
 363.669921875 1034.99804688 372.502929688 1012.49804688 385.502929688 993.498046875 c 0
 398.502929688 974.498046875 416.669921875 958.665039062 440.002929688 945.998046875 c 0
 463.3359375 933.331054688 494.002929688 923.331054688 532.002929688 915.998046875 c 0
 570.002929688 908.665039062 616.002929688 903.498046875 670.002929688 900.498046875 c 0
 724.002929688 897.498046875 788.3359375 895.998046875 863.002929688 895.998046875 c 2
 1152.00292969 895.998046875 l 2
EndSplineSet
Validated: 524289
EndChar

StartChar: nine
Encoding: 57 57 28
Width: 1984
GlyphClass: 2
Flags: W
LayerCount: 2
Back
Fore
SplineSet
1024 128 m 0
 1127.33300781 128 1214.82910156 129.66796875 1286.49609375 133.000976562 c 0
 1358.16308594 136.333984375 1417.66308594 144.166992188 1464.99609375 156.5 c 0
 1512.32910156 168.833007812 1549.32910156 187.333007812 1575.99609375 212 c 0
 1602.66308594 236.666992188 1622.49609375 270.333984375 1635.49609375 313.000976562 c 0
 1648.49609375 355.66796875 1656.49609375 408.834960938 1659.49609375 472.501953125 c 0
 1662.49609375 536.168945312 1663.99609375 613.3359375 1663.99609375 704.002929688 c 1
 1611.99609375 672.669921875 1544.66308594 648.836914062 1461.99609375 632.50390625 c 0
 1379.32910156 616.170898438 1275.99609375 608.00390625 1151.99609375 608.00390625 c 2
 830.99609375 608.00390625 l 2
 686.99609375 608.00390625 569.329101562 618.00390625 477.99609375 638.00390625 c 0
 386.663085938 658.00390625 315.163085938 688.00390625 263.49609375 728.00390625 c 0
 211.829101562 768.00390625 176.329101562 818.00390625 156.99609375 878.00390625 c 0
 137.663085938 938.00390625 127.99609375 1008.00390625 127.99609375 1088.00390625 c 0
 127.99609375 1168.00390625 137.663085938 1238.00390625 156.99609375 1298.00390625 c 0
 176.329101562 1358.00390625 211.829101562 1408.00390625 263.49609375 1448.00390625 c 0
 315.163085938 1488.00390625 386.663085938 1518.00390625 477.99609375 1538.00390625 c 0
 569.329101562 1558.00390625 686.99609375 1568.00390625 830.99609375 1568.00390625 c 2
 1151.99609375 1568.00390625 l 2
 1269.32910156 1568.00390625 1368.16210938 1560.83691406 1448.49511719 1546.50390625 c 0
 1528.828125 1532.17089844 1595.16113281 1510.50390625 1647.49414062 1481.50390625 c 0
 1699.82714844 1452.50390625 1739.99414062 1416.00390625 1767.99414062 1372.00390625 c 0
 1795.99414062 1328.00390625 1816.49414062 1276.33691406 1829.49414062 1217.00390625 c 0
 1842.49414062 1157.67089844 1850.16113281 1090.67089844 1852.49414062 1016.00390625 c 0
 1854.82714844 941.336914062 1855.99414062 858.669921875 1855.99414062 768.002929688 c 0
 1855.99414062 672.002929688 1854.66113281 585.502929688 1851.99414062 508.502929688 c 0
 1849.32714844 431.502929688 1840.32714844 363.502929688 1824.99414062 304.502929688 c 0
 1809.66113281 245.502929688 1785.328125 194.669921875 1751.99511719 152.002929688 c 0
 1718.66210938 109.3359375 1671.16210938 74.5029296875 1609.49511719 47.5029296875 c 0
 1547.828125 20.5029296875 1469.49511719 0.5029296875 1374.49511719 -12.4970703125 c 0
 1279.49511719 -25.4970703125 1162.66210938 -31.9970703125 1023.99511719 -31.9970703125 c 0
 906.662109375 -31.9970703125 804.662109375 -27.6640625 717.995117188 -18.9970703125 c 0
 631.328125 -10.330078125 557.161132812 2.669921875 495.494140625 20.0029296875 c 0
 433.827148438 37.3359375 383.327148438 58.6689453125 343.994140625 84.001953125 c 0
 304.661132812 109.334960938 273.828125 138.66796875 251.495117188 172.000976562 c 0
 229.162109375 205.333984375 213.829101562 242.333984375 205.49609375 283.000976562 c 0
 197.163085938 323.66796875 192.99609375 368.000976562 192.99609375 416.000976562 c 1
 351.99609375 416.000976562 l 1
 351.99609375 389.333984375 353.99609375 363.666992188 357.99609375 339 c 0
 361.99609375 314.333007812 370.829101562 291.333007812 384.49609375 270 c 0
 398.163085938 248.666992188 419.330078125 229.333984375 447.997070312 212.000976562 c 0
 476.6640625 194.66796875 515.831054688 179.66796875 565.498046875 167.000976562 c 0
 615.165039062 154.333984375 677.33203125 144.666992188 751.999023438 138 c 0
 826.666015625 131.333007812 917.333007812 128 1024 128 c 0
1151.99609375 768.000976562 m 2
 1256.66308594 768.000976562 1342.33105469 770.333984375 1408.99804688 775.000976562 c 0
 1475.66503906 779.66796875 1527.83203125 790.66796875 1565.49902344 808.000976562 c 0
 1603.16601562 825.333984375 1628.99902344 851.000976562 1642.99902344 885.000976562 c 0
 1656.99902344 919.000976562 1663.99902344 965.333984375 1663.99902344 1024.00097656 c 0
 1663.99902344 1104.00097656 1656.99902344 1169.00097656 1642.99902344 1219.00097656 c 0
 1628.99902344 1269.00097656 1603.16601562 1308.00097656 1565.49902344 1336.00097656 c 0
 1527.83203125 1364.00097656 1475.66503906 1383.00097656 1408.99804688 1393.00097656 c 0
 1342.33105469 1403.00097656 1256.6640625 1408.00097656 1151.99707031 1408.00097656 c 2
 830.997070312 1408.00097656 l 2
 756.330078125 1408.00097656 691.830078125 1406.00097656 637.497070312 1402.00097656 c 0
 583.1640625 1398.00097656 537.1640625 1391.33398438 499.497070312 1382.00097656 c 0
 461.830078125 1372.66796875 431.163085938 1360.00097656 407.49609375 1344.00097656 c 0
 383.829101562 1328.00097656 365.49609375 1308.16796875 352.49609375 1284.50097656 c 0
 339.49609375 1260.83398438 330.829101562 1232.83398438 326.49609375 1200.50097656 c 0
 322.163085938 1168.16796875 319.99609375 1130.66796875 319.99609375 1088.00097656 c 0
 319.99609375 1045.33398438 322.329101562 1007.83398438 326.99609375 975.500976562 c 0
 331.663085938 943.16796875 340.49609375 915.16796875 353.49609375 891.500976562 c 0
 366.49609375 867.833984375 384.663085938 848.000976562 407.99609375 832.000976562 c 0
 431.329101562 816.000976562 461.99609375 803.333984375 499.99609375 794.000976562 c 0
 537.99609375 784.66796875 583.99609375 778.000976562 637.99609375 774.000976562 c 0
 691.99609375 770.000976562 756.329101562 768.000976562 830.99609375 768.000976562 c 2
 1151.99609375 768.000976562 l 2
EndSplineSet
Validated: 524289
EndChar

StartChar: colon
Encoding: 58 58 29
Width: 448
GlyphClass: 2
Flags: W
LayerCount: 2
Back
Fore
SplineSet
320 768 m 1
 128 768 l 1
 128 960 l 1
 320 960 l 1
 320 768 l 1
320 192 m 1
 128 192 l 1
 128 384 l 1
 320 384 l 1
 320 192 l 1
EndSplineSet
Validated: 1
EndChar

StartChar: semicolon
Encoding: 59 59 30
Width: 448
GlyphClass: 2
Flags: W
LayerCount: 2
Back
Fore
SplineSet
128 512 m 1
 320 512 l 1
 192 128 l 1
 64 128 l 1
 128 512 l 1
320 768 m 1
 128 768 l 1
 128 960 l 1
 320 960 l 1
 320 768 l 1
EndSplineSet
Validated: 1
EndChar

StartChar: less
Encoding: 60 60 31
Width: 1152
GlyphClass: 2
Flags: W
LayerCount: 2
Back
Fore
SplineSet
1024 1472 m 1
 1024 1216 l 1
 272 832 l 1
 1024 448 l 1
 1024 192 l 1
 128 736 l 1
 128 928 l 1
 1024 1472 l 1
EndSplineSet
Validated: 1
EndChar

StartChar: equal
Encoding: 61 61 32
Width: 1472
GlyphClass: 2
Flags: W
LayerCount: 2
Back
Fore
SplineSet
128 1024 m 1
 1344 1024 l 1
 1344 864 l 1
 128 864 l 1
 128 1024 l 1
128 480 m 1
 1344 480 l 1
 1344 320 l 1
 128 320 l 1
 128 480 l 1
EndSplineSet
Validated: 1
EndChar

StartChar: greater
Encoding: 62 62 33
Width: 1152
GlyphClass: 2
Flags: W
LayerCount: 2
Back
Fore
SplineSet
1024 928 m 1
 1024 736 l 1
 128 192 l 1
 128 448 l 1
 880 832 l 1
 128 1216 l 1
 128 1472 l 1
 1024 928 l 1
EndSplineSet
Validated: 1
EndChar

StartChar: question
Encoding: 63 63 34
Width: 1856
GlyphClass: 2
Flags: W
LayerCount: 2
Back
Fore
SplineSet
704 321 m 1
 703.998046875 386.997070312 l 2
 703.998046875 426.997070312 704.831054688 467.497070312 706.498046875 508.497070312 c 0
 708.165039062 549.497070312 713.665039062 588.830078125 722.998046875 626.497070312 c 0
 732.331054688 664.1640625 747.331054688 699.331054688 767.998046875 731.998046875 c 0
 788.665039062 764.665039062 817.998046875 793.165039062 855.998046875 817.498046875 c 0
 893.998046875 841.831054688 942.165039062 860.998046875 1000.49804688 874.998046875 c 0
 1058.83105469 888.998046875 1130.6640625 895.998046875 1215.99707031 895.998046875 c 0
 1263.99707031 895.998046875 1307.6640625 898.665039062 1346.99707031 903.998046875 c 0
 1386.33007812 909.331054688 1419.83007812 920.831054688 1447.49707031 938.498046875 c 0
 1475.1640625 956.165039062 1496.6640625 981.83203125 1511.99707031 1015.49902344 c 0
 1527.33007812 1049.16601562 1534.99707031 1094.66601562 1534.99707031 1151.99902344 c 0
 1534.99707031 1214.66601562 1526.33007812 1263.33300781 1508.99707031 1298 c 0
 1491.6640625 1332.66699219 1463.1640625 1358.16699219 1423.49707031 1374.5 c 0
 1383.83007812 1390.83300781 1331.33007812 1400.5 1265.99707031 1403.5 c 0
 1200.6640625 1406.5 1119.99707031 1408 1023.99707031 1408 c 0
 906.6640625 1408 807.831054688 1406.5 727.498046875 1403.5 c 0
 647.165039062 1400.5 580.83203125 1395.16699219 528.499023438 1387.5 c 0
 476.166015625 1379.83300781 435.999023438 1369.33300781 407.999023438 1356 c 0
 379.999023438 1342.66699219 359.499023438 1325.33398438 346.499023438 1304.00097656 c 0
 333.499023438 1282.66796875 325.83203125 1257.16796875 323.499023438 1227.50097656 c 0
 321.166015625 1197.83398438 319.999023438 1162.66699219 319.999023438 1122 c 1
 127.999023438 1122 l 1
 127.999023438 1196.66699219 136.83203125 1259.33398438 154.499023438 1310.00097656 c 0
 172.166015625 1360.66796875 198.166015625 1402.50097656 232.499023438 1435.50097656 c 0
 266.83203125 1468.50097656 309.33203125 1494.00097656 359.999023438 1512.00097656 c 0
 410.666015625 1530.00097656 469.166015625 1543.16796875 535.499023438 1551.50097656 c 0
 601.83203125 1559.83398438 675.83203125 1564.66699219 757.499023438 1566 c 0
 839.166015625 1567.33300781 927.999023438 1568 1023.99902344 1568 c 0
 1098.66601562 1568 1167.99902344 1566.66699219 1231.99902344 1564 c 0
 1295.99902344 1561.33300781 1353.99902344 1555.33300781 1405.99902344 1546 c 0
 1457.99902344 1536.66699219 1503.99902344 1523 1543.99902344 1505 c 0
 1583.99902344 1487 1617.66601562 1462.66699219 1644.99902344 1432 c 0
 1672.33203125 1401.33300781 1692.99902344 1363.16601562 1706.99902344 1317.49902344 c 0
 1720.99902344 1271.83203125 1727.99902344 1216.99902344 1727.99902344 1152.99902344 c 0
 1727.99902344 1093.66601562 1719.66601562 1038.49902344 1702.99902344 987.499023438 c 0
 1686.33203125 936.499023438 1659.99902344 892.33203125 1623.99902344 854.999023438 c 0
 1587.99902344 817.666015625 1541.66601562 788.499023438 1484.99902344 767.499023438 c 0
 1428.33203125 746.499023438 1359.99902344 735.999023438 1279.99902344 735.999023438 c 0
 1215.99902344 735.999023438 1161.99902344 733.166015625 1117.99902344 727.499023438 c 0
 1073.99902344 721.83203125 1037.83203125 712.499023438 1009.49902344 699.499023438 c 0
 981.166015625 686.499023438 959.333007812 669.499023438 944 648.499023438 c 0
 928.666992188 627.499023438 917.5 601.666015625 910.5 570.999023438 c 0
 903.5 540.33203125 899.333007812 504.33203125 898 462.999023438 c 0
 896.666992188 421.666015625 896 374.333007812 896 321 c 1
 704 321 l 1
895.998046875 -0.0029296875 m 1
 703.998046875 -0.0029296875 l 1
 703.998046875 191.997070312 l 1
 895.998046875 191.997070312 l 1
 895.998046875 -0.0029296875 l 1
EndSplineSet
Validated: 524289
EndChar

StartChar: at
Encoding: 64 64 35
Width: 2240
GlyphClass: 2
Flags: W
LayerCount: 2
Back
Fore
SplineSet
1117 288 m 0
 1188.33300781 288 1248.66601562 290.499023438 1297.99902344 295.499023438 c 0
 1347.33203125 300.499023438 1387.16503906 312.499023438 1417.49804688 331.499023438 c 0
 1447.83105469 350.499023438 1469.83105469 378.999023438 1483.49804688 416.999023438 c 0
 1497.16503906 454.999023438 1503.99804688 506.999023438 1503.99804688 572.999023438 c 0
 1503.99804688 640.33203125 1497.16503906 693.33203125 1483.49804688 731.999023438 c 0
 1469.83105469 770.666015625 1447.83105469 799.833007812 1417.49804688 819.5 c 0
 1387.16503906 839.166992188 1347.33203125 851.5 1297.99902344 856.5 c 0
 1248.66601562 861.5 1188.33300781 864 1117 864 c 0
 1053.66699219 864 999.333984375 862.833007812 954.000976562 860.5 c 0
 908.66796875 858.166992188 870.834960938 853.5 840.501953125 846.5 c 0
 810.168945312 839.5 786.001953125 829.333007812 768.001953125 816 c 0
 750.001953125 802.666992188 736.168945312 785.333984375 726.501953125 764.000976562 c 0
 716.834960938 742.66796875 710.66796875 716.66796875 708.000976562 686.000976562 c 0
 705.333984375 655.333984375 704.000976562 618.666992188 704.000976562 576 c 0
 704.000976562 533.333007812 705.333984375 496.666015625 708.000976562 465.999023438 c 0
 710.66796875 435.33203125 716.834960938 409.33203125 726.501953125 387.999023438 c 0
 736.168945312 366.666015625 750.001953125 349.333007812 768.001953125 336 c 0
 786.001953125 322.666992188 810.168945312 312.5 840.501953125 305.5 c 0
 870.834960938 298.5 908.66796875 293.833007812 954.000976562 291.5 c 0
 999.333984375 289.166992188 1053.66699219 288 1117 288 c 0
2112 479.999023438 m 0
 2112 415.999023438 2107.99902344 361.669921875 2099.99902344 317.002929688 c 0
 2091.99902344 272.3359375 2076.33203125 236.002929688 2052.99902344 208.002929688 c 0
 2029.66601562 180.002929688 1997.16601562 159.669921875 1955.49902344 147.002929688 c 0
 1913.83203125 134.3359375 1858.99902344 128.002929688 1790.99902344 128.002929688 c 0
 1742.33203125 128.002929688 1703.33203125 134.502929688 1673.99902344 147.502929688 c 0
 1644.66601562 160.502929688 1621.99902344 176.502929688 1605.99902344 195.502929688 c 0
 1589.99902344 214.502929688 1579.49902344 235.169921875 1574.49902344 257.502929688 c 0
 1569.49902344 279.8359375 1566.99902344 300.668945312 1566.99902344 320.001953125 c 1
 1550.33203125 284.001953125 1523.33203125 252.001953125 1485.99902344 224.001953125 c 0
 1469.99902344 212.001953125 1450.83203125 200.168945312 1428.49902344 188.501953125 c 0
 1406.16601562 176.834960938 1379.83300781 166.501953125 1349.5 157.501953125 c 0
 1319.16699219 148.501953125 1284.83398438 141.334960938 1246.50097656 136.001953125 c 0
 1208.16796875 130.668945312 1165.00097656 128.001953125 1117.00097656 128.001953125 c 0
 1032.33398438 128.001953125 958.500976562 131.168945312 895.500976562 137.501953125 c 0
 832.500976562 143.834960938 778.66796875 154.001953125 734.000976562 168.001953125 c 0
 689.333984375 182.001953125 652.666992188 200.334960938 624 223.001953125 c 0
 595.333007812 245.668945312 572.666015625 273.668945312 555.999023438 307.001953125 c 0
 539.33203125 340.334960938 527.83203125 379.16796875 521.499023438 423.500976562 c 0
 515.166015625 467.833984375 511.999023438 518.666992188 511.999023438 576 c 0
 511.999023438 633.333007812 515.166015625 684.166015625 521.499023438 728.499023438 c 0
 527.83203125 772.83203125 539.33203125 811.665039062 555.999023438 844.998046875 c 0
 572.666015625 878.331054688 595.333007812 906.331054688 624 928.998046875 c 0
 652.666992188 951.665039062 689.333984375 969.998046875 734.000976562 983.998046875 c 0
 778.66796875 997.998046875 832.500976562 1008.16503906 895.500976562 1014.49804688 c 0
 958.500976562 1020.83105469 1032.33398438 1023.99804688 1117.00097656 1023.99804688 c 0
 1158.33398438 1023.99804688 1195.50097656 1021.66503906 1228.50097656 1016.99804688 c 0
 1261.50097656 1012.33105469 1291.00097656 1006.33105469 1317.00097656 998.998046875 c 0
 1343.00097656 991.665039062 1365.66796875 983.165039062 1385.00097656 973.498046875 c 0
 1404.33398438 963.831054688 1421.00097656 953.998046875 1435.00097656 943.998046875 c 0
 1467.00097656 920.665039062 1490.00097656 893.998046875 1504.00097656 863.998046875 c 1
 1504.00097656 991.998046875 l 1
 1696.00097656 991.998046875 l 1
 1696.00097656 479.998046875 l 2
 1696.00097656 438.665039062 1697.00097656 405.498046875 1699.00097656 380.498046875 c 0
 1701.00097656 355.498046875 1705.16796875 336.165039062 1711.50097656 322.498046875 c 0
 1717.83398438 308.831054688 1727.33398438 299.6640625 1740.00097656 294.997070312 c 0
 1752.66796875 290.330078125 1769.66796875 287.997070312 1791.00097656 287.997070312 c 0
 1819.00097656 287.997070312 1841.50097656 290.330078125 1858.50097656 294.997070312 c 0
 1875.50097656 299.6640625 1888.50097656 308.831054688 1897.50097656 322.498046875 c 0
 1906.50097656 336.165039062 1912.50097656 355.498046875 1915.50097656 380.498046875 c 0
 1918.50097656 405.498046875 1920.00097656 438.665039062 1920.00097656 479.998046875 c 2
 1920.00097656 767.998046875 l 2
 1920.00097656 831.998046875 1915.83398438 887.498046875 1907.50097656 934.498046875 c 0
 1899.16796875 981.498046875 1884.33496094 1021.66503906 1863.00195312 1054.99804688 c 0
 1841.66894531 1088.33105469 1812.50195312 1115.33105469 1775.50195312 1135.99804688 c 0
 1738.50195312 1156.66503906 1691.66894531 1172.99804688 1635.00195312 1184.99804688 c 0
 1578.33496094 1196.99804688 1510.33496094 1205.16503906 1431.00195312 1209.49804688 c 0
 1351.66894531 1213.83105469 1258.66894531 1215.99804688 1152.00195312 1215.99804688 c 0
 1034.66894531 1215.99804688 932.668945312 1214.33105469 846.001953125 1210.99804688 c 0
 759.334960938 1207.66503906 685.16796875 1199.16503906 623.500976562 1185.49804688 c 0
 561.833984375 1171.83105469 511.333984375 1151.33105469 472.000976562 1123.99804688 c 0
 432.66796875 1096.66503906 401.834960938 1059.33203125 379.501953125 1011.99902344 c 0
 357.168945312 964.666015625 341.8359375 905.499023438 333.502929688 834.499023438 c 0
 325.169921875 763.499023438 321.002929688 677.33203125 321.002929688 575.999023438 c 0
 321.002929688 479.999023438 325.3359375 397.499023438 334.002929688 328.499023438 c 0
 342.669921875 259.499023438 358.169921875 201.33203125 380.502929688 153.999023438 c 0
 402.8359375 106.666015625 433.668945312 68.666015625 473.001953125 39.9990234375 c 0
 512.334960938 11.33203125 562.66796875 -10.66796875 624.000976562 -26.0009765625 c 0
 685.333984375 -41.333984375 759.333984375 -51.5009765625 846.000976562 -56.5009765625 c 0
 932.66796875 -61.5009765625 1247.66796875 -64.0009765625 1791.00097656 -64.0009765625 c 1
 1791.00097656 -224.000976562 l 1
 1152.00097656 -224.000976562 l 2
 1002.66796875 -224.000976562 873.66796875 -216.833984375 765.000976562 -202.500976562 c 0
 656.333984375 -188.16796875 564.166992188 -166.500976562 488.5 -137.500976562 c 0
 412.833007812 -108.500976562 351.333007812 -72.0009765625 304 -28.0009765625 c 0
 256.666992188 15.9990234375 220 67.666015625 194 126.999023438 c 0
 168 186.33203125 150.5 253.33203125 141.5 327.999023438 c 0
 132.5 402.666015625 128 485.333007812 128 576 c 0
 128 682.666992188 132.5 776.5 141.5 857.5 c 0
 150.5 938.5 168 1008.66699219 194 1068 c 0
 220 1127.33300781 256.666992188 1176.66601562 304 1215.99902344 c 0
 351.333007812 1255.33203125 412.833007812 1286.83203125 488.5 1310.49902344 c 0
 564.166992188 1334.16601562 656.333984375 1350.99902344 765.000976562 1360.99902344 c 0
 873.66796875 1370.99902344 1002.66796875 1375.99902344 1152.00097656 1375.99902344 c 0
 1280.00097656 1375.99902344 1392.66796875 1371.33203125 1490.00097656 1361.99902344 c 0
 1587.33398438 1352.66601562 1671.50097656 1337.99902344 1742.50097656 1317.99902344 c 0
 1813.50097656 1297.99902344 1872.66796875 1271.99902344 1920.00097656 1239.99902344 c 0
 1967.33398438 1207.99902344 2005.16699219 1169.49902344 2033.5 1124.49902344 c 0
 2061.83300781 1079.49902344 2088 864.666015625 2112 479.999023438 c 0
EndSplineSet
Validated: 524289
EndChar

StartChar: A
Encoding: 65 65 36
Width: 2176
GlyphClass: 2
Flags: W
LayerCount: 2
Back
Fore
SplineSet
1696 352 m 1
 480 352 l 1
 288 0 l 1
 64 0 l 1
 960 1536 l 1
 1216 1536 l 1
 2112 0 l 1
 1888 0 l 1
 1696 352 l 1
1600 512 m 1
 1088 1408 l 1
 576 512 l 1
 1600 512 l 1
EndSplineSet
Validated: 1
EndChar

StartChar: B
Encoding: 66 66 37
Width: 2112
GlyphClass: 2
Flags: W
LayerCount: 2
Back
Fore
SplineSet
192 0 m 1
 191.999023438 1535.99902344 l 1
 1472.99902344 1535.99902344 l 2
 1568.99902344 1535.99902344 1646.33203125 1528.16601562 1704.99902344 1512.49902344 c 0
 1763.66601562 1496.83203125 1808.83300781 1473.83203125 1840.5 1443.49902344 c 0
 1872.16699219 1413.16601562 1893.33398438 1375.33300781 1904.00097656 1330 c 0
 1914.66796875 1284.66699219 1920.00097656 1232.66699219 1920.00097656 1174 c 0
 1920.00097656 1131.33300781 1916.33398438 1093.66601562 1909.00097656 1060.99902344 c 0
 1901.66796875 1028.33203125 1892.00097656 999.999023438 1880.00097656 975.999023438 c 0
 1868.00097656 951.999023438 1854.33398438 931.83203125 1839.00097656 915.499023438 c 0
 1823.66796875 899.166015625 1808.00097656 885.666015625 1792.00097656 874.999023438 c 0
 1754.66796875 849.666015625 1712.00097656 835.333007812 1664.00097656 832 c 1
 1724.00097656 828.666992188 1777.33398438 814 1824.00097656 788 c 0
 1844.00097656 776.666992188 1863.50097656 762.5 1882.50097656 745.5 c 0
 1901.50097656 728.5 1918.50097656 707.5 1933.50097656 682.5 c 0
 1948.50097656 657.5 1960.66796875 628.166992188 1970.00097656 594.5 c 0
 1979.33398438 560.833007812 1984.00097656 522 1984.00097656 478 c 0
 1984.00097656 424.666992188 1981.50097656 375.833984375 1976.50097656 331.500976562 c 0
 1971.50097656 287.16796875 1961.33398438 247.334960938 1946.00097656 212.001953125 c 0
 1930.66796875 176.668945312 1908.66796875 145.668945312 1880.00097656 119.001953125 c 0
 1851.33398438 92.3349609375 1813.16699219 70.16796875 1765.5 52.5009765625 c 0
 1717.83300781 34.833984375 1659.5 21.6669921875 1590.5 13 c 0
 1521.5 4.3330078125 1439 0 1343 0 c 2
 192 0 l 1
1278.99902344 159.999023438 m 2
 1353.66601562 159.999023438 1418.33300781 161.165039062 1473 163.498046875 c 0
 1527.66699219 165.831054688 1574 170.831054688 1612 178.498046875 c 0
 1650 186.165039062 1680.66699219 197.165039062 1704 211.498046875 c 0
 1727.33300781 225.831054688 1745.5 244.831054688 1758.5 268.498046875 c 0
 1771.5 292.165039062 1780.33300781 320.998046875 1785 354.998046875 c 0
 1789.66699219 388.998046875 1792 429.998046875 1792 477.998046875 c 0
 1792 515.331054688 1789.66699219 547.831054688 1785 575.498046875 c 0
 1780.33300781 603.165039062 1771.5 626.498046875 1758.5 645.498046875 c 0
 1745.5 664.498046875 1727.33300781 679.831054688 1704 691.498046875 c 0
 1680.66699219 703.165039062 1650 712.33203125 1612 718.999023438 c 0
 1574 725.666015625 1527.66699219 730.166015625 1473 732.499023438 c 0
 1418.33300781 734.83203125 1353.66601562 735.999023438 1278.99902344 735.999023438 c 2
 383.999023438 735.999023438 l 1
 383.999023438 159.999023438 l 1
 1278.99902344 159.999023438 l 2
1278.99902344 895.998046875 m 2
 1344.33203125 895.998046875 1400.66601562 897.330078125 1447.99902344 899.997070312 c 0
 1495.33203125 902.6640625 1535.66503906 907.6640625 1568.99804688 914.997070312 c 0
 1602.33105469 922.330078125 1629.33105469 932.497070312 1649.99804688 945.497070312 c 0
 1670.66503906 958.497070312 1686.83203125 975.330078125 1698.49902344 995.997070312 c 0
 1710.16601562 1016.6640625 1717.99902344 1041.49707031 1721.99902344 1070.49707031 c 0
 1725.99902344 1099.49707031 1727.99902344 1133.99707031 1727.99902344 1173.99707031 c 0
 1727.99902344 1216.6640625 1723.33203125 1251.33105469 1713.99902344 1277.99804688 c 0
 1704.66601562 1304.66503906 1687.99902344 1325.16503906 1663.99902344 1339.49804688 c 0
 1639.99902344 1353.83105469 1607.49902344 1363.49804688 1566.49902344 1368.49804688 c 0
 1525.49902344 1373.49804688 1472.99902344 1375.99804688 1408.99902344 1375.99804688 c 2
 383.999023438 1375.99804688 l 1
 383.999023438 895.998046875 l 1
 1278.99902344 895.998046875 l 2
EndSplineSet
Validated: 524289
EndChar

StartChar: C
Encoding: 67 67 38
Width: 2111
GlyphClass: 2
Flags: W
LayerCount: 2
Back
Fore
SplineSet
1791 1056 m 1
 1791 1136 1782.33300781 1199.32910156 1765 1245.99609375 c 0
 1747.66699219 1292.66308594 1719 1327.99609375 1679 1351.99609375 c 0
 1639 1375.99609375 1586.5 1391.32910156 1521.5 1397.99609375 c 0
 1456.5 1404.66308594 1376 1407.99609375 1280 1407.99609375 c 2
 831 1407.99609375 l 2
 745.666992188 1407.99609375 673.833984375 1405.49609375 615.500976562 1400.49609375 c 0
 557.16796875 1395.49609375 509.000976562 1385.32910156 471.000976562 1369.99609375 c 0
 433.000976562 1354.66308594 403.66796875 1332.66308594 383.000976562 1303.99609375 c 0
 362.333984375 1275.32910156 347.333984375 1237.32910156 338.000976562 1189.99609375 c 0
 328.66796875 1142.66308594 323.334960938 1084.49609375 322.001953125 1015.49609375 c 0
 320.668945312 946.49609375 320.001953125 863.99609375 320.001953125 767.99609375 c 0
 320.001953125 671.99609375 320.834960938 589.49609375 322.501953125 520.49609375 c 0
 324.168945312 451.49609375 329.668945312 393.329101562 339.001953125 345.99609375 c 0
 348.334960938 298.663085938 363.16796875 260.663085938 383.500976562 231.99609375 c 0
 403.833984375 203.329101562 433.000976562 181.329101562 471.000976562 165.99609375 c 0
 509.000976562 150.663085938 557.16796875 140.49609375 615.500976562 135.49609375 c 0
 673.833984375 130.49609375 745.666992188 127.99609375 831 127.99609375 c 2
 1280 127.99609375 l 2
 1354.66699219 127.99609375 1419 129.99609375 1473 133.99609375 c 0
 1527 137.99609375 1573 145.329101562 1611 155.99609375 c 0
 1649 166.663085938 1679.66699219 181.330078125 1703 199.997070312 c 0
 1726.33300781 218.6640625 1744.5 242.1640625 1757.5 270.497070312 c 0
 1770.5 298.830078125 1779.33300781 332.830078125 1784 372.497070312 c 0
 1788.66699219 412.1640625 1791 458.6640625 1791 511.997070312 c 1
 1983 511.997070312 l 1
 1983 447.997070312 1979 390.1640625 1971 338.497070312 c 0
 1963 286.830078125 1948.83300781 240.830078125 1928.5 200.497070312 c 0
 1908.16699219 160.1640625 1881 125.331054688 1847 95.998046875 c 0
 1813 66.6650390625 1770 42.498046875 1718 23.498046875 c 0
 1666 4.498046875 1604 -9.501953125 1532 -18.501953125 c 0
 1460 -27.501953125 1376 -32.001953125 1280 -32.001953125 c 2
 831 -32.001953125 l 2
 713.666992188 -32.001953125 614.833984375 -24.8349609375 534.500976562 -10.501953125 c 0
 454.16796875 3.8310546875 388.000976562 25.498046875 336.000976562 54.498046875 c 0
 284.000976562 83.498046875 243.833984375 119.998046875 215.500976562 163.998046875 c 0
 187.16796875 207.998046875 166.500976562 259.665039062 153.500976562 318.998046875 c 0
 140.500976562 378.331054688 133.000976562 445.331054688 131.000976562 519.998046875 c 0
 129.000976562 594.665039062 128.000976562 677.33203125 128.000976562 767.999023438 c 0
 128.000976562 858.666015625 129.000976562 941.333007812 131.000976562 1016 c 0
 133.000976562 1090.66699219 140.500976562 1157.66699219 153.500976562 1217 c 0
 166.500976562 1276.33300781 187.16796875 1328 215.500976562 1372 c 0
 243.833984375 1416 284.000976562 1452.5 336.000976562 1481.5 c 0
 388.000976562 1510.5 454.16796875 1532.16699219 534.500976562 1546.5 c 0
 614.833984375 1560.83300781 713.666992188 1568 831 1568 c 2
 1280 1568 l 2
 1376 1568 1460 1563.5 1532 1554.5 c 0
 1604 1545.5 1666 1531.83300781 1718 1513.5 c 0
 1770 1495.16699219 1813 1472 1847 1444 c 0
 1881 1416 1908.16699219 1383 1928.5 1345 c 0
 1948.83300781 1307 1963 1264 1971 1216 c 0
 1979 1168 1983 1114.66699219 1983 1056 c 1
 1791 1056 l 1
EndSplineSet
Validated: 524289
EndChar

StartChar: D
Encoding: 68 68 39
Width: 2176
GlyphClass: 2
Flags: W
LayerCount: 2
Back
Fore
SplineSet
1343 160 m 2
 1427.66699219 160 1499.33203125 162.334960938 1557.99902344 167.001953125 c 0
 1616.66601562 171.668945312 1664.99902344 181.168945312 1702.99902344 195.501953125 c 0
 1740.99902344 209.834960938 1770.33203125 230.66796875 1790.99902344 258.000976562 c 0
 1811.66601562 285.333984375 1826.83300781 321.500976562 1836.5 366.500976562 c 0
 1846.16699219 411.500976562 1851.83398438 466.833984375 1853.50097656 532.500976562 c 0
 1855.16796875 598.16796875 1856.00097656 676.66796875 1856.00097656 768.000976562 c 0
 1856.00097656 859.333984375 1855.16796875 937.833984375 1853.50097656 1003.50097656 c 0
 1851.83398438 1069.16796875 1846.16699219 1124.50097656 1836.5 1169.50097656 c 0
 1826.83300781 1214.50097656 1811.66601562 1250.66796875 1790.99902344 1278.00097656 c 0
 1770.33203125 1305.33398438 1740.99902344 1326.16699219 1702.99902344 1340.5 c 0
 1664.99902344 1354.83300781 1616.83203125 1364.33300781 1558.49902344 1369 c 0
 1500.16601562 1373.66699219 1428.33300781 1376 1343 1376 c 2
 384 1376 l 1
 384 160 l 1
 1343 160 l 2
191.998046875 0.001953125 m 1
 191.998046875 1536.00195312 l 1
 1342.99804688 1536.00195312 l 2
 1460.33105469 1536.00195312 1559.1640625 1529.16894531 1639.49707031 1515.50195312 c 0
 1719.83007812 1501.83496094 1786.16308594 1481.00195312 1838.49609375 1453.00195312 c 0
 1890.82910156 1425.00195312 1931.16210938 1390.00195312 1959.49511719 1348.00195312 c 0
 1987.828125 1306.00195312 2008.49511719 1256.50195312 2021.49511719 1199.50195312 c 0
 2034.49511719 1142.50195312 2042.16210938 1078.16894531 2044.49511719 1006.50195312 c 0
 2046.828125 934.834960938 2047.99511719 855.334960938 2047.99511719 768.001953125 c 0
 2047.99511719 680.668945312 2046.828125 601.168945312 2044.49511719 529.501953125 c 0
 2042.16210938 457.834960938 2034.49511719 393.501953125 2021.49511719 336.501953125 c 0
 2008.49511719 279.501953125 1987.828125 230.001953125 1959.49511719 188.001953125 c 0
 1931.16210938 146.001953125 1890.82910156 111.001953125 1838.49609375 83.001953125 c 0
 1786.16308594 55.001953125 1719.83007812 34.1689453125 1639.49707031 20.501953125 c 0
 1559.1640625 6.8349609375 1460.33105469 0.001953125 1342.99804688 0.001953125 c 2
 191.998046875 0.001953125 l 1
EndSplineSet
Validated: 524289
EndChar

StartChar: E
Encoding: 69 69 40
Width: 1792
GlyphClass: 2
Flags: W
LayerCount: 2
Back
Fore
SplineSet
192 0 m 1
 192 1536 l 1
 1728 1536 l 1
 1728 1376 l 1
 384 1376 l 1
 384 864 l 1
 1664 864 l 1
 1664 704 l 1
 384 704 l 1
 384 160 l 1
 1728 160 l 1
 1728 0 l 1
 192 0 l 1
EndSplineSet
Validated: 1
EndChar

StartChar: F
Encoding: 70 70 41
Width: 1728
GlyphClass: 2
Flags: W
LayerCount: 2
Back
Fore
SplineSet
192 0 m 1
 192 1536 l 1
 1664 1536 l 1
 1664 1376 l 1
 384 1376 l 1
 384 864 l 1
 1600 864 l 1
 1600 704 l 1
 384 704 l 1
 384 0 l 1
 192 0 l 1
EndSplineSet
Validated: 1
EndChar

StartChar: G
Encoding: 71 71 42
Width: 2177
GlyphClass: 2
Flags: W
LayerCount: 2
Back
Fore
SplineSet
1857 1056 m 1
 1857 1136 1848.33398438 1199.32910156 1831.00097656 1245.99609375 c 0
 1813.66796875 1292.66308594 1785.00097656 1327.99609375 1745.00097656 1351.99609375 c 0
 1705.00097656 1375.99609375 1652.33398438 1391.32910156 1587.00097656 1397.99609375 c 0
 1521.66796875 1404.66308594 1441.00097656 1407.99609375 1345.00097656 1407.99609375 c 2
 831.000976562 1407.99609375 l 2
 745.66796875 1407.99609375 673.834960938 1405.49609375 615.501953125 1400.49609375 c 0
 557.168945312 1395.49609375 509.001953125 1385.32910156 471.001953125 1369.99609375 c 0
 433.001953125 1354.66308594 403.668945312 1332.66308594 383.001953125 1303.99609375 c 0
 362.334960938 1275.32910156 347.334960938 1237.32910156 338.001953125 1189.99609375 c 0
 328.668945312 1142.66308594 323.3359375 1084.49609375 322.002929688 1015.49609375 c 0
 320.669921875 946.49609375 320.002929688 863.99609375 320.002929688 767.99609375 c 0
 320.002929688 671.99609375 320.8359375 589.49609375 322.502929688 520.49609375 c 0
 324.169921875 451.49609375 329.669921875 393.329101562 339.002929688 345.99609375 c 0
 348.3359375 298.663085938 363.168945312 260.663085938 383.501953125 231.99609375 c 0
 403.834960938 203.329101562 433.001953125 181.329101562 471.001953125 165.99609375 c 0
 509.001953125 150.663085938 557.168945312 140.49609375 615.501953125 135.49609375 c 0
 673.834960938 130.49609375 745.66796875 127.99609375 831.000976562 127.99609375 c 2
 1346.00097656 127.99609375 l 2
 1420.66796875 127.99609375 1485.00097656 129.99609375 1539.00097656 133.99609375 c 0
 1593.00097656 137.99609375 1639.00097656 145.329101562 1677.00097656 155.99609375 c 0
 1715.00097656 166.663085938 1745.66796875 181.330078125 1769.00097656 199.997070312 c 0
 1792.33398438 218.6640625 1810.50097656 242.1640625 1823.50097656 270.497070312 c 0
 1836.50097656 298.830078125 1845.33398438 332.830078125 1850.00097656 372.497070312 c 0
 1854.66796875 412.1640625 1857.00097656 458.6640625 1857.00097656 511.997070312 c 2
 1857.00097656 607.997070312 l 1
 1087.00097656 607.997070312 l 1
 1087.00097656 767.997070312 l 1
 2049.00097656 767.997070312 l 1
 2049.00097656 511.997070312 l 2
 2049.00097656 447.997070312 2045.00097656 390.1640625 2037.00097656 338.497070312 c 0
 2029.00097656 286.830078125 2014.83398438 240.830078125 1994.50097656 200.497070312 c 0
 1974.16796875 160.1640625 1947.00097656 125.331054688 1913.00097656 95.998046875 c 0
 1879.00097656 66.6650390625 1836.00097656 42.498046875 1784.00097656 23.498046875 c 0
 1732.00097656 4.498046875 1670.00097656 -9.501953125 1598.00097656 -18.501953125 c 0
 1526.00097656 -27.501953125 1442.00097656 -32.001953125 1346.00097656 -32.001953125 c 2
 831.000976562 -32.001953125 l 2
 713.66796875 -32.001953125 614.834960938 -24.8349609375 534.501953125 -10.501953125 c 0
 454.168945312 3.8310546875 388.001953125 25.498046875 336.001953125 54.498046875 c 0
 284.001953125 83.498046875 243.834960938 119.998046875 215.501953125 163.998046875 c 0
 187.168945312 207.998046875 166.501953125 259.665039062 153.501953125 318.998046875 c 0
 140.501953125 378.331054688 133.001953125 445.331054688 131.001953125 519.998046875 c 0
 129.001953125 594.665039062 128.001953125 677.33203125 128.001953125 767.999023438 c 0
 128.001953125 858.666015625 129.001953125 941.333007812 131.001953125 1016 c 0
 133.001953125 1090.66699219 140.501953125 1157.66699219 153.501953125 1217 c 0
 166.501953125 1276.33300781 187.168945312 1328 215.501953125 1372 c 0
 243.834960938 1416 284.001953125 1452.5 336.001953125 1481.5 c 0
 388.001953125 1510.5 454.168945312 1532.16699219 534.501953125 1546.5 c 0
 614.834960938 1560.83300781 713.66796875 1568 831.000976562 1568 c 2
 1345.00097656 1568 l 2
 1441.00097656 1568 1525.00097656 1563.5 1597.00097656 1554.5 c 0
 1669.00097656 1545.5 1731.00097656 1531.83300781 1783.00097656 1513.5 c 0
 1835.00097656 1495.16699219 1878.16796875 1472 1912.50097656 1444 c 0
 1946.83398438 1416 1974.16699219 1383 1994.5 1345 c 0
 2014.83300781 1307 2029 1264 2037 1216 c 0
 2045 1168 2049 1114.66699219 2049 1056 c 1
 1857 1056 l 1
EndSplineSet
Validated: 524289
EndChar

StartChar: H
Encoding: 72 72 43
Width: 2176
GlyphClass: 2
Flags: W
LayerCount: 2
Back
Fore
SplineSet
1792 1536 m 1
 1984 1536 l 1
 1984 0 l 1
 1792 0 l 1
 1792 704 l 1
 384 704 l 1
 384 0 l 1
 192 0 l 1
 192 1536 l 1
 384 1536 l 1
 384 864 l 1
 1792 864 l 1
 1792 1536 l 1
EndSplineSet
Validated: 1
EndChar

StartChar: I
Encoding: 73 73 44
Width: 576
GlyphClass: 2
Flags: W
LayerCount: 2
Back
Fore
SplineSet
192 1536 m 1
 384 1536 l 1
 384 0 l 1
 192 0 l 1
 192 1536 l 1
EndSplineSet
Validated: 1
EndChar

StartChar: J
Encoding: 74 74 45
Width: 1715
GlyphClass: 2
Flags: W
LayerCount: 2
Back
Fore
SplineSet
576 0 m 2
 480 0 402.666992188 8.6669921875 344 26 c 0
 285.333007812 43.3330078125 240 72 208 112 c 0
 176 152 154.666992188 204.666992188 144 270 c 0
 133.333007812 335.333007812 128 416 128 512 c 2
 128 576 l 1
 320 576 l 1
 320 512 l 2
 320 432 324.333007812 368.5 333 321.5 c 0
 341.666992188 274.5 356 238.666992188 376 214 c 0
 396 189.333007812 422.333007812 173.5 455 166.5 c 0
 487.666992188 159.5 528 156 576 156 c 2
 1024 156 l 2
 1088 156 1140.66699219 161.833007812 1182 173.5 c 0
 1223.33300781 185.166992188 1256 203 1280 227 c 0
 1304 251 1320.66699219 281.333007812 1330 318 c 0
 1339.33300781 354.666992188 1344 398 1344 448 c 2
 1344 1536 l 1
 1536 1536 l 1
 1536 448 l 2
 1536 368 1527.33300781 299.666992188 1510 243 c 0
 1492.66699219 186.333007812 1464 140 1424 104 c 0
 1384 68 1331.33300781 41.6669921875 1266 25 c 0
 1200.66699219 8.3330078125 1120 0 1024 0 c 2
 576 0 l 2
EndSplineSet
Validated: 524289
EndChar

StartChar: K
Encoding: 75 75 46
Width: 2016
GlyphClass: 2
Flags: W
LayerCount: 2
Back
Fore
SplineSet
1632 1536 m 1
 1920 1536 l 1
 832 784 l 1
 1952 0 l 1
 1664 0 l 1
 640 704 l 1
 384 704 l 1
 384 0 l 1
 192 0 l 1
 192 1536 l 1
 384 1536 l 1
 384 864 l 1
 640 864 l 1
 1632 1536 l 1
EndSplineSet
Validated: 1
EndChar

StartChar: L
Encoding: 76 76 47
Width: 1664
GlyphClass: 2
Flags: W
LayerCount: 2
Back
Fore
SplineSet
192 0 m 1
 192 1536 l 1
 384 1536 l 1
 384 160 l 1
 1600 160 l 1
 1600 0 l 1
 192 0 l 1
EndSplineSet
Validated: 1
EndChar

StartChar: M
Encoding: 77 77 48
Width: 2800
GlyphClass: 2
Flags: W
LayerCount: 2
Back
Fore
SplineSet
384 1408 m 1
 384 0 l 1
 192 0 l 1
 192 1536 l 1
 512 1536 l 1
 1407 192 l 1
 2302 1536 l 1
 2608 1536 l 1
 2608 0 l 1
 2416 0 l 1
 2416 1387 l 1
 1504 0 l 1
 1310 0 l 1
 384 1408 l 1
EndSplineSet
Validated: 1
EndChar

StartChar: N
Encoding: 78 78 49
Width: 2321
GlyphClass: 2
Flags: W
LayerCount: 2
Back
Fore
SplineSet
384 0 m 1
 192 0 l 1
 192 1536 l 1
 529 1536 l 1
 1937 192 l 1
 1937 1536 l 1
 2129 1536 l 1
 2129 0 l 1
 1873 0 l 1
 384 1376 l 1
 384 0 l 1
EndSplineSet
Validated: 1
EndChar

StartChar: O
Encoding: 79 79 50
Width: 2240
GlyphClass: 2
Flags: W
LayerCount: 2
Back
Fore
SplineSet
1409 1568 m 2
 1526.33300781 1568 1625.16601562 1560.83300781 1705.49902344 1546.5 c 0
 1785.83203125 1532.16699219 1851.99902344 1510.5 1903.99902344 1481.5 c 0
 1955.99902344 1452.5 1995.99902344 1416 2023.99902344 1372 c 0
 2051.99902344 1328 2072.49902344 1276.33300781 2085.49902344 1217 c 0
 2098.49902344 1157.66699219 2106.16601562 1090.66699219 2108.49902344 1016 c 0
 2110.83203125 941.333007812 2111.99902344 858.666015625 2111.99902344 767.999023438 c 0
 2111.99902344 677.33203125 2110.83203125 594.665039062 2108.49902344 519.998046875 c 0
 2106.16601562 445.331054688 2098.49902344 378.331054688 2085.49902344 318.998046875 c 0
 2072.49902344 259.665039062 2051.99902344 207.998046875 2023.99902344 163.998046875 c 0
 1995.99902344 119.998046875 1955.99902344 83.498046875 1903.99902344 54.498046875 c 0
 1851.99902344 25.498046875 1785.83203125 3.8310546875 1705.49902344 -10.501953125 c 0
 1625.16601562 -24.8349609375 1526.33300781 -32.001953125 1409 -32.001953125 c 2
 831 -32.001953125 l 2
 713.666992188 -32.001953125 614.833984375 -24.8349609375 534.500976562 -10.501953125 c 0
 454.16796875 3.8310546875 388.000976562 25.498046875 336.000976562 54.498046875 c 0
 284.000976562 83.498046875 243.833984375 119.998046875 215.500976562 163.998046875 c 0
 187.16796875 207.998046875 166.500976562 259.665039062 153.500976562 318.998046875 c 0
 140.500976562 378.331054688 133.000976562 445.331054688 131.000976562 519.998046875 c 0
 129.000976562 594.665039062 128.000976562 677.33203125 128.000976562 767.999023438 c 0
 128.000976562 858.666015625 129.000976562 941.333007812 131.000976562 1016 c 0
 133.000976562 1090.66699219 140.500976562 1157.66699219 153.500976562 1217 c 0
 166.500976562 1276.33300781 187.16796875 1328 215.500976562 1372 c 0
 243.833984375 1416 284.000976562 1452.5 336.000976562 1481.5 c 0
 388.000976562 1510.5 454.16796875 1532.16699219 534.500976562 1546.5 c 0
 614.833984375 1560.83300781 713.666992188 1568 831 1568 c 2
 1409 1568 l 2
1409 128 m 2
 1493.66699219 128 1565.16699219 130.5 1623.5 135.5 c 0
 1681.83300781 140.5 1730 150.666992188 1768 166 c 0
 1806 181.333007812 1835.33300781 203.333007812 1856 232 c 0
 1876.66699219 260.666992188 1891.66699219 298.666992188 1901 346 c 0
 1910.33300781 393.333007812 1915.83300781 451.5 1917.5 520.5 c 0
 1919.16699219 589.5 1920 672 1920 768 c 0
 1920 864 1919.16699219 946.5 1917.5 1015.5 c 0
 1915.83300781 1084.5 1910.33300781 1142.66699219 1901 1190 c 0
 1891.66699219 1237.33300781 1876.66699219 1275.33300781 1856 1304 c 0
 1835.33300781 1332.66699219 1806.16601562 1354.66699219 1768.49902344 1370 c 0
 1730.83203125 1385.33300781 1682.83203125 1395.5 1624.49902344 1400.5 c 0
 1566.16601562 1405.5 1494.33300781 1408 1409 1408 c 2
 831 1408 l 2
 745.666992188 1408 673.833984375 1405.5 615.500976562 1400.5 c 0
 557.16796875 1395.5 509.000976562 1385.33300781 471.000976562 1370 c 0
 433.000976562 1354.66699219 403.66796875 1332.66699219 383.000976562 1304 c 0
 362.333984375 1275.33300781 347.333984375 1237.33300781 338.000976562 1190 c 0
 328.66796875 1142.66699219 323.334960938 1084.5 322.001953125 1015.5 c 0
 320.668945312 946.5 320.001953125 864 320.001953125 768 c 0
 320.001953125 672 320.834960938 589.5 322.501953125 520.5 c 0
 324.168945312 451.5 329.668945312 393.333007812 339.001953125 346 c 0
 348.334960938 298.666992188 363.16796875 260.666992188 383.500976562 232 c 0
 403.833984375 203.333007812 433.000976562 181.333007812 471.000976562 166 c 0
 509.000976562 150.666992188 557.16796875 140.5 615.500976562 135.5 c 0
 673.833984375 130.5 745.666992188 128 831 128 c 2
 1409 128 l 2
EndSplineSet
Validated: 524289
EndChar

StartChar: P
Encoding: 80 80 51
Width: 1984
GlyphClass: 2
Flags: W
LayerCount: 2
Back
Fore
SplineSet
192 1536 m 1
 1345.99511719 1536 l 2
 1441.328125 1536 1521.828125 1531.83300781 1587.49511719 1523.5 c 0
 1653.16210938 1515.16699219 1707.32910156 1502.66699219 1749.99609375 1486 c 0
 1792.66308594 1469.33300781 1825.49609375 1448.66601562 1848.49609375 1423.99902344 c 0
 1871.49609375 1399.33203125 1888.32910156 1370.33203125 1898.99609375 1336.99902344 c 0
 1909.66308594 1303.66601562 1915.83007812 1266.33300781 1917.49707031 1225 c 0
 1919.1640625 1183.66699219 1919.99707031 1138 1919.99707031 1088 c 0
 1919.99707031 1036 1918.83007812 988 1916.49707031 944 c 0
 1914.1640625 900 1906.49707031 860.166992188 1893.49707031 824.5 c 0
 1880.49707031 788.833007812 1859.83007812 757.5 1831.49707031 730.5 c 0
 1803.1640625 703.5 1762.83105469 681 1710.49804688 663 c 0
 1658.16503906 645 1591.83203125 631.333007812 1511.49902344 622 c 0
 1431.16601562 612.666992188 1332.33300781 608 1215 608 c 2
 384 608 l 1
 384 0 l 1
 192 0 l 1
 192 1536 l 1
383.995117188 768 m 1
 1214.99511719 768.000976562 l 2
 1300.328125 768.000976562 1372.16113281 769.500976562 1430.49414062 772.500976562 c 0
 1488.82714844 775.500976562 1536.99414062 781.000976562 1574.99414062 789.000976562 c 0
 1612.99414062 797.000976562 1642.32714844 808.333984375 1662.99414062 823.000976562 c 0
 1683.66113281 837.66796875 1698.828125 857.000976562 1708.49511719 881.000976562 c 0
 1718.16210938 905.000976562 1723.82910156 933.833984375 1725.49609375 967.500976562 c 0
 1727.16308594 1001.16796875 1727.99609375 1041.33496094 1727.99609375 1088.00195312 c 0
 1727.99609375 1131.33496094 1727.16308594 1168.66796875 1725.49609375 1200.00097656 c 0
 1723.82910156 1231.33398438 1718.16210938 1257.66699219 1708.49511719 1279 c 0
 1698.828125 1300.33300781 1683.66113281 1317.33300781 1662.99414062 1330 c 0
 1642.32714844 1342.66699219 1612.99414062 1352.5 1574.99414062 1359.5 c 0
 1536.99414062 1366.5 1488.82714844 1371 1430.49414062 1373 c 0
 1372.16113281 1375 1300.328125 1376 1214.99511719 1376 c 2
 383.995117188 1376 l 1
 383.995117188 768 l 1
EndSplineSet
Validated: 524289
EndChar

StartChar: Q
Encoding: 81 81 52
Width: 2352
GlyphClass: 2
Flags: W
LayerCount: 2
Back
Fore
SplineSet
832 1568 m 2
 714.666992188 1568 615.834960938 1560.83300781 535.501953125 1546.5 c 0
 455.168945312 1532.16699219 389.001953125 1510.5 337.001953125 1481.5 c 0
 285.001953125 1452.5 244.834960938 1416 216.501953125 1372 c 0
 188.168945312 1328 167.501953125 1276.33300781 154.501953125 1217 c 0
 141.501953125 1157.66699219 134.001953125 1090.66699219 132.001953125 1016 c 0
 130.001953125 941.333007812 129.001953125 858.666015625 129.001953125 767.999023438 c 0
 129.001953125 677.33203125 130.001953125 594.665039062 132.001953125 519.998046875 c 0
 134.001953125 445.331054688 141.501953125 378.331054688 154.501953125 318.998046875 c 0
 167.501953125 259.665039062 188.168945312 207.998046875 216.501953125 163.998046875 c 0
 244.834960938 119.998046875 285.001953125 83.498046875 337.001953125 54.498046875 c 0
 389.001953125 25.498046875 455.168945312 3.8310546875 535.501953125 -10.501953125 c 0
 615.834960938 -24.8349609375 714.66796875 -32.001953125 832.000976562 -32.001953125 c 2
 1410.00097656 -32.001953125 l 2
 1527.33398438 -32.001953125 1626.16699219 -24.8349609375 1706.5 -10.501953125 c 0
 1786.83300781 3.8310546875 1853 25.498046875 1905 54.498046875 c 0
 1957 83.498046875 1997 119.998046875 2025 163.998046875 c 0
 2026.33300781 165.998046875 2027.33300781 167.998046875 2028 169.998046875 c 2
 2144 95.998046875 l 1
 2224 223.998046875 l 1
 2085 312.998046875 l 2
 2085.66699219 314.998046875 2086 316.998046875 2086 318.998046875 c 0
 2099.33300781 378.331054688 2107.16601562 445.331054688 2109.49902344 519.998046875 c 0
 2111.83203125 594.665039062 2112.99902344 677.33203125 2112.99902344 767.999023438 c 0
 2112.99902344 858.666015625 2111.83203125 941.333007812 2109.49902344 1016 c 0
 2107.16601562 1090.66699219 2099.49902344 1157.66699219 2086.49902344 1217 c 0
 2073.49902344 1276.33300781 2052.99902344 1328 2024.99902344 1372 c 0
 1996.99902344 1416 1956.99902344 1452.5 1904.99902344 1481.5 c 0
 1852.99902344 1510.5 1786.83203125 1532.16699219 1706.49902344 1546.5 c 0
 1626.16601562 1560.83300781 1527.33300781 1568 1410 1568 c 2
 832 1568 l 2
832.000976562 128 m 2
 746.66796875 128 674.8359375 130.5 616.502929688 135.5 c 0
 558.169921875 140.5 510.002929688 150.666992188 472.002929688 166 c 0
 434.002929688 181.333007812 404.8359375 203.333007812 384.502929688 232 c 0
 364.169921875 260.666992188 349.336914062 298.666992188 340.00390625 346 c 0
 330.670898438 393.333007812 325.170898438 451.5 323.50390625 520.5 c 0
 321.836914062 589.5 321.00390625 672 321.00390625 768 c 0
 321.00390625 864 321.670898438 946.5 323.00390625 1015.5 c 0
 324.336914062 1084.5 329.669921875 1142.66699219 339.002929688 1190 c 0
 348.3359375 1237.33300781 363.3359375 1275.33300781 384.002929688 1304 c 0
 404.669921875 1332.66699219 434.002929688 1354.66699219 472.002929688 1370 c 0
 510.002929688 1385.33300781 558.169921875 1395.5 616.502929688 1400.5 c 0
 674.8359375 1405.5 746.668945312 1408 832.001953125 1408 c 2
 1410.00195312 1408 l 2
 1495.33496094 1408 1567.16796875 1405.5 1625.50097656 1400.5 c 0
 1683.83398438 1395.5 1731.83398438 1385.33300781 1769.50097656 1370 c 0
 1807.16796875 1354.66699219 1836.33496094 1332.66699219 1857.00195312 1304 c 0
 1877.66894531 1275.33300781 1892.66894531 1237.33300781 1902.00195312 1190 c 0
 1911.33496094 1142.66699219 1916.83496094 1084.5 1918.50195312 1015.5 c 0
 1920.16894531 946.5 1921.00195312 864 1921.00195312 768 c 0
 1921.00195312 672 1920.00195312 589.333007812 1918.00195312 520 c 0
 1917.33496094 485.333007812 1915.66796875 453.333007812 1913.00097656 424 c 1
 1328.00097656 800 l 1
 1247.00097656 671 l 1
 1877.00097656 267 l 1
 1871.00097656 253.666992188 1864.33398438 242 1857.00097656 232 c 0
 1836.33398438 203.333007812 1807.00097656 181.333007812 1769.00097656 166 c 0
 1731.00097656 150.666992188 1682.83398438 140.5 1624.50097656 135.5 c 0
 1566.16796875 130.5 1494.66796875 128 1410.00097656 128 c 2
 832.000976562 128 l 2
EndSplineSet
Validated: 524297
EndChar

StartChar: R
Encoding: 82 82 53
Width: 2112
GlyphClass: 2
Flags: W
LayerCount: 2
Back
Fore
SplineSet
1952 0 m 1
 1760.00195312 -0.0009765625 l 1
 1760.00195312 287.999023438 l 2
 1760.00195312 334.666015625 1759.16894531 374.833007812 1757.50195312 408.5 c 0
 1755.83496094 442.166992188 1750.16796875 471 1740.50097656 495 c 0
 1730.83398438 519 1715.66699219 538.333007812 1695 553 c 0
 1674.33300781 567.666992188 1645 579 1607 587 c 0
 1569 595 1520.83300781 600.5 1462.5 603.5 c 0
 1404.16699219 606.5 1332.33398438 608 1247.00097656 608 c 2
 384.000976562 608 l 1
 384.000976562 0 l 1
 192.000976562 0 l 1
 192.000976562 1536 l 1
 1279.00097656 1536 l 2
 1396.33398438 1536 1495.16699219 1531.83300781 1575.5 1523.5 c 0
 1655.83300781 1515.16699219 1722.16601562 1502.66699219 1774.49902344 1486 c 0
 1826.83203125 1469.33300781 1867.16503906 1448.66601562 1895.49804688 1423.99902344 c 0
 1923.83105469 1399.33203125 1944.49804688 1370.33203125 1957.49804688 1336.99902344 c 0
 1970.49804688 1303.66601562 1978.16503906 1266.33300781 1980.49804688 1225 c 0
 1982.83105469 1183.66699219 1983.99804688 1138 1983.99804688 1088 c 0
 1983.99804688 1024 1979.49804688 967.833007812 1970.49804688 919.5 c 0
 1961.49804688 871.166992188 1946.33105469 830 1924.99804688 796 c 0
 1903.66503906 762 1875.33203125 734.833007812 1839.99902344 714.5 c 0
 1804.66601562 694.166992188 1760.33300781 680 1707 672 c 1
 1760.33300781 664 1803 650 1835 630 c 0
 1867 610 1891.66699219 584 1909 552 c 0
 1926.33300781 520 1937.83300781 482 1943.5 438 c 0
 1949.16699219 394 1952 344 1952 288 c 2
 1952 0 l 1
384.001953125 767.999023438 m 1
 1279.00195312 768 l 2
 1364.33496094 768 1436.16796875 769.5 1494.50097656 772.5 c 0
 1552.83398438 775.5 1601.00097656 781 1639.00097656 789 c 0
 1677.00097656 797 1706.33398438 808.333007812 1727.00097656 823 c 0
 1747.66796875 837.666992188 1762.83496094 857 1772.50195312 881 c 0
 1782.16894531 905 1787.8359375 933.833007812 1789.50292969 967.5 c 0
 1791.16992188 1001.16699219 1792.00292969 1041.33398438 1792.00292969 1088.00097656 c 0
 1792.00292969 1131.33398438 1791.16992188 1168.66699219 1789.50292969 1200 c 0
 1787.8359375 1231.33300781 1782.16894531 1257.66601562 1772.50195312 1278.99902344 c 0
 1762.83496094 1300.33203125 1747.66796875 1317.33203125 1727.00097656 1329.99902344 c 0
 1706.33398438 1342.66601562 1677.00097656 1352.49902344 1639.00097656 1359.49902344 c 0
 1601.00097656 1366.49902344 1552.83398438 1370.99902344 1494.50097656 1372.99902344 c 0
 1436.16796875 1374.99902344 1364.33496094 1375.99902344 1279.00195312 1375.99902344 c 2
 384.001953125 1375.99902344 l 1
 384.001953125 767.999023438 l 1
EndSplineSet
Validated: 524289
EndChar

StartChar: S
Encoding: 83 83 54
Width: 1984
GlyphClass: 2
Flags: W
LayerCount: 2
Back
Fore
SplineSet
1160 864 m 2
 1265.33300781 864 1355.66601562 859.672851562 1430.99902344 851.005859375 c 0
 1506.33203125 842.338867188 1569.83203125 829.505859375 1621.49902344 812.505859375 c 0
 1673.16601562 795.505859375 1714.33300781 774.338867188 1745 749.005859375 c 0
 1775.66699219 723.672851562 1799.33398438 694.83984375 1816.00097656 662.506835938 c 0
 1832.66796875 630.173828125 1843.50097656 594.006835938 1848.50097656 554.006835938 c 0
 1853.50097656 514.006835938 1856.00097656 470.673828125 1856.00097656 424.006835938 c 0
 1856.00097656 377.33984375 1851.83398438 333.506835938 1843.50097656 292.506835938 c 0
 1835.16796875 251.506835938 1820.33496094 214.006835938 1799.00195312 180.006835938 c 0
 1777.66894531 146.006835938 1748.66894531 115.673828125 1712.00195312 89.0068359375 c 0
 1675.33496094 62.33984375 1628.66796875 39.6728515625 1572.00097656 21.005859375 c 0
 1515.33398438 2.3388671875 1447.16699219 -11.828125 1367.5 -21.4951171875 c 0
 1287.83300781 -31.162109375 1194.66601562 -35.9951171875 1087.99902344 -35.9951171875 c 2
 831.999023438 -35.9951171875 l 2
 735.999023438 -35.9951171875 651.999023438 -32.328125 579.999023438 -24.9951171875 c 0
 507.999023438 -17.662109375 445.999023438 -6.4951171875 393.999023438 8.5048828125 c 0
 341.999023438 23.5048828125 298.999023438 42.5048828125 264.999023438 65.5048828125 c 0
 230.999023438 88.5048828125 203.83203125 115.504882812 183.499023438 146.504882812 c 0
 163.166015625 177.504882812 148.999023438 212.837890625 140.999023438 252.504882812 c 0
 132.999023438 292.171875 128.999023438 336.004882812 128.999023438 384.004882812 c 1
 320.999023438 384.004882812 l 1
 320.999023438 324.004882812 329.666015625 277.004882812 346.999023438 243.004882812 c 0
 364.33203125 209.004882812 392.999023438 183.504882812 432.999023438 166.504882812 c 0
 472.999023438 149.504882812 525.499023438 138.837890625 590.499023438 134.504882812 c 0
 655.499023438 130.171875 735.999023438 128.004882812 831.999023438 128.004882812 c 2
 1087.99902344 128.004882812 l 2
 1199.99902344 128.004882812 1292.99902344 133.337890625 1366.99902344 144.004882812 c 0
 1440.99902344 154.671875 1499.99902344 171.671875 1543.99902344 195.004882812 c 0
 1587.99902344 218.337890625 1618.99902344 248.837890625 1636.99902344 286.504882812 c 0
 1654.99902344 324.171875 1663.99902344 370.004882812 1663.99902344 424.004882812 c 0
 1663.99902344 478.004882812 1657.83203125 523.004882812 1645.49902344 559.004882812 c 0
 1633.16601562 595.004882812 1608.83300781 623.671875 1572.5 645.004882812 c 0
 1536.16699219 666.337890625 1485 681.504882812 1419 690.504882812 c 0
 1353 699.504882812 1266.66699219 704.004882812 1160 704.004882812 c 2
 896 704.004882812 l 2
 778.666992188 704.004882812 678.166992188 708.337890625 594.5 717.004882812 c 0
 510.833007812 725.671875 440.666015625 738.171875 383.999023438 754.504882812 c 0
 327.33203125 770.837890625 281.999023438 791.170898438 247.999023438 815.50390625 c 0
 213.999023438 839.836914062 188.166015625 867.669921875 170.499023438 899.002929688 c 0
 152.83203125 930.3359375 141.33203125 965.168945312 135.999023438 1003.50195312 c 0
 130.666015625 1041.83496094 127.999023438 1083.33496094 127.999023438 1128.00195312 c 0
 127.999023438 1174.66894531 132.166015625 1218.00195312 140.499023438 1258.00195312 c 0
 148.83203125 1298.00195312 164.33203125 1334.16894531 186.999023438 1366.50195312 c 0
 209.666015625 1398.83496094 240.666015625 1427.66796875 279.999023438 1453.00097656 c 0
 319.33203125 1478.33398438 369.83203125 1499.50097656 431.499023438 1516.50097656 c 0
 493.166015625 1533.50097656 567.333007812 1546.33398438 654 1555.00097656 c 0
 740.666992188 1563.66796875 842.666992188 1568.00097656 960 1568.00097656 c 2
 1152 1568.00097656 l 2
 1248 1568.00097656 1332 1564.50097656 1404 1557.50097656 c 0
 1476 1550.50097656 1538 1539.50097656 1590 1524.50097656 c 0
 1642 1509.50097656 1685.16699219 1490.83398438 1719.5 1468.50097656 c 0
 1753.83300781 1446.16796875 1781.16601562 1419.50097656 1801.49902344 1388.50097656 c 0
 1821.83203125 1357.50097656 1835.99902344 1322.33398438 1843.99902344 1283.00097656 c 0
 1851.99902344 1243.66796875 1855.99902344 1200.00097656 1855.99902344 1152.00097656 c 1
 1663.99902344 1152.00097656 l 1
 1663.99902344 1212.00097656 1655.33203125 1259.00097656 1637.99902344 1293.00097656 c 0
 1620.66601562 1327.00097656 1591.99902344 1352.50097656 1551.99902344 1369.50097656 c 0
 1511.99902344 1386.50097656 1459.33203125 1397.16796875 1393.99902344 1401.50097656 c 0
 1328.66601562 1405.83398438 1247.99902344 1408.00097656 1151.99902344 1408.00097656 c 2
 959.999023438 1408.00097656 l 2
 831.999023438 1408.00097656 726.666015625 1403.50097656 643.999023438 1394.50097656 c 0
 561.33203125 1385.50097656 495.999023438 1370.33398438 447.999023438 1349.00097656 c 0
 399.999023438 1327.66796875 366.666015625 1299.00097656 347.999023438 1263.00097656 c 0
 329.33203125 1227.00097656 319.999023438 1182.00097656 319.999023438 1128.00097656 c 0
 319.999023438 1094.66796875 322.33203125 1065.00097656 326.999023438 1039.00097656 c 0
 331.666015625 1013.00097656 341.166015625 990.16796875 355.499023438 970.500976562 c 0
 369.83203125 950.833984375 389.999023438 934.333984375 415.999023438 921.000976562 c 0
 441.999023438 907.66796875 476.33203125 896.66796875 518.999023438 888.000976562 c 0
 561.666015625 879.333984375 613.833007812 873.166992188 675.5 869.5 c 0
 737.166992188 865.833007812 810.666992188 864 896 864 c 2
 1160 864 l 2
EndSplineSet
Validated: 524289
EndChar

StartChar: T
Encoding: 84 84 55
Width: 1984
GlyphClass: 2
Flags: W
LayerCount: 2
Back
Fore
SplineSet
1856 1536 m 1
 1856 1376 l 1
 1088 1376 l 1
 1088 0 l 1
 896 0 l 1
 896 1376 l 1
 128 1376 l 1
 128 1536 l 1
 1856 1536 l 1
EndSplineSet
Validated: 1
EndChar

StartChar: U
Encoding: 85 85 56
Width: 2113
GlyphClass: 2
Flags: W
LayerCount: 2
Back
Fore
SplineSet
1985 1536 m 1
 1984.99609375 768 l 2
 1984.99609375 677.333007812 1983.82910156 594.666015625 1981.49609375 519.999023438 c 0
 1979.16308594 445.33203125 1971.49609375 378.33203125 1958.49609375 318.999023438 c 0
 1945.49609375 259.666015625 1924.99609375 207.999023438 1896.99609375 163.999023438 c 0
 1868.99609375 119.999023438 1828.99609375 83.4990234375 1776.99609375 54.4990234375 c 0
 1724.99609375 25.4990234375 1658.82910156 3.83203125 1578.49609375 -10.5009765625 c 0
 1498.16308594 -24.833984375 1399.33007812 -32.0009765625 1281.99707031 -32.0009765625 c 2
 831.997070312 -32.0009765625 l 2
 714.6640625 -32.0009765625 615.831054688 -24.833984375 535.498046875 -10.5009765625 c 0
 455.165039062 3.83203125 388.998046875 25.4990234375 336.998046875 54.4990234375 c 0
 284.998046875 83.4990234375 244.831054688 119.999023438 216.498046875 163.999023438 c 0
 188.165039062 207.999023438 167.498046875 259.666015625 154.498046875 318.999023438 c 0
 141.498046875 378.33203125 133.998046875 445.33203125 131.998046875 519.999023438 c 0
 129.998046875 594.666015625 128.998046875 677.333007812 128.998046875 768 c 2
 128.998046875 1536 l 1
 320.998046875 1536 l 1
 320.998046875 768 l 2
 320.998046875 672 321.831054688 589.5 323.498046875 520.5 c 0
 325.165039062 451.5 330.665039062 393.333007812 339.998046875 346 c 0
 349.331054688 298.666992188 364.1640625 260.666992188 384.497070312 232 c 0
 404.830078125 203.333007812 433.997070312 181.333007812 471.997070312 166 c 0
 509.997070312 150.666992188 558.1640625 140.5 616.497070312 135.5 c 0
 674.830078125 130.5 746.663085938 128 831.99609375 128 c 2
 1281.99609375 128 l 2
 1366.66308594 128 1438.33007812 130.5 1496.99707031 135.5 c 0
 1555.6640625 140.5 1603.83105469 150.666992188 1641.49804688 166 c 0
 1679.16503906 181.333007812 1708.33203125 203.333007812 1728.99902344 232 c 0
 1749.66601562 260.666992188 1764.83300781 298.666992188 1774.5 346 c 0
 1784.16699219 393.333007812 1789.66699219 451.5 1791 520.5 c 0
 1792.33300781 589.5 1793 672 1793 768 c 2
 1792 1536 l 1
 1985 1536 l 1
EndSplineSet
Validated: 524289
EndChar

StartChar: V
Encoding: 86 86 57
Width: 2048
GlyphClass: 2
Flags: W
LayerCount: 2
Back
Fore
SplineSet
1760 1536 m 1
 1984 1536 l 1
 1152 0 l 1
 896 0 l 1
 64 1536 l 1
 288 1536 l 1
 1024 128 l 1
 1760 1536 l 1
EndSplineSet
Validated: 1
EndChar

StartChar: W
Encoding: 87 87 58
Width: 3328
GlyphClass: 2
Flags: W
LayerCount: 2
Back
Fore
SplineSet
1584 1536 m 1
 1808 1536 l 1
 2432 160 l 1
 3040 1536 l 1
 3264 1536 l 1
 2560 0 l 1
 2304 0 l 1
 1696 1344 l 1
 1088 0 l 1
 832 0 l 1
 64 1536 l 1
 288 1536 l 1
 960 160 l 1
 1584 1536 l 1
EndSplineSet
Validated: 1
EndChar

StartChar: X
Encoding: 88 88 59
Width: 2176
GlyphClass: 2
Flags: W
LayerCount: 2
Back
Fore
SplineSet
1209 810 m 1
 2112 0 l 1
 1840 0 l 1
 1075 686 l 1
 336 0 l 1
 64 0 l 1
 937 810 l 1
 128 1536 l 1
 400 1536 l 1
 1070 934 l 1
 1719 1536 l 1
 1991 1536 l 1
 1209 810 l 1
EndSplineSet
Validated: 1
EndChar

StartChar: Y
Encoding: 89 89 60
Width: 2200
GlyphClass: 2
Flags: W
LayerCount: 2
Back
Fore
SplineSet
128 1536 m 1
 384 1536 l 1
 1088 784 l 1
 1792 1536 l 1
 2048 1536 l 1
 1184 640 l 1
 1184 0 l 1
 992 0 l 1
 992 640 l 1
 128 1536 l 1
EndSplineSet
Validated: 1
EndChar

StartChar: Z
Encoding: 90 90 61
Width: 2046
GlyphClass: 2
Flags: W
LayerCount: 2
Back
Fore
SplineSet
128 0 m 1
 128 160 l 1
 1614 1376 l 1
 192 1376 l 1
 192 1536 l 1
 1888 1536 l 1
 1888 1376 l 1
 394 160 l 1
 1920 160 l 1
 1920 0 l 1
 128 0 l 1
EndSplineSet
Validated: 1
EndChar

StartChar: bracketleft
Encoding: 91 91 62
Width: 832
GlyphClass: 2
Flags: W
LayerCount: 2
Back
Fore
SplineSet
128 1536 m 1
 704 1536 l 1
 704 1376 l 1
 320 1376 l 1
 320 160 l 1
 704 160 l 1
 704 0 l 1
 128 0 l 1
 128 1536 l 1
EndSplineSet
Validated: 1
EndChar

StartChar: backslash
Encoding: 92 92 63
Width: 1023
GlyphClass: 2
Flags: W
LayerCount: 2
Back
Fore
SplineSet
960 0 m 1
 768 0 l 1
 64 1536 l 1
 256 1536 l 1
 960 0 l 1
EndSplineSet
Validated: 1
EndChar

StartChar: bracketright
Encoding: 93 93 64
Width: 832
GlyphClass: 2
Flags: W
LayerCount: 2
Back
Fore
SplineSet
704 0 m 1
 128 0 l 1
 128 160 l 1
 512 160 l 1
 512 1376 l 1
 128 1376 l 1
 128 1536 l 1
 704 1536 l 1
 704 0 l 1
EndSplineSet
Validated: 1
EndChar

StartChar: asciicircum
Encoding: 94 94 65
Width: 1088
GlyphClass: 2
Flags: W
LayerCount: 2
Back
Fore
SplineSet
544 1408 m 1
 192 896 l 1
 64 992 l 1
 448 1536 l 1
 640 1536 l 1
 1024 992 l 1
 896 896 l 1
 544 1408 l 1
EndSplineSet
Validated: 1
EndChar

StartChar: underscore
Encoding: 95 95 66
Width: 1088
GlyphClass: 2
Flags: W
LayerCount: 2
Back
Fore
SplineSet
0 0 m 1
 1088 0 l 1
 1088 -160 l 1
 0 -160 l 1
 0 0 l 1
EndSplineSet
Validated: 1
EndChar

StartChar: grave
Encoding: 96 96 67
Width: 960
GlyphClass: 2
Flags: W
LayerCount: 2
Back
Fore
SplineSet
128 1664 m 1
 256 1856 l 1
 832 1376 l 1
 768 1280 l 1
 128 1664 l 1
EndSplineSet
Validated: 1
EndChar

StartChar: a
Encoding: 97 97 68
Width: 1595
GlyphClass: 2
Flags: W
LayerCount: 2
Back
Fore
SplineSet
1275 158 m 2
 1273 150 1258.00390625 130 1230.00390625 98 c 0
 1210.00390625 74 1183.33691406 52.8330078125 1150.00390625 34.5 c 0
 1116.67089844 16.1669921875 1072.17089844 1.833984375 1016.50390625 -8.4990234375 c 0
 960.836914062 -18.83203125 887.669921875 -23.9990234375 797.002929688 -23.9990234375 c 0
 676.3359375 -23.9990234375 573.3359375 -17.83203125 488.002929688 -5.4990234375 c 0
 402.669921875 6.833984375 333.002929688 25.833984375 279.002929688 51.5009765625 c 0
 225.002929688 77.16796875 185.502929688 110.000976562 160.502929688 150.000976562 c 0
 135.502929688 190.000976562 123.002929688 237.66796875 123.002929688 293.000976562 c 0
 123.002929688 351.000976562 129.8359375 400.16796875 143.502929688 440.500976562 c 0
 157.169921875 480.833984375 177.169921875 514.666992188 203.502929688 542 c 0
 229.8359375 569.333007812 261.668945312 590.666015625 299.001953125 605.999023438 c 0
 336.334960938 621.33203125 378.834960938 632.999023438 426.501953125 640.999023438 c 0
 474.168945312 648.999023438 526.3359375 653.999023438 583.002929688 655.999023438 c 0
 639.669921875 657.999023438 700.002929688 658.999023438 764.002929688 658.999023438 c 0
 855.3359375 658.999023438 931.668945312 655.166015625 993.001953125 647.499023438 c 0
 1054.33496094 639.83203125 1104.50195312 630.165039062 1143.50195312 618.498046875 c 0
 1182.50195312 606.831054688 1212.00195312 594.331054688 1232.00195312 580.998046875 c 0
 1252.00195312 567.665039062 1266.33496094 555.33203125 1275.00195312 543.999023438 c 1
 1275.00195312 618.666015625 1271.83496094 682.333007812 1265.50195312 735 c 0
 1259.16894531 787.666992188 1248.8359375 831.666992188 1234.50292969 867 c 0
 1220.16992188 902.333007812 1201.66992188 930.5 1179.00292969 951.5 c 0
 1156.3359375 972.5 1128.50292969 988.333007812 1095.50292969 999 c 0
 1062.50292969 1009.66699219 1024.00292969 1016.5 980.002929688 1019.5 c 0
 936.002929688 1022.5 885.669921875 1024 829.002929688 1024 c 0
 741.002929688 1024 668.002929688 1021.83300781 610.002929688 1017.5 c 0
 552.002929688 1013.16699219 506.002929688 1004.66699219 472.002929688 992 c 0
 438.002929688 979.333007812 414.002929688 961.833007812 400.002929688 939.5 c 0
 386.002929688 917.166992188 379.002929688 888 379.002929688 852 c 1
 187.002929688 852 l 1
 187.002929688 912.666992188 197.8359375 964 219.502929688 1006 c 0
 241.169921875 1048 277.169921875 1082.16699219 327.502929688 1108.5 c 0
 377.8359375 1134.83300781 444.002929688 1154 526.002929688 1166 c 0
 608.002929688 1178 709.002929688 1184 829.002929688 1184 c 0
 946.3359375 1184 1045.66894531 1174.33300781 1127.00195312 1155 c 0
 1208.33496094 1135.66699219 1274.16796875 1101.66699219 1324.50097656 1053 c 0
 1374.83398438 1004.33300781 1411.16699219 938.833007812 1433.5 856.5 c 0
 1455.83300781 774.166992188 1467 670 1467 544 c 2
 1467 0 l 1
 1275 0 l 1
 1275 158 l 2
829.00390625 128 m 0
 913.670898438 128 984.502929688 132 1041.50292969 140 c 0
 1098.50292969 148 1144.3359375 160 1179.00292969 176 c 0
 1213.66992188 192 1238.33691406 212 1253.00390625 236 c 0
 1267.67089844 260 1275.00390625 288 1275.00390625 320 c 0
 1275.00390625 352 1266.50390625 379.166992188 1249.50390625 401.5 c 0
 1232.50390625 423.833007812 1204.17089844 442 1164.50390625 456 c 0
 1124.83691406 470 1072.33691406 480.166992188 1007.00390625 486.5 c 0
 941.670898438 492.833007812 861.00390625 496 765.00390625 496 c 0
 669.00390625 496 591.50390625 494.333007812 532.50390625 491 c 0
 473.50390625 487.666992188 428.00390625 480 396.00390625 468 c 0
 364.00390625 456 342.50390625 438.333007812 331.50390625 415 c 0
 320.50390625 391.666992188 315.00390625 360 315.00390625 320 c 0
 315.00390625 280 320.836914062 247.5 332.50390625 222.5 c 0
 344.170898438 197.5 368.00390625 178 404.00390625 164 c 0
 440.00390625 150 491.836914062 140.5 559.50390625 135.5 c 0
 627.170898438 130.5 717.00390625 128 829.00390625 128 c 0
EndSplineSet
Validated: 524289
EndChar

StartChar: b
Encoding: 98 98 69
Width: 1632
GlyphClass: 2
Flags: W
LayerCount: 2
Back
Fore
SplineSet
832 -22 m 0
 740 -22 663.500976562 -15.830078125 602.500976562 -3.4970703125 c 0
 541.500976562 8.8359375 491.66796875 22.1689453125 453.000976562 36.501953125 c 0
 414.333984375 50.8349609375 385.000976562 73.501953125 365.000976562 104.501953125 c 0
 345.000976562 135.501953125 330.000976562 159.668945312 320.000976562 177.001953125 c 1
 320.000976562 0.001953125 l 1
 128.000976562 0.001953125 l 1
 128.000976562 1536.00195312 l 1
 320.000976562 1536.00195312 l 1
 320.000976562 1043.00195312 l 1
 328.66796875 1057.00195312 343.16796875 1072.16894531 363.500976562 1088.50195312 c 0
 383.833984375 1104.83496094 413.500976562 1120.16796875 452.500976562 1134.50097656 c 0
 491.500976562 1148.83398438 541.66796875 1160.66699219 603.000976562 1170 c 0
 664.333984375 1179.33300781 740.666992188 1184 832 1184 c 0
 960 1184 1068.66699219 1174.33300781 1158 1155 c 0
 1247.33300781 1135.66699219 1320 1102.66699219 1376 1056 c 0
 1432 1009.33300781 1472.66699219 946.833007812 1498 868.5 c 0
 1523.33300781 790.166992188 1536 692 1536 574 c 0
 1536 458 1523.33300781 361.666992188 1498 285 c 0
 1472.66699219 208.333007812 1432 147.333007812 1376 102 c 0
 1320 56.6669921875 1247.33300781 24.6669921875 1158 6 c 0
 1068.66699219 -12.6669921875 960 -22 832 -22 c 0
832.000976562 128.002929688 m 0
 906.66796875 128.002929688 971.16796875 130.334960938 1025.50097656 135.001953125 c 0
 1079.83398438 139.668945312 1126.00097656 148.001953125 1164.00097656 160.001953125 c 0
 1202.00097656 172.001953125 1232.83398438 188.668945312 1256.50097656 210.001953125 c 0
 1280.16796875 231.334960938 1298.50097656 258.501953125 1311.50097656 291.501953125 c 0
 1324.50097656 324.501953125 1333.16796875 364.168945312 1337.50097656 410.501953125 c 0
 1341.83398438 456.834960938 1344.00097656 511.334960938 1344.00097656 574.001953125 c 0
 1344.00097656 636.668945312 1341.83398438 691.3359375 1337.50097656 738.002929688 c 0
 1333.16796875 784.669921875 1324.50097656 824.502929688 1311.50097656 857.502929688 c 0
 1298.50097656 890.502929688 1280.16796875 917.8359375 1256.50097656 939.502929688 c 0
 1232.83398438 961.169921875 1202.00097656 978.169921875 1164.00097656 990.502929688 c 0
 1126.00097656 1002.8359375 1079.83398438 1011.3359375 1025.50097656 1016.00292969 c 0
 971.16796875 1020.66992188 906.66796875 1023.00292969 832.000976562 1023.00292969 c 0
 768.000976562 1023.00292969 711.000976562 1021.50292969 661.000976562 1018.50292969 c 0
 611.000976562 1015.50292969 567.000976562 1008.66992188 529.000976562 998.002929688 c 0
 491.000976562 987.3359375 458.833984375 972.002929688 432.500976562 952.002929688 c 0
 406.16796875 932.002929688 384.66796875 905.3359375 368.000976562 872.002929688 c 0
 351.333984375 838.669921875 339.166992188 797.336914062 331.5 748.00390625 c 0
 323.833007812 698.670898438 320 639.670898438 320 571.00390625 c 0
 320 503.00390625 323.833007812 444.836914062 331.5 396.50390625 c 0
 339.166992188 348.170898438 351.333984375 307.670898438 368.000976562 275.00390625 c 0
 384.66796875 242.336914062 406.16796875 216.169921875 432.500976562 196.502929688 c 0
 458.833984375 176.8359375 491.000976562 162.002929688 529.000976562 152.002929688 c 0
 567.000976562 142.002929688 611.000976562 135.502929688 661.000976562 132.502929688 c 0
 711.000976562 129.502929688 768.000976562 128.002929688 832.000976562 128.002929688 c 0
EndSplineSet
Validated: 524289
EndChar

StartChar: c
Encoding: 99 99 70
Width: 1569
GlyphClass: 2
Flags: W
LayerCount: 2
Back
Fore
SplineSet
96 574 m 0
 96 654 100 724.669921875 108 786.002929688 c 0
 116 847.3359375 130.166992188 900.668945312 150.5 946.001953125 c 0
 170.833007812 991.334960938 198.166015625 1029.16796875 232.499023438 1059.50097656 c 0
 266.83203125 1089.83398438 310.165039062 1114.33398438 362.498046875 1133.00097656 c 0
 414.831054688 1151.66796875 476.998046875 1165.00097656 548.998046875 1173.00097656 c 0
 620.998046875 1181.00097656 704.998046875 1185.00097656 800.998046875 1185.00097656 c 0
 928.998046875 1185.00097656 1034.33105469 1177.16796875 1116.99804688 1161.50097656 c 0
 1199.66503906 1145.83398438 1264.99804688 1121.83398438 1312.99804688 1089.50097656 c 0
 1360.99804688 1057.16796875 1394.33105469 1016.16796875 1412.99804688 966.500976562 c 0
 1431.66503906 916.833984375 1440.99804688 857.666992188 1440.99804688 789 c 1
 1248.99804688 789 l 1
 1248.99804688 813.666992188 1248.33105469 836.666992188 1246.99804688 858 c 0
 1245.66503906 879.333007812 1240.83203125 898.666015625 1232.49902344 915.999023438 c 0
 1224.16601562 933.33203125 1210.99902344 948.83203125 1192.99902344 962.499023438 c 0
 1174.99902344 976.166015625 1149.33203125 987.666015625 1115.99902344 996.999023438 c 0
 1082.66601562 1006.33203125 1040.49902344 1013.33203125 989.499023438 1017.99902344 c 0
 938.499023438 1022.66601562 875.666015625 1024.99902344 800.999023438 1024.99902344 c 0
 715.666015625 1024.99902344 643.833007812 1021.99902344 585.5 1015.99902344 c 0
 527.166992188 1009.99902344 479 1000.16601562 441 986.499023438 c 0
 403 972.83203125 373.666992188 954.499023438 353 931.499023438 c 0
 332.333007812 908.499023438 317.333007812 880.33203125 308 846.999023438 c 0
 298.666992188 813.666015625 293.166992188 774.499023438 291.5 729.499023438 c 0
 289.833007812 684.499023438 289 632.666015625 289 573.999023438 c 0
 289 516.666015625 289.833007812 465.833007812 291.5 421.5 c 0
 293.166992188 377.166992188 298.666992188 338.5 308 305.5 c 0
 317.333007812 272.5 332.333007812 244.666992188 353 222 c 0
 373.666992188 199.333007812 403 181 441 167 c 0
 479 153 527.166992188 143 585.5 137 c 0
 643.833007812 131 715.666015625 128 800.999023438 128 c 0
 875.666015625 128 938.499023438 130.666992188 989.499023438 136 c 0
 1040.49902344 141.333007812 1082.66601562 149 1115.99902344 159 c 0
 1149.33203125 169 1174.99902344 181.333007812 1192.99902344 196 c 0
 1210.99902344 210.666992188 1224.16601562 227.5 1232.49902344 246.5 c 0
 1240.83203125 265.5 1245.66503906 286.5 1246.99804688 309.5 c 0
 1248.33105469 332.5 1248.99804688 357.333007812 1248.99804688 384 c 1
 1440.99804688 384 l 1
 1440.99804688 314 1431.66503906 253.333007812 1412.99804688 202 c 0
 1394.33105469 150.666992188 1360.99804688 108.5 1312.99804688 75.5 c 0
 1264.99804688 42.5 1199.66503906 18 1116.99804688 2 c 0
 1034.33105469 -14 928.998046875 -22 800.998046875 -22 c 0
 704.998046875 -22 620.998046875 -18 548.998046875 -10 c 0
 476.998046875 -2 414.831054688 11.1669921875 362.498046875 29.5 c 0
 310.165039062 47.8330078125 266.83203125 72 232.499023438 102 c 0
 198.166015625 132 170.833007812 169 150.5 213 c 0
 130.166992188 257 116 308.833007812 108 368.5 c 0
 100 428.166992188 96 496.666992188 96 574 c 0
EndSplineSet
Validated: 524289
EndChar

StartChar: d
Encoding: 100 100 71
Width: 1632
GlyphClass: 2
Flags: W
LayerCount: 2
Back
Fore
SplineSet
800 -22 m 0
 672 -22 563.333984375 -12.6669921875 474.000976562 6 c 0
 384.66796875 24.6669921875 312.000976562 56.6669921875 256.000976562 102 c 0
 200.000976562 147.333007812 159.333984375 208.333007812 134.000976562 285 c 0
 108.66796875 361.666992188 96.0009765625 458 96.0009765625 574 c 0
 96.0009765625 694 108.66796875 793.333007812 134.000976562 872 c 0
 159.333984375 950.666992188 200.000976562 1013 256.000976562 1059 c 0
 312.000976562 1105 384.66796875 1137.33300781 474.000976562 1156 c 0
 563.333984375 1174.66699219 672.000976562 1184 800.000976562 1184 c 0
 890.66796875 1184 966.66796875 1179.33300781 1028.00097656 1170 c 0
 1089.33398438 1160.66699219 1139.50097656 1149 1178.50097656 1135 c 0
 1217.50097656 1121 1247.16796875 1105.83300781 1267.50097656 1089.5 c 0
 1287.83398438 1073.16699219 1302.66699219 1058 1312 1044 c 1
 1312 1536 l 1
 1504 1536 l 1
 1504 0 l 1
 1312 0 l 1
 1312 171 l 1
 1264 114 l 2
 1236 86.6669921875 1205 64.6669921875 1171 48 c 0
 1137 31.3330078125 1089.33300781 15.5 1028 0.5 c 0
 966.666992188 -14.5 890.666992188 -22 800 -22 c 0
800.000976562 128 m 0
 864.000976562 128 921.000976562 129.497070312 971.000976562 132.497070312 c 0
 1021.00097656 135.497070312 1065.00097656 141.997070312 1103.00097656 151.997070312 c 0
 1141.00097656 161.997070312 1173.16796875 176.830078125 1199.50097656 196.497070312 c 0
 1225.83398438 216.1640625 1247.33398438 242.331054688 1264.00097656 274.998046875 c 0
 1280.66796875 307.665039062 1292.83496094 348.165039062 1300.50195312 396.498046875 c 0
 1308.16894531 444.831054688 1312.00195312 502.998046875 1312.00195312 570.998046875 c 0
 1312.00195312 641.665039062 1308.16894531 701.83203125 1300.50195312 751.499023438 c 0
 1292.83496094 801.166015625 1280.66796875 842.833007812 1264.00097656 876.5 c 0
 1247.33398438 910.166992188 1225.83398438 936.666992188 1199.50097656 956 c 0
 1173.16796875 975.333007812 1141.00097656 990.166015625 1103.00097656 1000.49902344 c 0
 1065.00097656 1010.83203125 1021.00097656 1017.33203125 971.000976562 1019.99902344 c 0
 921.000976562 1022.66601562 864.000976562 1023.99902344 800.000976562 1023.99902344 c 0
 725.333984375 1023.99902344 660.833984375 1021.66601562 606.500976562 1016.99902344 c 0
 552.16796875 1012.33203125 506.000976562 1003.99902344 468.000976562 991.999023438 c 0
 430.000976562 979.999023438 399.16796875 963.33203125 375.500976562 941.999023438 c 0
 351.833984375 920.666015625 333.500976562 893.333007812 320.500976562 860 c 0
 307.500976562 826.666992188 298.833984375 786.5 294.500976562 739.5 c 0
 290.16796875 692.5 288.000976562 637.333007812 288.000976562 574 c 0
 288.000976562 511.333007812 290.16796875 456.833007812 294.500976562 410.5 c 0
 298.833984375 364.166992188 307.500976562 324.5 320.500976562 291.5 c 0
 333.500976562 258.5 351.833984375 231.333007812 375.500976562 210 c 0
 399.16796875 188.666992188 430.000976562 172 468.000976562 160 c 0
 506.000976562 148 552.16796875 139.666992188 606.500976562 135 c 0
 660.833984375 130.333007812 725.333984375 128 800.000976562 128 c 0
EndSplineSet
Validated: 524289
EndChar

StartChar: e
Encoding: 101 101 72
Width: 1568
GlyphClass: 2
Flags: W
LayerCount: 2
Back
Fore
SplineSet
800 -22 m 0
 672 -22 563.33203125 -13.1689453125 473.999023438 4.498046875 c 0
 384.666015625 22.1650390625 311.999023438 52.6650390625 255.999023438 95.998046875 c 0
 199.999023438 139.331054688 159.33203125 197.331054688 133.999023438 269.998046875 c 0
 108.666015625 342.665039062 95.9990234375 433.998046875 95.9990234375 543.998046875 c 0
 95.9990234375 669.998046875 108.666015625 774.165039062 133.999023438 856.498046875 c 0
 159.33203125 938.831054688 199.999023438 1004.33105469 255.999023438 1052.99804688 c 0
 311.999023438 1101.66503906 384.666015625 1135.66503906 473.999023438 1154.99804688 c 0
 563.33203125 1174.33105469 671.999023438 1183.99804688 799.999023438 1183.99804688 c 0
 891.33203125 1183.99804688 970.499023438 1177.33105469 1037.49902344 1163.99804688 c 0
 1104.49902344 1150.66503906 1161.83203125 1131.33203125 1209.49902344 1105.99902344 c 0
 1257.16601562 1080.66601562 1295.83300781 1049.99902344 1325.5 1013.99902344 c 0
 1355.16699219 977.999023438 1378.5 940.166015625 1395.5 900.499023438 c 0
 1412.5 860.83203125 1424.16699219 814.33203125 1430.5 760.999023438 c 0
 1436.83300781 707.666015625 1440 651.333007812 1440 592 c 1
 1424 528 l 1
 288 528 l 1
 288 440 296.666992188 367.833007812 314 311.5 c 0
 331.333007812 255.166992188 360 214 400 188 c 0
 440 162 492.666992188 145.5 558 138.5 c 0
 623.333007812 131.5 704 128 800 128 c 0
 888 128 960.833007812 130.5 1018.5 135.5 c 0
 1076.16699219 140.5 1122 150 1156 164 c 0
 1190 178 1213.83300781 197.5 1227.5 222.5 c 0
 1241.16699219 247.5 1248 280 1248 320 c 1
 1440 320 l 1
 1440 258 1429.16699219 205.166992188 1407.5 161.5 c 0
 1385.83300781 117.833007812 1350 82.5 1300 55.5 c 0
 1250 28.5 1184.16699219 8.8330078125 1102.5 -3.5 c 0
 1020.83300781 -15.8330078125 920 -22 800 -22 c 0
799.999023438 1023.99804688 m 0
 735.999023438 1023.99804688 678.833007812 1022.66503906 628.5 1019.99804688 c 0
 578.166992188 1017.33105469 534.166992188 1011.49804688 496.5 1002.49804688 c 0
 458.833007812 993.498046875 426.666015625 980.498046875 399.999023438 963.498046875 c 0
 373.33203125 946.498046875 351.83203125 926.498046875 335.499023438 903.498046875 c 0
 319.166015625 880.498046875 307.166015625 848.165039062 299.499023438 806.498046875 c 0
 291.83203125 764.831054688 287.999023438 714.6640625 287.999023438 655.997070312 c 1
 1247.99902344 655.997070312 l 1
 1247.99902344 733.997070312 1239.66601562 795.1640625 1222.99902344 839.497070312 c 0
 1206.33203125 883.830078125 1179.99902344 920.330078125 1143.99902344 948.997070312 c 0
 1107.99902344 977.6640625 1061.66601562 997.331054688 1004.99902344 1007.99804688 c 0
 948.33203125 1018.66503906 879.999023438 1023.99804688 799.999023438 1023.99804688 c 0
EndSplineSet
Validated: 524289
EndChar

StartChar: f
Encoding: 102 102 73
Width: 1056
GlyphClass: 2
Flags: W
LayerCount: 2
Back
Fore
SplineSet
512 1006 m 1
 512.000976562 -0.001953125 l 1
 320.000976562 -0.001953125 l 1
 320.000976562 1005.99804688 l 1
 128.000976562 1005.99804688 l 1
 128.000976562 1151.99804688 l 1
 320.000976562 1151.99804688 l 1
 320.000976562 1161.99804688 l 2
 320.000976562 1239.99804688 328.66796875 1304.99804688 346.000976562 1356.99804688 c 0
 363.333984375 1408.99804688 392.000976562 1450.66503906 432.000976562 1481.99804688 c 0
 472.000976562 1513.33105469 524.833984375 1535.49804688 590.500976562 1548.49804688 c 0
 656.16796875 1561.49804688 737.000976562 1567.99804688 833.000976562 1567.99804688 c 2
 1056.00097656 1567.99804688 l 1
 1056.00097656 1407.99804688 l 1
 832.000976562 1407.99804688 l 2
 771.333984375 1407.99804688 720.666992188 1406.66503906 680 1403.99804688 c 0
 639.333007812 1401.33105469 606.5 1392.33105469 581.5 1376.99804688 c 0
 556.5 1361.66503906 538.666992188 1337.33203125 528 1303.99902344 c 0
 517.333007812 1270.66601562 512 1223.33300781 512 1162 c 2
 512 1152 l 1
 1056 1152 l 1
 1056 1006 l 1
 512 1006 l 1
EndSplineSet
Validated: 524289
EndChar

StartChar: g
Encoding: 103 103 74
Width: 1632
GlyphClass: 2
Flags: W
LayerCount: 2
Back
Fore
SplineSet
800 1024 m 0
 725.333007812 1024 660.833007812 1021.66699219 606.5 1017 c 0
 552.166992188 1012.33300781 506 1004 468 992 c 0
 430 980 399.166992188 963.333007812 375.5 942 c 0
 351.833007812 920.666992188 333.5 893.333984375 320.5 860.000976562 c 0
 307.5 826.66796875 298.833007812 786.500976562 294.5 739.500976562 c 0
 290.166992188 692.500976562 288 637.333984375 288 574.000976562 c 0
 288 511.333984375 290.166992188 456.833984375 294.5 410.500976562 c 0
 298.833007812 364.16796875 307.5 324.500976562 320.5 291.500976562 c 0
 333.5 258.500976562 351.833007812 231.333984375 375.5 210.000976562 c 0
 399.166992188 188.66796875 430 172.000976562 468 160.000976562 c 0
 506 148.000976562 552.166992188 139.66796875 606.5 135.000976562 c 0
 660.833007812 130.333984375 725.333007812 128.000976562 800 128.000976562 c 0
 864 128.000976562 921 129.500976562 971 132.500976562 c 0
 1021 135.500976562 1065 142.16796875 1103 152.500976562 c 0
 1141 162.833984375 1173.16699219 177.833984375 1199.5 197.500976562 c 0
 1225.83300781 217.16796875 1247.33300781 243.500976562 1264 276.500976562 c 0
 1280.66699219 309.500976562 1292.83398438 350.500976562 1300.50097656 399.500976562 c 0
 1308.16796875 448.500976562 1312.00097656 507.66796875 1312.00097656 577.000976562 c 0
 1312.00097656 646.333984375 1308.16796875 705.666992188 1300.50097656 755 c 0
 1292.83398438 804.333007812 1280.66699219 845.5 1264 878.5 c 0
 1247.33300781 911.5 1225.83300781 937.666992188 1199.5 957 c 0
 1173.16699219 976.333007812 1141 991 1103 1001 c 0
 1065 1011 1021 1017.33300781 971 1020 c 0
 921 1022.66699219 864 1024 800 1024 c 0
1504 160 m 2
 1504 48 1491.33300781 -45.0009765625 1466 -119.000976562 c 0
 1440.66699219 -193.000976562 1400 -252.833984375 1344 -298.500976562 c 0
 1288 -344.16796875 1215.33300781 -376.000976562 1126 -394.000976562 c 0
 1036.66699219 -412.000976562 928 -421.000976562 800 -421.000976562 c 0
 680 -421.000976562 579.166992188 -415.66796875 497.5 -405.000976562 c 0
 415.833007812 -394.333984375 350 -377.500976562 300 -354.500976562 c 0
 250 -331.500976562 214.166992188 -301.833984375 192.5 -265.500976562 c 0
 170.833007812 -229.16796875 160 -185.000976562 160 -133.000976562 c 1
 352 -133.000976562 l 1
 352 -159.000976562 358.833007812 -180.333984375 372.5 -197.000976562 c 0
 386.166992188 -213.66796875 410 -226.66796875 444 -236.000976562 c 0
 478 -245.333984375 523.833007812 -251.833984375 581.5 -255.500976562 c 0
 639.166992188 -259.16796875 712 -261.000976562 800 -261.000976562 c 0
 896 -261.000976562 976.666992188 -257.500976562 1042 -250.500976562 c 0
 1107.33300781 -243.500976562 1160 -227.000976562 1200 -201.000976562 c 0
 1240 -175.000976562 1268.66699219 -135.66796875 1286 -83.0009765625 c 0
 1303.33300781 -30.333984375 1312 39.9990234375 1312 127.999023438 c 1
 1302.66699219 111.999023438 1287.83398438 94.666015625 1267.50097656 75.9990234375 c 0
 1247.16796875 57.33203125 1217.50097656 39.9990234375 1178.50097656 23.9990234375 c 0
 1139.50097656 7.9990234375 1089.33398438 -5.333984375 1028.00097656 -16.0009765625 c 0
 966.66796875 -26.66796875 890.66796875 -32.0009765625 800.000976562 -32.0009765625 c 0
 672.000976562 -32.0009765625 563.333984375 -22.5009765625 474.000976562 -3.5009765625 c 0
 384.66796875 15.4990234375 312.000976562 47.9990234375 256.000976562 93.9990234375 c 0
 200.000976562 139.999023438 159.333984375 201.999023438 134.000976562 279.999023438 c 0
 108.66796875 357.999023438 96.0009765625 455.999023438 96.0009765625 573.999023438 c 0
 96.0009765625 693.999023438 108.66796875 793.33203125 134.000976562 871.999023438 c 0
 159.333984375 950.666015625 200.000976562 1012.99902344 256.000976562 1058.99902344 c 0
 312.000976562 1104.99902344 384.66796875 1137.33203125 474.000976562 1155.99902344 c 0
 563.333984375 1174.66601562 672.000976562 1183.99902344 800.000976562 1183.99902344 c 0
 890.66796875 1183.99902344 966.66796875 1179.33203125 1028.00097656 1169.99902344 c 0
 1089.33398438 1160.66601562 1139.50097656 1148.99902344 1178.50097656 1134.99902344 c 0
 1217.50097656 1120.99902344 1247.16796875 1105.83203125 1267.50097656 1089.49902344 c 0
 1287.83398438 1073.16601562 1302.66699219 1058.33300781 1312 1045 c 1
 1312 1152 l 1
 1504 1152 l 1
 1504 160 l 2
EndSplineSet
Validated: 524289
EndChar

StartChar: h
Encoding: 104 104 75
Width: 1601
GlyphClass: 2
Flags: W
LayerCount: 2
Back
Fore
SplineSet
1280 0 m 1
 1280.00195312 649.999023438 l 2
 1280.00195312 719.33203125 1274.66894531 777.83203125 1264.00195312 825.499023438 c 0
 1253.33496094 873.166015625 1232.00195312 911.666015625 1200.00195312 940.999023438 c 0
 1168.00195312 970.33203125 1122.66894531 991.499023438 1064.00195312 1004.49902344 c 0
 1005.33496094 1017.49902344 928.001953125 1023.99902344 832.001953125 1023.99902344 c 0
 728.001953125 1023.99902344 642.834960938 1016.49902344 576.501953125 1001.49902344 c 0
 510.168945312 986.499023438 458.001953125 965.499023438 420.001953125 938.499023438 c 0
 382.001953125 911.499023438 355.834960938 878.999023438 341.501953125 840.999023438 c 0
 327.168945312 802.999023438 320.001953125 760.666015625 320.001953125 713.999023438 c 2
 320.001953125 -0.0009765625 l 1
 128.001953125 -0.0009765625 l 1
 128.001953125 1535.99902344 l 1
 320.001953125 1535.99902344 l 1
 320.001953125 969.999023438 l 1
 333.334960938 1001.33203125 352.334960938 1028.33203125 377.001953125 1050.99902344 c 0
 401.668945312 1073.66601562 430.168945312 1092.99902344 462.501953125 1108.99902344 c 0
 494.834960938 1124.99902344 529.66796875 1137.83203125 567.000976562 1147.49902344 c 0
 604.333984375 1157.16601562 642.166992188 1164.66601562 680.5 1169.99902344 c 0
 718.833007812 1175.33203125 756.5 1178.99902344 793.5 1180.99902344 c 0
 830.5 1182.99902344 864.666992188 1183.99902344 896 1183.99902344 c 0
 981.333007812 1183.99902344 1054.83300781 1178.83203125 1116.5 1168.49902344 c 0
 1178.16699219 1158.16601562 1230.5 1142.83300781 1273.5 1122.5 c 0
 1316.5 1102.16699219 1351 1077 1377 1047 c 0
 1403 1017 1423.16699219 982.166992188 1437.5 942.5 c 0
 1451.83300781 902.833007812 1461.33300781 858.5 1466 809.5 c 0
 1470.66699219 760.5 1473 707.333007812 1473 650 c 2
 1472 0 l 1
 1280 0 l 1
EndSplineSet
Validated: 524289
EndChar

StartChar: i
Encoding: 105 105 76
Width: 576
GlyphClass: 2
Flags: W
LayerCount: 2
Back
Fore
SplineSet
192 1152 m 1
 384 1152 l 1
 384 0 l 1
 192 0 l 1
 192 1152 l 1
384 1344 m 1
 192 1344 l 1
 192 1536 l 1
 384 1536 l 1
 384 1344 l 1
EndSplineSet
Validated: 1
EndChar

StartChar: j
Encoding: 106 106 77
Width: 672
GlyphClass: 2
Flags: W
LayerCount: 2
Back
Fore
SplineSet
480 -64 m 2
 480 -113.333007812 476.666992188 -157.666992188 470 -197 c 0
 463.333007812 -236.333007812 448 -269.833007812 424 -297.5 c 0
 400 -325.166992188 364.666992188 -346.5 318 -361.5 c 0
 271.333007812 -376.5 208 -384 128 -384 c 1
 128 -224 l 1
 160 -224 186.333007812 -221.666992188 207 -217 c 0
 227.666992188 -212.333007812 244 -204 256 -192 c 0
 268 -180 276.333007812 -163.666992188 281 -143 c 0
 285.666992188 -122.333007812 288 -96 288 -64 c 2
 288 1152 l 1
 480 1152 l 1
 480 -64 l 2
480 1343.99902344 m 1
 288 1343.99902344 l 1
 288 1535.99902344 l 1
 480 1535.99902344 l 1
 480 1343.99902344 l 1
EndSplineSet
Validated: 524289
EndChar

StartChar: k
Encoding: 107 107 78
Width: 1408
GlyphClass: 2
Flags: W
LayerCount: 2
Back
Fore
SplineSet
128 1536 m 1
 320 1536 l 1
 320 696 l 1
 384 696 l 1
 1088 1152 l 1
 1376 1152 l 1
 560 616 l 1
 1408 0 l 1
 1120 0 l 1
 384 552 l 1
 320 552 l 1
 320 0 l 1
 128 0 l 1
 128 1536 l 1
EndSplineSet
Validated: 1
EndChar

StartChar: l
Encoding: 108 108 79
Width: 576
GlyphClass: 2
Flags: W
LayerCount: 2
Back
Fore
SplineSet
192 1536 m 1
 384 1536 l 1
 384 0 l 1
 192 0 l 1
 192 1536 l 1
EndSplineSet
Validated: 1
EndChar

StartChar: m
Encoding: 109 109 80
Width: 2496
GlyphClass: 2
Flags: W
LayerCount: 2
Back
Fore
SplineSet
1344 0 m 1
 1151.99804688 -0.0009765625 l 1
 1151.99804688 649.999023438 l 2
 1151.99804688 719.33203125 1147.49804688 777.83203125 1138.49804688 825.499023438 c 0
 1129.49804688 873.166015625 1111.16503906 911.666015625 1083.49804688 940.999023438 c 0
 1055.83105469 970.33203125 1016.83105469 991.499023438 966.498046875 1004.49902344 c 0
 916.165039062 1017.49902344 849.998046875 1023.99902344 767.998046875 1023.99902344 c 0
 677.998046875 1023.99902344 603.998046875 1016.49902344 545.998046875 1001.49902344 c 0
 487.998046875 986.499023438 442.331054688 965.499023438 408.998046875 938.499023438 c 0
 375.665039062 911.499023438 352.498046875 878.999023438 339.498046875 840.999023438 c 0
 326.498046875 802.999023438 319.998046875 760.666015625 319.998046875 713.999023438 c 2
 319.998046875 -0.0009765625 l 1
 127.998046875 -0.0009765625 l 1
 127.998046875 1151.99902344 l 1
 319.998046875 1151.99902344 l 1
 319.998046875 969.999023438 l 2
 320.665039062 971.999023438 323.665039062 978.666015625 328.998046875 989.999023438 c 0
 334.331054688 1001.33203125 343.831054688 1014.83203125 357.498046875 1030.49902344 c 0
 371.165039062 1046.16601562 389.83203125 1062.99902344 413.499023438 1080.99902344 c 0
 437.166015625 1098.99902344 467.833007812 1115.66601562 505.5 1130.99902344 c 0
 543.166992188 1146.33203125 588.666992188 1158.99902344 642 1168.99902344 c 0
 695.333007812 1178.99902344 758.666015625 1183.99902344 831.999023438 1183.99902344 c 0
 903.999023438 1183.99902344 966.499023438 1179.49902344 1019.49902344 1170.49902344 c 0
 1072.49902344 1161.49902344 1117.83203125 1148.16601562 1155.49902344 1130.49902344 c 0
 1193.16601562 1112.83203125 1223.83300781 1090.83203125 1247.5 1064.49902344 c 0
 1271.16699219 1038.16601562 1290 1007.99902344 1304 973.999023438 c 1
 1315.33300781 991.999023438 1333 1012.99902344 1357 1036.99902344 c 0
 1381 1060.99902344 1414.5 1083.99902344 1457.5 1105.99902344 c 0
 1500.5 1127.99902344 1554.33300781 1146.49902344 1619 1161.49902344 c 0
 1683.66699219 1176.49902344 1762.66699219 1183.99902344 1856 1183.99902344 c 0
 1932.66699219 1183.99902344 1998.5 1178.83203125 2053.5 1168.49902344 c 0
 2108.5 1158.16601562 2155 1142.83300781 2193 1122.5 c 0
 2231 1102.16699219 2261.5 1077 2284.5 1047 c 0
 2307.5 1017 2325.16699219 982.166992188 2337.5 942.5 c 0
 2349.83300781 902.833007812 2358 858.5 2362 809.5 c 0
 2366 760.5 2368 707.333007812 2368 650 c 2
 2368 0 l 1
 2176 0 l 1
 2176 650 l 2
 2176 719.333007812 2171.5 777.833007812 2162.5 825.5 c 0
 2153.5 873.166992188 2135.16699219 911.666992188 2107.5 941 c 0
 2079.83300781 970.333007812 2040.83300781 991.5 1990.5 1004.5 c 0
 1940.16699219 1017.5 1874 1024 1792 1024 c 0
 1702 1024 1628 1016.5 1570 1001.5 c 0
 1512 986.5 1466.33300781 965.5 1433 938.5 c 0
 1399.66699219 911.5 1376.5 879 1363.5 841 c 0
 1350.5 803 1344 760.666992188 1344 714 c 2
 1344 0 l 1
EndSplineSet
Validated: 524289
EndChar

StartChar: n
Encoding: 110 110 81
Width: 1601
GlyphClass: 2
Flags: W
LayerCount: 2
Back
Fore
SplineSet
1280 0 m 1
 1280 640.000976562 l 2
 1280 711.333984375 1274.66699219 771.500976562 1264 820.500976562 c 0
 1253.33300781 869.500976562 1232 909.000976562 1200 939.000976562 c 0
 1168 969.000976562 1122.66699219 990.66796875 1064 1004.00097656 c 0
 1005.33300781 1017.33398438 928 1024.00097656 832 1024.00097656 c 0
 728 1024.00097656 642.833007812 1016.33398438 576.5 1001.00097656 c 0
 510.166992188 985.66796875 458 964.000976562 420 936.000976562 c 0
 382 908.000976562 355.833007812 874.333984375 341.5 835.000976562 c 0
 327.166992188 795.66796875 320 752.000976562 320 704.000976562 c 2
 320 0.0009765625 l 1
 128 0.0009765625 l 1
 128 1152.00097656 l 1
 320 1152.00097656 l 1
 320 960.000976562 l 1
 334 992.66796875 354 1020.83496094 380 1044.50195312 c 0
 406 1068.16894531 435.333007812 1088.3359375 468 1105.00292969 c 0
 500.666992188 1121.66992188 536 1135.16992188 574 1145.50292969 c 0
 612 1155.8359375 650 1163.8359375 688 1169.50292969 c 0
 726 1175.16992188 762.833007812 1179.00292969 798.5 1181.00292969 c 0
 834.166992188 1183.00292969 866.666992188 1184.00292969 896 1184.00292969 c 0
 981.333007812 1184.00292969 1054.83300781 1178.66992188 1116.5 1168.00292969 c 0
 1178.16699219 1157.3359375 1230.5 1141.66894531 1273.5 1121.00195312 c 0
 1316.5 1100.33496094 1351 1074.66796875 1377 1044.00097656 c 0
 1403 1013.33398438 1423.16699219 977.833984375 1437.5 937.500976562 c 0
 1451.83300781 897.16796875 1461.33300781 852.16796875 1466 802.500976562 c 0
 1470.66699219 752.833984375 1473 698.666992188 1473 640 c 2
 1472 0 l 1
 1280 0 l 1
EndSplineSet
Validated: 524289
EndChar

StartChar: o
Encoding: 111 111 82
Width: 1600
GlyphClass: 2
Flags: W
LayerCount: 2
Back
Fore
SplineSet
96 584 m 0
 96 702 108.666992188 799.666992188 134 877 c 0
 159.333007812 954.333007812 200 1015.66601562 256 1060.99902344 c 0
 312 1106.33203125 384.666992188 1138.16503906 474 1156.49804688 c 0
 563.333007812 1174.83105469 672 1183.99804688 800 1183.99804688 c 0
 928 1183.99804688 1036.66699219 1174.83105469 1126 1156.49804688 c 0
 1215.33300781 1138.16503906 1288 1106.33203125 1344 1060.99902344 c 0
 1400 1015.66601562 1440.66699219 954.333007812 1466 877 c 0
 1491.33300781 799.666992188 1504 702 1504 584 c 0
 1504 466 1491.33300781 368 1466 290 c 0
 1440.66699219 212 1400 150 1344 104 c 0
 1288 58 1215.33300781 25.5 1126 6.5 c 0
 1036.66699219 -12.5 928 -22 800 -22 c 0
 672 -22 563.333007812 -12.5 474 6.5 c 0
 384.666992188 25.5 312 58 256 104 c 0
 200 150 159.333007812 212 134 290 c 0
 108.666992188 368 96 466 96 584 c 0
288 584 m 0
 288 520 290.333984375 464.333007812 295.000976562 417 c 0
 299.66796875 369.666992188 308.500976562 329 321.500976562 295 c 0
 334.500976562 261 352.66796875 233.333007812 376.000976562 212 c 0
 399.333984375 190.666992188 430.000976562 173.666992188 468.000976562 161 c 0
 506.000976562 148.333007812 552.16796875 139.666015625 606.500976562 134.999023438 c 0
 660.833984375 130.33203125 725.333984375 127.999023438 800.000976562 127.999023438 c 0
 864.000976562 127.999023438 921.16796875 129.499023438 971.500976562 132.499023438 c 0
 1021.83398438 135.499023438 1065.83398438 142.33203125 1103.50097656 152.999023438 c 0
 1141.16796875 163.666015625 1173.33496094 178.833007812 1200.00195312 198.5 c 0
 1226.66894531 218.166992188 1248.16894531 245 1264.50195312 279 c 0
 1280.83496094 313 1292.83496094 354.833007812 1300.50195312 404.5 c 0
 1308.16894531 454.166992188 1312.00195312 514 1312.00195312 584 c 0
 1312.00195312 652.666992188 1308.16894531 711.166992188 1300.50195312 759.5 c 0
 1292.83496094 807.833007812 1280.83496094 848.333007812 1264.50195312 881 c 0
 1248.16894531 913.666992188 1226.66894531 939.5 1200.00195312 958.5 c 0
 1173.33496094 977.5 1141.16796875 991.833007812 1103.50097656 1001.5 c 0
 1065.83398438 1011.16699219 1021.83398438 1017.33398438 971.500976562 1020.00097656 c 0
 921.16796875 1022.66796875 864.000976562 1024.00097656 800.000976562 1024.00097656 c 0
 736.000976562 1024.00097656 678.833984375 1022.66796875 628.500976562 1020.00097656 c 0
 578.16796875 1017.33398438 534.16796875 1011.16699219 496.500976562 1001.5 c 0
 458.833984375 991.833007812 426.666992188 977.5 400 958.5 c 0
 373.333007812 939.5 351.833007812 913.666992188 335.5 881 c 0
 319.166992188 848.333007812 307.166992188 807.833007812 299.5 759.5 c 0
 291.833007812 711.166992188 288 652.666992188 288 584 c 0
EndSplineSet
Validated: 524289
EndChar

StartChar: p
Encoding: 112 112 83
Width: 1632
GlyphClass: 2
Flags: W
LayerCount: 2
Back
Fore
SplineSet
832 1184 m 0
 960 1184 1068.66699219 1174.33496094 1158 1155.00195312 c 0
 1247.33300781 1135.66894531 1320 1102.66894531 1376 1056.00195312 c 0
 1432 1009.33496094 1472.66699219 946.834960938 1498 868.501953125 c 0
 1523.33300781 790.168945312 1536 692.001953125 1536 574.001953125 c 0
 1536 458.001953125 1523.33300781 361.668945312 1498 285.001953125 c 0
 1472.66699219 208.334960938 1432 147.334960938 1376 102.001953125 c 0
 1320 56.6689453125 1247.33300781 24.6689453125 1158 6.001953125 c 0
 1068.66699219 -12.6650390625 960 -21.998046875 832 -21.998046875 c 0
 740.666992188 -21.998046875 664.333984375 -16.998046875 603.000976562 -6.998046875 c 0
 541.66796875 3.001953125 491.500976562 15.501953125 452.500976562 30.501953125 c 0
 413.500976562 45.501953125 383.833984375 61.6689453125 363.500976562 79.001953125 c 0
 343.16796875 96.3349609375 328.66796875 112.66796875 320.000976562 128.000976562 c 1
 320.000976562 -383.999023438 l 1
 128.000976562 -383.999023438 l 1
 128.000976562 1152.00097656 l 1
 320.000976562 1152.00097656 l 1
 320.000976562 1045.00097656 l 1
 328.66796875 1058.33398438 343.16796875 1073.16699219 363.500976562 1089.5 c 0
 383.833984375 1105.83300781 413.500976562 1121 452.500976562 1135 c 0
 491.500976562 1149 541.66796875 1160.66699219 603.000976562 1170 c 0
 664.333984375 1179.33300781 740.666992188 1184 832 1184 c 0
832 1024.00195312 m 0
 768 1024.00195312 711 1022.33300781 661 1019 c 0
 611 1015.66699219 567 1008.83398438 529 998.500976562 c 0
 491 988.16796875 458.833007812 973.16796875 432.5 953.500976562 c 0
 406.166992188 933.833984375 384.666992188 907.500976562 368 874.500976562 c 0
 351.333007812 841.500976562 339.166015625 800.66796875 331.499023438 752.000976562 c 0
 323.83203125 703.333984375 319.999023438 645.000976562 319.999023438 577.000976562 c 0
 319.999023438 508.333984375 323.83203125 449.333984375 331.499023438 400.000976562 c 0
 339.166015625 350.66796875 351.333007812 309.500976562 368 276.500976562 c 0
 384.666992188 243.500976562 406.166992188 217.16796875 432.5 197.500976562 c 0
 458.833007812 177.833984375 491 162.833984375 529 152.500976562 c 0
 567 142.16796875 611 135.500976562 661 132.500976562 c 0
 711 129.500976562 768 128.000976562 832 128.000976562 c 0
 906.666992188 128.000976562 971.166992188 130.333984375 1025.5 135.000976562 c 0
 1079.83300781 139.66796875 1126 148.000976562 1164 160.000976562 c 0
 1202 172.000976562 1232.83300781 188.66796875 1256.5 210.000976562 c 0
 1280.16699219 231.333984375 1298.5 258.500976562 1311.5 291.500976562 c 0
 1324.5 324.500976562 1333.16699219 364.16796875 1337.5 410.500976562 c 0
 1341.83300781 456.833984375 1344 511.333984375 1344 574.000976562 c 0
 1344 636.66796875 1341.83300781 691.334960938 1337.5 738.001953125 c 0
 1333.16699219 784.668945312 1324.5 824.668945312 1311.5 858.001953125 c 0
 1298.5 891.334960938 1280.16699219 918.66796875 1256.5 940.000976562 c 0
 1232.83300781 961.333984375 1202 978.333984375 1164 991.000976562 c 0
 1126 1003.66796875 1079.83300781 1012.33496094 1025.5 1017.00195312 c 0
 971.166992188 1021.66894531 906.666992188 1024.00195312 832 1024.00195312 c 0
EndSplineSet
Validated: 524289
EndChar

StartChar: q
Encoding: 113 113 84
Width: 1632
GlyphClass: 2
Flags: W
LayerCount: 2
Back
Fore
SplineSet
800 1184 m 0
 890.666992188 1184 966.666992188 1179.00097656 1028 1169.00097656 c 0
 1089.33300781 1159.00097656 1139.5 1146.50097656 1178.5 1131.50097656 c 0
 1217.5 1116.50097656 1247.16699219 1100.33398438 1267.5 1083.00097656 c 0
 1287.83300781 1065.66796875 1302.66601562 1049.66796875 1311.99902344 1035.00097656 c 1
 1311.99902344 1152.00097656 l 1
 1503.99902344 1152.00097656 l 1
 1503.99902344 -383.999023438 l 1
 1311.99902344 -383.999023438 l 1
 1311.99902344 128.000976562 l 1
 1302.66601562 112.66796875 1287.83300781 96.3349609375 1267.5 79.001953125 c 0
 1247.16699219 61.6689453125 1217.5 45.501953125 1178.5 30.501953125 c 0
 1139.5 15.501953125 1089.33300781 3.001953125 1028 -6.998046875 c 0
 966.666992188 -16.998046875 890.666992188 -21.998046875 800 -21.998046875 c 0
 672 -21.998046875 563.333007812 -12.498046875 474 6.501953125 c 0
 384.666992188 25.501953125 312 58.001953125 256 104.001953125 c 0
 200 150.001953125 159.333007812 212.001953125 134 290.001953125 c 0
 108.666992188 368.001953125 96 466.001953125 96 584.001953125 c 0
 96 702.001953125 108.666992188 799.668945312 134 877.001953125 c 0
 159.333007812 954.334960938 200 1015.66796875 256 1061.00097656 c 0
 312 1106.33398438 384.666992188 1138.16699219 474 1156.5 c 0
 563.333007812 1174.83300781 672 1184 800 1184 c 0
800 1024.00097656 m 0
 725.333007812 1024.00097656 660.833007812 1022.00292969 606.5 1018.00292969 c 0
 552.166992188 1014.00292969 506 1006.3359375 468 995.002929688 c 0
 430 983.669921875 399.166992188 968.002929688 375.5 948.002929688 c 0
 351.833007812 928.002929688 333.5 901.669921875 320.5 869.002929688 c 0
 307.5 836.3359375 298.833007812 796.668945312 294.5 750.001953125 c 0
 290.166992188 703.334960938 288 648.001953125 288 584.001953125 c 0
 288 520.001953125 290.166992188 464.334960938 294.5 417.001953125 c 0
 298.833007812 369.668945312 307.5 329.001953125 320.5 295.001953125 c 0
 333.5 261.001953125 351.833007812 233.334960938 375.5 212.001953125 c 0
 399.166992188 190.668945312 430 173.668945312 468 161.001953125 c 0
 506 148.334960938 552.166992188 139.66796875 606.5 135.000976562 c 0
 660.833007812 130.333984375 725.333007812 128.000976562 800 128.000976562 c 0
 864 128.000976562 921 129.500976562 971 132.500976562 c 0
 1021 135.500976562 1065 142.333984375 1103 153.000976562 c 0
 1141 163.66796875 1173.16699219 179.000976562 1199.5 199.000976562 c 0
 1225.83300781 219.000976562 1247.33300781 246.000976562 1264 280.000976562 c 0
 1280.66699219 314.000976562 1292.83398438 356.000976562 1300.50097656 406.000976562 c 0
 1308.16796875 456.000976562 1312.00097656 516.333984375 1312.00097656 587.000976562 c 0
 1312.00097656 656.333984375 1308.16796875 715.333984375 1300.50097656 764.000976562 c 0
 1292.83398438 812.66796875 1280.66699219 853.16796875 1264 885.500976562 c 0
 1247.33300781 917.833984375 1225.83300781 943.333984375 1199.5 962.000976562 c 0
 1173.16699219 980.66796875 1141 994.500976562 1103 1003.50097656 c 0
 1065 1012.50097656 1021 1018.16796875 971 1020.50097656 c 0
 921 1022.83398438 864 1024.00097656 800 1024.00097656 c 0
EndSplineSet
Validated: 524289
EndChar

StartChar: r
Encoding: 114 114 85
Width: 1280
GlyphClass: 2
Flags: W
LayerCount: 2
Back
Fore
SplineSet
1120 777 m 1
 1120 825 1116.50097656 864.83203125 1109.50097656 896.499023438 c 0
 1102.50097656 928.166015625 1086.00097656 953.499023438 1060.00097656 972.499023438 c 0
 1034.00097656 991.499023438 995.500976562 1004.83203125 944.500976562 1012.49902344 c 0
 893.500976562 1020.16601562 824.000976562 1023.99902344 736.000976562 1023.99902344 c 0
 650.000976562 1023.99902344 580.000976562 1016.49902344 526.000976562 1001.49902344 c 0
 472.000976562 986.499023438 429.66796875 965.33203125 399.000976562 937.999023438 c 0
 368.333984375 910.666015625 347.500976562 877.999023438 336.500976562 839.999023438 c 0
 325.500976562 801.999023438 320.000976562 759.666015625 320.000976562 712.999023438 c 2
 320.000976562 -0.0009765625 l 1
 128.000976562 -0.0009765625 l 1
 128.000976562 1151.99902344 l 1
 320.000976562 1151.99902344 l 1
 320.000976562 968.999023438 l 1
 326.66796875 989.666015625 339.000976562 1012.49902344 357.000976562 1037.49902344 c 0
 375.000976562 1062.49902344 402.333984375 1085.83203125 439.000976562 1107.49902344 c 0
 475.66796875 1129.16601562 523.16796875 1147.33300781 581.500976562 1162 c 0
 639.833984375 1176.66699219 712.666992188 1184 800 1184 c 0
 900 1184 981.333007812 1175.16699219 1044 1157.5 c 0
 1106.66699219 1139.83300781 1155.5 1113.83300781 1190.5 1079.5 c 0
 1225.5 1045.16699219 1249.16699219 1002.66699219 1261.5 952 c 0
 1273.83300781 901.333007812 1280 843 1280 777 c 1
 1120 777 l 1
EndSplineSet
Validated: 524289
EndChar

StartChar: s
Encoding: 115 115 86
Width: 1600
GlyphClass: 2
Flags: W
LayerCount: 2
Back
Fore
SplineSet
800 525 m 0
 874.666992188 525 938.331054688 523.833007812 990.998046875 521.5 c 0
 1043.66503906 519.166992188 1087.83203125 515.166992188 1123.49902344 509.5 c 0
 1159.16601562 503.833007812 1187.33300781 496.666015625 1208 487.999023438 c 0
 1228.66699219 479.33203125 1244.33398438 466.499023438 1255.00097656 449.499023438 c 0
 1265.66796875 432.499023438 1272.50097656 415.499023438 1275.50097656 398.499023438 c 0
 1278.50097656 381.499023438 1280.00097656 361.999023438 1280.00097656 339.999023438 c 0
 1280.00097656 315.999023438 1278.50097656 294.166015625 1275.50097656 274.499023438 c 0
 1272.50097656 254.83203125 1265.33398438 236.999023438 1254.00097656 220.999023438 c 0
 1242.66796875 204.999023438 1226.00097656 191.33203125 1204.00097656 179.999023438 c 0
 1182.00097656 168.666015625 1152.00097656 158.999023438 1114.00097656 150.999023438 c 0
 1076.00097656 142.999023438 1028.83398438 137.166015625 972.500976562 133.499023438 c 0
 916.16796875 129.83203125 848.000976562 127.999023438 768.000976562 127.999023438 c 0
 680.000976562 127.999023438 607.16796875 130.499023438 549.500976562 135.499023438 c 0
 491.833984375 140.499023438 446.000976562 149.999023438 412.000976562 163.999023438 c 0
 378.000976562 177.999023438 354.16796875 197.499023438 340.500976562 222.499023438 c 0
 326.833984375 247.499023438 320.000976562 279.999023438 320.000976562 319.999023438 c 1
 128.000976562 319.999023438 l 1
 128.000976562 259.33203125 138.833984375 207.999023438 160.500976562 165.999023438 c 0
 182.16796875 123.999023438 218.000976562 89.83203125 268.000976562 63.4990234375 c 0
 318.000976562 37.166015625 383.833984375 17.9990234375 465.500976562 5.9990234375 c 0
 547.16796875 -6.0009765625 648.000976562 -12.0009765625 768.000976562 -12.0009765625 c 0
 864.000976562 -12.0009765625 948.16796875 -9.16796875 1020.50097656 -3.5009765625 c 0
 1092.83398438 2.166015625 1155.00097656 10.8330078125 1207.00097656 22.5 c 0
 1259.00097656 34.1669921875 1302.16796875 49.5 1336.50097656 68.5 c 0
 1370.83398438 87.5 1398.00097656 110.166992188 1418.00097656 136.5 c 0
 1438.00097656 162.833007812 1452.00097656 193.166015625 1460.00097656 227.499023438 c 0
 1468.00097656 261.83203125 1472.00097656 300.665039062 1472.00097656 343.998046875 c 0
 1472.00097656 387.331054688 1468.00097656 425.498046875 1460.00097656 458.498046875 c 0
 1452.00097656 491.498046875 1438.16796875 520.165039062 1418.50097656 544.498046875 c 0
 1398.83398438 568.831054688 1372.66699219 591.331054688 1340 611.998046875 c 0
 1307.33300781 632.665039062 1266 647.998046875 1216 657.998046875 c 0
 1166 667.998046875 1106.83300781 674.998046875 1038.5 678.998046875 c 0
 970.166992188 682.998046875 890.666992188 684.998046875 800 684.998046875 c 0
 725.333007812 684.998046875 661.666015625 685.165039062 608.999023438 685.498046875 c 0
 556.33203125 685.831054688 512.165039062 687.831054688 476.498046875 691.498046875 c 0
 440.831054688 695.165039062 412.6640625 700.665039062 391.997070312 707.998046875 c 0
 371.330078125 715.331054688 355.663085938 725.998046875 344.99609375 739.998046875 c 0
 334.329101562 753.998046875 327.49609375 771.831054688 324.49609375 793.498046875 c 0
 321.49609375 815.165039062 319.99609375 837.33203125 319.99609375 859.999023438 c 0
 319.99609375 898.666015625 328.663085938 928.999023438 345.99609375 950.999023438 c 0
 363.329101562 972.999023438 391.99609375 989.33203125 431.99609375 999.999023438 c 0
 471.99609375 1010.66601562 524.663085938 1017.33300781 589.99609375 1020 c 0
 655.329101562 1022.66699219 735.99609375 1024 831.99609375 1024 c 0
 919.99609375 1024 992.829101562 1021.5 1050.49609375 1016.5 c 0
 1108.16308594 1011.5 1153.99609375 1002.5 1187.99609375 989.5 c 0
 1221.99609375 976.5 1245.82910156 958.666992188 1259.49609375 936 c 0
 1273.16308594 913.333007812 1279.99609375 884 1279.99609375 848 c 1
 1471.99609375 848 l 1
 1471.99609375 906 1462.32910156 956 1442.99609375 998 c 0
 1423.66308594 1040 1389.83007812 1074.83300781 1341.49707031 1102.5 c 0
 1293.1640625 1130.16699219 1227.83105469 1150.66699219 1145.49804688 1164 c 0
 1063.16503906 1177.33300781 958.665039062 1184 831.998046875 1184 c 0
 703.998046875 1184 595.331054688 1178.33300781 505.998046875 1167 c 0
 416.665039062 1155.66699219 343.998046875 1137.16699219 287.998046875 1111.5 c 0
 231.998046875 1085.83300781 191.331054688 1052.5 165.998046875 1011.5 c 0
 140.665039062 970.5 127.998046875 920 127.998046875 860 c 0
 127.998046875 816 131.998046875 775.166992188 139.998046875 737.5 c 0
 147.998046875 699.833007812 161.665039062 668.166015625 180.998046875 642.499023438 c 0
 200.331054688 616.83203125 226.498046875 596.33203125 259.498046875 580.999023438 c 0
 292.498046875 565.666015625 333.831054688 553.833007812 383.498046875 545.5 c 0
 433.165039062 537.166992188 492.33203125 531.666992188 560.999023438 529 c 0
 629.666015625 526.333007812 709.333007812 525 800 525 c 0
EndSplineSet
Validated: 524297
EndChar

StartChar: t
Encoding: 116 116 87
Width: 1376
GlyphClass: 2
Flags: W
LayerCount: 2
Back
Fore
SplineSet
1248 512 m 1
 1248 414 1239.99707031 332.166992188 1223.99707031 266.5 c 0
 1207.99707031 200.833007812 1181.1640625 148.333007812 1143.49707031 109 c 0
 1105.83007812 69.6669921875 1056.33007812 41.6669921875 994.997070312 25 c 0
 933.6640625 8.3330078125 857.997070312 0 767.997070312 0 c 0
 680.6640625 0 607.331054688 6.6669921875 547.998046875 20 c 0
 488.665039062 33.3330078125 440.665039062 56 403.998046875 88 c 0
 367.331054688 120 340.998046875 162.666992188 324.998046875 216 c 0
 308.998046875 269.333007812 300.998046875 336 300.998046875 416 c 2
 300.998046875 994 l 1
 63.998046875 994 l 1
 63.998046875 1152 l 1
 300.998046875 1152 l 1
 300.998046875 1467 l 1
 492.998046875 1467 l 1
 492.998046875 1152 l 1
 1215.99804688 1152 l 1
 1215.99804688 994 l 1
 492.998046875 994 l 1
 492.998046875 416 l 2
 492.998046875 352 497.831054688 302.666992188 507.498046875 268 c 0
 517.165039062 233.333007812 532.665039062 208 553.998046875 192 c 0
 575.331054688 176 603.498046875 166.666992188 638.498046875 164 c 0
 673.498046875 161.333007812 716.331054688 160 766.998046875 160 c 0
 806.998046875 160 842.831054688 160.666992188 874.498046875 162 c 0
 906.165039062 163.333007812 933.83203125 167.5 957.499023438 174.5 c 0
 981.166015625 181.5 1001.33300781 192.166992188 1018 206.5 c 0
 1034.66699219 220.833007812 1048.16699219 241 1058.5 267 c 0
 1068.83300781 293 1076.33300781 325.833007812 1081 365.5 c 0
 1085.66699219 405.166992188 1088 454 1088 512 c 1
 1248 512 l 1
EndSplineSet
Validated: 524289
EndChar

StartChar: u
Encoding: 117 117 88
Width: 1601
GlyphClass: 2
Flags: W
LayerCount: 2
Back
Fore
SplineSet
321 1152 m 1
 321 512 l 2
 321 440.666992188 326.333007812 380.5 337 331.5 c 0
 347.666992188 282.5 369 243 401 213 c 0
 433 183 478.333007812 161.333007812 537 148 c 0
 595.666992188 134.666992188 673 128 769 128 c 0
 873 128 958.166992188 135.666992188 1024.5 151 c 0
 1090.83300781 166.333007812 1143 188 1181 216 c 0
 1219 244 1245.16699219 277.666992188 1259.5 317 c 0
 1273.83300781 356.333007812 1281 400 1281 448 c 2
 1281 1152 l 1
 1473 1152 l 1
 1473 0 l 1
 1281 0 l 1
 1281 192 l 1
 1271.66699219 171.333007812 1256 148.5 1234 123.5 c 0
 1212 98.5 1179 75.3330078125 1135 54 c 0
 1091 32.6669921875 1034.16699219 14.6669921875 964.5 -0 c 0
 894.833007812 -14.6669921875 808.333007812 -22 705 -22 c 0
 619 -22 545.166992188 -16.8330078125 483.5 -6.5 c 0
 421.833007812 3.8330078125 369.5 19.166015625 326.5 39.4990234375 c 0
 283.5 59.83203125 249 84.9990234375 223 114.999023438 c 0
 197 144.999023438 177 179.83203125 163 219.499023438 c 0
 149 259.166015625 139.666992188 303.333007812 135 352 c 0
 130.333007812 400.666992188 128 454 128 512 c 2
 129 1152 l 1
 321 1152 l 1
EndSplineSet
Validated: 524289
EndChar

StartChar: v
Encoding: 118 118 89
Width: 1600
GlyphClass: 2
Flags: W
LayerCount: 2
Back
Fore
SplineSet
672 0 m 1
 928 0 l 1
 1536 1152 l 1
 1312 1152 l 1
 800 128 l 1
 288 1152 l 1
 64 1152 l 1
 672 0 l 1
EndSplineSet
Validated: 9
EndChar

StartChar: w
Encoding: 119 119 90
Width: 2240
GlyphClass: 2
Flags: W
LayerCount: 2
Back
Fore
SplineSet
2176 1152 m 1
 1952 1152 l 1
 1596 144 l 1
 1216 1152 l 1
 1024 1152 l 1
 640 144 l 1
 288 1152 l 1
 64 1152 l 1
 512 0 l 1
 768 0 l 1
 1120 944 l 1
 1472 0 l 1
 1728 0 l 1
 2176 1152 l 1
EndSplineSet
Validated: 9
EndChar

StartChar: x
Encoding: 120 120 91
Width: 1628
GlyphClass: 2
Flags: W
LayerCount: 2
Back
Fore
SplineSet
1276 0 m 1
 1532 0 l 1
 942 587 l 1
 1504 1152 l 1
 1248 1152 l 1
 819 707 l 1
 380 1152 l 1
 124 1152 l 1
 686 586 l 1
 96 0 l 1
 352 0 l 1
 814 482 l 1
 1276 0 l 1
EndSplineSet
Validated: 9
EndChar

StartChar: y
Encoding: 121 121 92
Width: 1568
GlyphClass: 2
Flags: W
LayerCount: 2
Back
Fore
SplineSet
672 0 m 1
 735.998046875 -0.001953125 l 1
 725.331054688 -21.3349609375 715.831054688 -41.66796875 707.498046875 -61.0009765625 c 0
 699.165039062 -80.333984375 688.998046875 -98.333984375 676.998046875 -115.000976562 c 0
 664.998046875 -131.66796875 649.998046875 -146.66796875 631.998046875 -160.000976562 c 0
 613.998046875 -173.333984375 590.165039062 -184.833984375 560.498046875 -194.500976562 c 0
 530.831054688 -204.16796875 493.998046875 -211.500976562 449.998046875 -216.500976562 c 0
 405.998046875 -221.500976562 351.998046875 -224.000976562 287.998046875 -224.000976562 c 1
 287.998046875 -384.000976562 l 1
 362.665039062 -384.000976562 427.33203125 -380.500976562 481.999023438 -373.500976562 c 0
 536.666015625 -366.500976562 583.833007812 -356.500976562 623.5 -343.500976562 c 0
 663.166992188 -330.500976562 696.666992188 -314.66796875 724 -296.000976562 c 0
 751.333007812 -277.333984375 775 -256.166992188 795 -232.5 c 0
 815 -208.833007812 832.833007812 -182.833007812 848.5 -154.5 c 0
 864.166992188 -126.166992188 880 -96 896 -64 c 2
 928 0 l 1
 1504 1152 l 1
 1280 1152 l 1
 800 128 l 1
 288 1152 l 1
 64 1152 l 1
 672 0 l 1
EndSplineSet
Validated: 524297
EndChar

StartChar: z
Encoding: 122 122 93
Width: 1472
GlyphClass: 2
Flags: W
LayerCount: 2
Back
Fore
SplineSet
192 1152 m 1
 192 1011 l 1
 1104 1011 l 1
 128 160 l 1
 128 0 l 1
 1344 0 l 1
 1344 143 l 1
 382 143 l 1
 1344 992 l 1
 1344 1152 l 1
 192 1152 l 1
EndSplineSet
Validated: 9
EndChar

StartChar: braceleft
Encoding: 123 123 94
Width: 960
GlyphClass: 2
Flags: W
LayerCount: 2
Back
Fore
SplineSet
320 536 m 0
 320 492 320.833984375 446.833984375 322.500976562 400.500976562 c 0
 324.16796875 354.16796875 329.66796875 308.66796875 339.000976562 264.000976562 c 0
 348.333984375 219.333984375 363.333984375 177.166992188 384.000976562 137.5 c 0
 404.66796875 97.8330078125 434.000976562 63 472.000976562 33 c 0
 510.000976562 3 558.16796875 -20.6669921875 616.500976562 -38 c 0
 674.833984375 -55.3330078125 746.666992188 -64 832 -64 c 1
 832 96 l 1
 778 96 732.666992188 100.5 696 109.5 c 0
 659.333007812 118.5 629.166015625 131.5 605.499023438 148.5 c 0
 581.83203125 165.5 563.665039062 186.666992188 550.998046875 212 c 0
 538.331054688 237.333007812 529.1640625 266.333007812 523.497070312 299 c 0
 517.830078125 331.666992188 514.497070312 367.833984375 513.497070312 407.500976562 c 0
 512.497070312 447.16796875 511.997070312 490.000976562 511.997070312 536.000976562 c 0
 511.997070312 555.333984375 511.330078125 575.333984375 509.997070312 596.000976562 c 0
 508.6640625 616.66796875 503.997070312 637.000976562 495.997070312 657.000976562 c 0
 487.997070312 677.000976562 475.330078125 696.500976562 457.997070312 715.500976562 c 0
 440.6640625 734.500976562 415.997070312 752.000976562 383.997070312 768.000976562 c 1
 415.997070312 784.000976562 440.6640625 801.500976562 457.997070312 820.500976562 c 0
 475.330078125 839.500976562 487.997070312 859.000976562 495.997070312 879.000976562 c 0
 503.997070312 899.000976562 508.6640625 919.333984375 509.997070312 940.000976562 c 0
 511.330078125 960.66796875 511.997070312 980.66796875 511.997070312 1000.00097656 c 0
 511.997070312 1046.00097656 512.330078125 1088.83398438 512.997070312 1128.50097656 c 0
 513.6640625 1168.16796875 516.997070312 1204.33496094 522.997070312 1237.00195312 c 0
 528.997070312 1269.66894531 538.330078125 1298.66894531 550.997070312 1324.00195312 c 0
 563.6640625 1349.33496094 581.831054688 1370.50195312 605.498046875 1387.50195312 c 0
 629.165039062 1404.50195312 659.33203125 1417.50195312 695.999023438 1426.50195312 c 0
 732.666015625 1435.50195312 777.999023438 1440.00195312 831.999023438 1440.00195312 c 1
 831.999023438 1600.00195312 l 1
 746.666015625 1600.00195312 674.833007812 1591.33496094 616.5 1574.00195312 c 0
 558.166992188 1556.66894531 510 1533.00195312 472 1503.00195312 c 0
 434 1473.00195312 404.666992188 1438.16894531 384 1398.50195312 c 0
 363.333007812 1358.83496094 348.333007812 1316.66796875 339 1272.00097656 c 0
 329.666992188 1227.33398438 324.166992188 1181.66699219 322.5 1135 c 0
 320.833007812 1088.33300781 320 1043.33300781 320 1000 c 0
 320 976 319 954.5 317 935.5 c 0
 315 916.5 308 900.5 296 887.5 c 0
 284 874.5 265 864.666992188 239 858 c 0
 213 851.333007812 176 848 128 848 c 1
 128 688 l 1
 176 688 213 684.833007812 239 678.5 c 0
 265 672.166992188 284 662.666992188 296 650 c 0
 308 637.333007812 315 621.5 317 602.5 c 0
 319 583.5 320 561.333007812 320 536 c 0
EndSplineSet
Validated: 524297
EndChar

StartChar: bar
Encoding: 124 124 95
Width: 448
GlyphClass: 2
Flags: W
LayerCount: 2
Back
Fore
SplineSet
128 -128 m 1
 320 -128 l 1
 320 1600 l 1
 128 1600 l 1
 128 -128 l 1
EndSplineSet
Validated: 9
EndChar

StartChar: braceright
Encoding: 125 125 96
Width: 960
GlyphClass: 2
Flags: W
LayerCount: 2
Back
Fore
SplineSet
640 536 m 0
 640 561.333007812 641 583.498046875 643 602.498046875 c 0
 645 621.498046875 652 637.331054688 664 649.998046875 c 0
 676 662.665039062 695 672.165039062 721 678.498046875 c 0
 747 684.831054688 784 687.998046875 832 687.998046875 c 1
 832 847.998046875 l 1
 784 847.998046875 747 851.331054688 721 857.998046875 c 0
 695 864.665039062 676 874.498046875 664 887.498046875 c 0
 652 900.498046875 645 916.498046875 643 935.498046875 c 0
 641 954.498046875 640 975.998046875 640 999.998046875 c 0
 640 1043.33105469 639 1088.33105469 637 1134.99804688 c 0
 635 1181.66503906 629.5 1227.33203125 620.5 1271.99902344 c 0
 611.5 1316.66601562 596.666992188 1358.83300781 576 1398.5 c 0
 555.333007812 1438.16699219 526 1473 488 1503 c 0
 450 1533 401.833007812 1556.66699219 343.5 1574 c 0
 285.166992188 1591.33300781 213.333984375 1600 128.000976562 1600 c 1
 128.000976562 1440 l 1
 181.333984375 1440 226.500976562 1435.5 263.500976562 1426.5 c 0
 300.500976562 1417.5 330.833984375 1404.5 354.500976562 1387.5 c 0
 378.16796875 1370.5 396.334960938 1349.33300781 409.001953125 1324 c 0
 421.668945312 1298.66699219 430.8359375 1269.66699219 436.502929688 1237 c 0
 442.169921875 1204.33300781 445.502929688 1168.16601562 446.502929688 1128.49902344 c 0
 447.502929688 1088.83203125 448.002929688 1045.99902344 448.002929688 999.999023438 c 0
 448.002929688 980.666015625 448.669921875 960.666015625 450.002929688 939.999023438 c 0
 451.3359375 919.33203125 456.002929688 898.999023438 464.002929688 878.999023438 c 0
 472.002929688 858.999023438 484.669921875 839.499023438 502.002929688 820.499023438 c 0
 519.3359375 801.499023438 544.002929688 783.999023438 576.002929688 767.999023438 c 1
 544.002929688 751.999023438 519.3359375 734.499023438 502.002929688 715.499023438 c 0
 484.669921875 696.499023438 472.002929688 676.999023438 464.002929688 656.999023438 c 0
 456.002929688 636.999023438 451.3359375 616.666015625 450.002929688 595.999023438 c 0
 448.669921875 575.33203125 448.002929688 555.33203125 448.002929688 535.999023438 c 0
 448.002929688 489.999023438 447.502929688 447.166015625 446.502929688 407.499023438 c 0
 445.502929688 367.83203125 442.169921875 331.665039062 436.502929688 298.998046875 c 0
 430.8359375 266.331054688 421.668945312 237.331054688 409.001953125 211.998046875 c 0
 396.334960938 186.665039062 378.16796875 165.498046875 354.500976562 148.498046875 c 0
 330.833984375 131.498046875 300.500976562 118.498046875 263.500976562 109.498046875 c 0
 226.500976562 100.498046875 181.333984375 95.998046875 128.000976562 95.998046875 c 1
 128.000976562 -64.001953125 l 1
 213.333984375 -64.001953125 285.166992188 -55.3349609375 343.5 -38.001953125 c 0
 401.833007812 -20.6689453125 450 2.998046875 488 32.998046875 c 0
 526 62.998046875 555.333007812 97.8310546875 576 137.498046875 c 0
 596.666992188 177.165039062 611.666992188 219.33203125 621 263.999023438 c 0
 630.333007812 308.666015625 635.833007812 354.333007812 637.5 401 c 0
 639.166992188 447.666992188 640 492.666992188 640 536 c 0
EndSplineSet
Validated: 524297
EndChar

StartChar: asciitilde
Encoding: 126 126 97
Width: 1152
GlyphClass: 2
Flags: W
LayerCount: 2
Back
Fore
SplineSet
384 928 m 0
 414 928 441.833007812 922.997070312 467.5 912.997070312 c 2
 549 879.997070312 l 2
 577.666992188 867.997070312 609.333984375 856.997070312 644.000976562 846.997070312 c 0
 678.66796875 836.997070312 720.000976562 831.997070312 768.000976562 831.997070312 c 0
 792.000976562 831.997070312 818.833984375 836.1640625 848.500976562 844.497070312 c 0
 878.16796875 852.830078125 906.000976562 866.830078125 932.000976562 886.497070312 c 0
 958.000976562 906.1640625 979.833984375 932.331054688 997.500976562 964.998046875 c 0
 1015.16796875 997.665039062 1024.00097656 1038.66503906 1024.00097656 1087.99804688 c 1
 832.000976562 1087.99804688 l 1
 832.000976562 1067.99804688 830.66796875 1051.66503906 828.000976562 1038.99804688 c 0
 825.333984375 1026.33105469 821.333984375 1016.49804688 816.000976562 1009.49804688 c 0
 810.66796875 1002.49804688 804.000976562 997.831054688 796.000976562 995.498046875 c 0
 788.000976562 993.165039062 778.66796875 991.998046875 768.000976562 991.998046875 c 0
 738.000976562 991.998046875 710.16796875 996.998046875 684.500976562 1006.99804688 c 2
 603.000976562 1039.99804688 l 2
 574.333984375 1051.99804688 542.666992188 1062.99804688 508 1072.99804688 c 0
 473.333007812 1082.99804688 432 1087.99804688 384 1087.99804688 c 0
 360 1087.99804688 333.166992188 1084.16503906 303.5 1076.49804688 c 0
 273.833007812 1068.83105469 246 1055.49804688 220 1036.49804688 c 0
 194 1017.49804688 172.166992188 991.331054688 154.5 957.998046875 c 0
 136.833007812 924.665039062 128 882.665039062 128 831.998046875 c 1
 320 831.998046875 l 1
 320 852.665039062 321.333007812 869.33203125 324 881.999023438 c 0
 326.666992188 894.666015625 330.666992188 904.333007812 336 911 c 0
 341.333007812 917.666992188 348 922.166992188 356 924.5 c 0
 364 926.833007812 373.333007812 928 384 928 c 0
EndSplineSet
Validated: 524297
EndChar

StartChar: exclamdown
Encoding: 161 161 99
Width: 448
GlyphClass: 2
Flags: W
LayerCount: 2
Back
Fore
SplineSet
128 0.09375 m 1
 320 0.09375 l 1
 272 1088.02734375 l 1
 176 1088.02734375 l 1
 128 0.09375 l 1
320 1536 m 1
 128 1536 l 1
 128 1344.01171875 l 1
 320 1344.01171875 l 1
 320 1536 l 1
EndSplineSet
Validated: 524297
EndChar

StartChar: cent
Encoding: 162 162 100
Width: 1601
GlyphClass: 2
Flags: W
LayerCount: 2
Back
Fore
SplineSet
128 544 m 0
 128 469.333007812 132 403.336914062 140 346.00390625 c 0
 148 288.670898438 162.166992188 238.670898438 182.5 196.00390625 c 0
 202.833007812 153.336914062 230.166015625 117.336914062 264.499023438 88.00390625 c 0
 298.83203125 58.6708984375 342.165039062 35.1708984375 394.498046875 17.50390625 c 0
 446.831054688 -0.1630859375 508.998046875 -12.830078125 580.998046875 -20.4970703125 c 0
 652.998046875 -28.1640625 736.998046875 -31.9970703125 832.998046875 -31.9970703125 c 0
 960.998046875 -31.9970703125 1066.33105469 -23.830078125 1148.99804688 -7.4970703125 c 0
 1231.66503906 8.8359375 1296.99804688 34.0029296875 1344.99804688 68.0029296875 c 0
 1392.99804688 102.002929688 1426.33105469 145.169921875 1444.99804688 197.502929688 c 0
 1463.66503906 249.8359375 1472.99804688 312.002929688 1472.99804688 384.002929688 c 1
 1280.99804688 384.002929688 l 1
 1280.99804688 357.3359375 1280.33105469 332.502929688 1278.99804688 309.502929688 c 0
 1277.66503906 286.502929688 1272.83203125 265.502929688 1264.49902344 246.502929688 c 0
 1256.16601562 227.502929688 1242.99902344 210.669921875 1224.99902344 196.002929688 c 0
 1206.99902344 181.3359375 1181.33203125 169.002929688 1147.99902344 159.002929688 c 0
 1114.66601562 149.002929688 1072.49902344 141.3359375 1021.49902344 136.002929688 c 0
 970.499023438 130.669921875 907.666015625 128.002929688 832.999023438 128.002929688 c 0
 747.666015625 128.002929688 675.833007812 130.8359375 617.5 136.502929688 c 0
 559.166992188 142.169921875 511 151.502929688 473 164.502929688 c 0
 435 177.502929688 405.666992188 194.669921875 385 216.002929688 c 0
 364.333007812 237.3359375 349.333007812 263.3359375 340 294.002929688 c 0
 330.666992188 324.669921875 325.166992188 360.669921875 323.5 402.002929688 c 0
 321.833007812 443.3359375 321 490.668945312 321 544.001953125 c 0
 321 597.334960938 321.833007812 644.66796875 323.5 686.000976562 c 0
 325.166992188 727.333984375 330.666992188 763.333984375 340 794.000976562 c 0
 349.333007812 824.66796875 364.333007812 850.66796875 385 872.000976562 c 0
 405.666992188 893.333984375 435 910.500976562 473 923.500976562 c 0
 511 936.500976562 559.166992188 945.833984375 617.5 951.500976562 c 0
 675.833007812 957.16796875 747.666015625 960.000976562 832.999023438 960.000976562 c 0
 907.666015625 960.000976562 970.499023438 957.333984375 1021.49902344 952.000976562 c 0
 1072.49902344 946.66796875 1114.66601562 939.000976562 1147.99902344 929.000976562 c 0
 1181.33203125 919.000976562 1206.99902344 906.66796875 1224.99902344 892.000976562 c 0
 1242.99902344 877.333984375 1256.16601562 860.500976562 1264.49902344 841.500976562 c 0
 1272.83203125 822.500976562 1277.66503906 801.500976562 1278.99804688 778.500976562 c 0
 1280.33105469 755.500976562 1280.99804688 730.66796875 1280.99804688 704.000976562 c 1
 1472.99804688 704.000976562 l 1
 1472.99804688 776.000976562 1463.66503906 838.16796875 1444.99804688 890.500976562 c 0
 1426.33105469 942.833984375 1392.99804688 986.000976562 1344.99804688 1020.00097656 c 0
 1296.99804688 1054.00097656 1231.66503906 1079.16796875 1148.99804688 1095.50097656 c 0
 1066.33105469 1111.83398438 960.998046875 1120.00097656 832.998046875 1120.00097656 c 0
 736.998046875 1120.00097656 652.998046875 1116.16796875 580.998046875 1108.50097656 c 0
 508.998046875 1100.83398438 446.831054688 1088.16699219 394.498046875 1070.5 c 0
 342.165039062 1052.83300781 298.83203125 1029.33300781 264.499023438 1000 c 0
 230.166015625 970.666992188 202.833007812 934.666992188 182.5 892 c 0
 162.166992188 849.333007812 148 799.333007812 140 742 c 0
 132 684.666992188 128 618.666992188 128 544 c 0
EndSplineSet
Validated: 524297
EndChar

StartChar: sterling
Encoding: 163 163 101
Width: 1663
GlyphClass: 2
Flags: W
LayerCount: 2
Back
Fore
SplineSet
64 800 m 1
 256.00390625 800.00390625 l 1
 256.00390625 958.00390625 l 2
 256.00390625 1038.00390625 260.00390625 1108.67089844 268.00390625 1170.00390625 c 0
 276.00390625 1231.33691406 290.00390625 1284.66992188 310.00390625 1330.00292969 c 0
 330.00390625 1375.3359375 357.170898438 1413.16894531 391.50390625 1443.50195312 c 0
 425.836914062 1473.83496094 469.169921875 1498.33496094 521.502929688 1517.00195312 c 0
 573.8359375 1535.66894531 636.002929688 1549.00195312 708.002929688 1557.00195312 c 0
 780.002929688 1565.00195312 864.002929688 1569.00195312 960.002929688 1569.00195312 c 0
 1074.00292969 1569.00195312 1168.16992188 1561.16894531 1242.50292969 1545.50195312 c 0
 1316.8359375 1529.83496094 1375.66894531 1505.83496094 1419.00195312 1473.50195312 c 0
 1462.33496094 1441.16894531 1492.66796875 1400.16894531 1510.00097656 1350.50195312 c 0
 1527.33398438 1300.83496094 1536.00097656 1241.66796875 1536.00097656 1173.00097656 c 1
 1344.00097656 1173.00097656 l 1
 1344.00097656 1197.66796875 1343.33398438 1220.66796875 1342.00097656 1242.00097656 c 0
 1340.66796875 1263.33398438 1336.16796875 1282.66699219 1328.50097656 1300 c 0
 1320.83398438 1317.33300781 1309.16699219 1332.83300781 1293.5 1346.5 c 0
 1277.83300781 1360.16699219 1255.83300781 1371.66699219 1227.5 1381 c 0
 1199.16699219 1390.33300781 1163.16699219 1397.33300781 1119.5 1402 c 0
 1075.83300781 1406.66699219 1022.66601562 1409 959.999023438 1409 c 0
 874.666015625 1409 802.833007812 1406 744.5 1400 c 0
 686.166992188 1394 638 1384.16699219 600 1370.5 c 0
 562 1356.83300781 532.666992188 1338.5 512 1315.5 c 0
 491.333007812 1292.5 476.333007812 1264.33300781 467 1231 c 0
 457.666992188 1197.66699219 452.166992188 1158.5 450.5 1113.5 c 0
 448.833007812 1068.5 448 1016.66699219 448 958 c 2
 448 800 l 1
 1280 800 l 1
 1280 640 l 1
 448 640 l 1
 448 160 l 1
 1472 160 l 1
 1472 0 l 1
 256 0 l 1
 256 640 l 1
 64 640 l 1
 64 800 l 1
EndSplineSet
Validated: 524289
EndChar

StartChar: currency
Encoding: 164 164 102
Width: 1280
GlyphClass: 2
Flags: W
LayerCount: 2
Back
Fore
SplineSet
640 928 m 0
 582 928 528.330078125 921.5 478.997070312 908.5 c 0
 429.6640625 895.5 385.331054688 875.333007812 345.998046875 848 c 1
 195.998046875 977 l 1
 111.998046875 880 l 1
 255.998046875 756 l 1
 235.331054688 724 219.498046875 687.833007812 208.498046875 647.5 c 0
 197.498046875 607.166992188 191.998046875 562 191.998046875 512 c 0
 191.998046875 461.333007812 197.498046875 416 208.498046875 376 c 0
 219.498046875 336 235.331054688 300 255.998046875 268 c 1
 111.998046875 144 l 1
 195.998046875 47 l 1
 345.998046875 176 l 1
 384.665039062 148 428.83203125 127.666992188 478.499023438 115 c 0
 528.166015625 102.333007812 581.999023438 96 639.999023438 96 c 0
 697.33203125 96 750.83203125 102.333007812 800.499023438 115 c 0
 850.166015625 127.666992188 894.333007812 147.666992188 933 175 c 1
 1084 47 l 1
 1168 144 l 1
 1023 268 l 1
 1043.66699219 300 1059.66699219 336 1071 376 c 0
 1082.33300781 416 1088 461.333007812 1088 512 c 0
 1088 562 1082.5 607.166992188 1071.5 647.5 c 0
 1060.5 687.833007812 1044.33300781 724 1023 756 c 1
 1168 880 l 1
 1084 977 l 1
 934 848 l 1
 894.666992188 875.333007812 850.166992188 895.5 800.5 908.5 c 0
 750.833007812 921.5 697.333007812 928 640 928 c 0
639.997070312 256 m 0
 603.997070312 256 570.330078125 260.333007812 538.997070312 269 c 0
 507.6640625 277.666992188 480.497070312 292 457.497070312 312 c 0
 434.497070312 332 416.497070312 358.333007812 403.497070312 391 c 0
 390.497070312 423.666992188 383.997070312 464 383.997070312 512 c 0
 383.997070312 560 390.497070312 600.333007812 403.497070312 633 c 0
 416.497070312 665.666992188 434.497070312 692 457.497070312 712 c 0
 480.497070312 732 507.6640625 746.333007812 538.997070312 755 c 0
 570.330078125 763.666992188 603.997070312 768 639.997070312 768 c 0
 675.997070312 768 709.497070312 763.666992188 740.497070312 755 c 0
 771.497070312 746.333007812 798.497070312 732 821.497070312 712 c 0
 844.497070312 692 862.6640625 665.666992188 875.997070312 633 c 0
 889.330078125 600.333007812 895.997070312 560 895.997070312 512 c 0
 895.997070312 464 889.330078125 423.666992188 875.997070312 391 c 0
 862.6640625 358.333007812 844.497070312 332 821.497070312 312 c 0
 798.497070312 292 771.497070312 277.666992188 740.497070312 269 c 0
 709.497070312 260.333007812 675.997070312 256 639.997070312 256 c 0
EndSplineSet
Validated: 524297
EndChar

StartChar: yen
Encoding: 165 165 103
Width: 2048
GlyphClass: 2
Flags: W
LayerCount: 2
Back
Fore
SplineSet
416 416 m 1
 928 416 l 1
 928 640 l 1
 416 640 l 1
 416 800 l 1
 773 800 l 1
 64 1536 l 1
 320 1536 l 1
 1024 768 l 1
 1728 1536 l 1
 1984 1536 l 1
 1274 800 l 1
 1632 800 l 1
 1632 640 l 1
 1120 640 l 1
 1120 416 l 1
 1632 416 l 1
 1632 256 l 1
 1120 256 l 1
 1120 0 l 1
 928 0 l 1
 928 256 l 1
 416 256 l 1
 416 416 l 1
EndSplineSet
Validated: 1
EndChar

StartChar: brokenbar
Encoding: 166 166 104
Width: 448
GlyphClass: 2
Flags: W
LayerCount: 2
Back
Fore
SplineSet
128 896 m 1
 320 896 l 1
 320 1600 l 1
 128 1600 l 1
 128 896 l 1
128 -128 m 1
 320 -128 l 1
 320 576 l 1
 128 576 l 1
 128 -128 l 1
EndSplineSet
Validated: 9
EndChar

StartChar: section
Encoding: 167 167 105
Width: 1504
GlyphClass: 2
Flags: W
LayerCount: 2
Back
Fore
SplineSet
704 480 m 0
 778.666992188 480 842.333007812 478.834960938 895 476.501953125 c 0
 947.666992188 474.168945312 991.833984375 470.501953125 1027.50097656 465.501953125 c 0
 1063.16796875 460.501953125 1091.33496094 454.001953125 1112.00195312 446.001953125 c 0
 1132.66894531 438.001953125 1148.3359375 428.001953125 1159.00292969 416.001953125 c 0
 1169.66992188 404.001953125 1176.50292969 390.168945312 1179.50292969 374.501953125 c 0
 1182.50292969 358.834960938 1184.00292969 340.66796875 1184.00292969 320.000976562 c 0
 1184.00292969 298.000976562 1182.50292969 278.16796875 1179.50292969 260.500976562 c 0
 1176.50292969 242.833984375 1169.3359375 226.833984375 1158.00292969 212.500976562 c 0
 1146.66992188 198.16796875 1130.00292969 185.66796875 1108.00292969 175.000976562 c 0
 1086.00292969 164.333984375 1056.00292969 155.500976562 1018.00292969 148.500976562 c 0
 980.002929688 141.500976562 932.8359375 136.333984375 876.502929688 133.000976562 c 0
 820.169921875 129.66796875 752.002929688 128.000976562 672.002929688 128.000976562 c 0
 604.002929688 128.000976562 547.669921875 130.500976562 503.002929688 135.500976562 c 0
 458.3359375 140.500976562 422.668945312 150.000976562 396.001953125 164.000976562 c 0
 369.334960938 178.000976562 350.66796875 197.500976562 340.000976562 222.500976562 c 0
 329.333984375 247.500976562 324.000976562 280.000976562 324.000976562 320.000976562 c 1
 132.000976562 320.000976562 l 1
 132.000976562 256.000976562 141.16796875 201.66796875 159.500976562 157.000976562 c 0
 177.833984375 112.333984375 208.000976562 76.0009765625 250.000976562 48.0009765625 c 0
 292.000976562 20.0009765625 347.500976562 -0.33203125 416.500976562 -12.9990234375 c 0
 485.500976562 -25.666015625 570.66796875 -31.9990234375 672.000976562 -31.9990234375 c 0
 768.000976562 -31.9990234375 852.16796875 -29.166015625 924.500976562 -23.4990234375 c 0
 996.833984375 -17.83203125 1059.00097656 -9.1650390625 1111.00097656 2.501953125 c 0
 1163.00097656 14.1689453125 1206.16796875 29.501953125 1240.50097656 48.501953125 c 0
 1274.83398438 67.501953125 1302.00097656 90.1689453125 1322.00097656 116.501953125 c 0
 1342.00097656 142.834960938 1356.00097656 173.16796875 1364.00097656 207.500976562 c 0
 1372.00097656 241.833984375 1376.00097656 280.666992188 1376.00097656 324 c 0
 1376.00097656 377.333007812 1369.50097656 422.5 1356.50097656 459.5 c 0
 1343.50097656 496.5 1320.00097656 527 1286.00097656 551 c 1
 1314.66796875 591 1336.50097656 628.166992188 1351.50097656 662.5 c 0
 1366.50097656 696.833007812 1374.00097656 728.333007812 1374.00097656 757 c 0
 1374.00097656 790.333007812 1362.83398438 819.666015625 1340.50097656 844.999023438 c 0
 1318.16796875 870.33203125 1283.66796875 891.499023438 1237.00097656 908.499023438 c 0
 1190.33398438 925.499023438 1130.83398438 938.33203125 1058.50097656 946.999023438 c 0
 986.16796875 955.666015625 900.000976562 959.999023438 800.000976562 959.999023438 c 0
 725.333984375 959.999023438 661.666992188 961.166015625 609 963.499023438 c 0
 556.333007812 965.83203125 512.166015625 969.499023438 476.499023438 974.499023438 c 0
 440.83203125 979.499023438 412.83203125 985.999023438 392.499023438 993.999023438 c 0
 372.166015625 1001.99902344 356.666015625 1011.99902344 345.999023438 1023.99902344 c 0
 335.33203125 1035.99902344 328.499023438 1049.83203125 325.499023438 1065.49902344 c 0
 322.499023438 1081.16601562 320.999023438 1099.33300781 320.999023438 1120 c 0
 320.999023438 1141.33300781 322.499023438 1161 325.499023438 1179 c 0
 328.499023438 1197 335.666015625 1213.16699219 346.999023438 1227.5 c 0
 358.33203125 1241.83300781 374.999023438 1254.33300781 396.999023438 1265 c 0
 418.999023438 1275.66699219 448.999023438 1284.5 486.999023438 1291.5 c 0
 524.999023438 1298.5 572.166015625 1303.66699219 628.499023438 1307 c 0
 684.83203125 1310.33300781 752.999023438 1312 832.999023438 1312 c 0
 900.999023438 1312 957.33203125 1309.5 1001.99902344 1304.5 c 0
 1046.66601562 1299.5 1082.33300781 1290 1109 1276 c 0
 1135.66699219 1262 1154.33398438 1242.5 1165.00097656 1217.5 c 0
 1175.66796875 1192.5 1181.00097656 1160 1181.00097656 1120 c 1
 1373.00097656 1120 l 1
 1373.00097656 1184 1363.83398438 1238.33300781 1345.50097656 1283 c 0
 1327.16796875 1327.66699219 1297.00097656 1364 1255.00097656 1392 c 0
 1213.00097656 1420 1157.50097656 1440.33300781 1088.50097656 1453 c 0
 1019.50097656 1465.66699219 934.333984375 1472 833.000976562 1472 c 0
 737.000976562 1472 652.833984375 1469.16699219 580.500976562 1463.5 c 0
 508.16796875 1457.83300781 446.000976562 1449.16601562 394.000976562 1437.49902344 c 0
 342.000976562 1425.83203125 298.833984375 1410.49902344 264.500976562 1391.49902344 c 0
 230.16796875 1372.49902344 203.000976562 1349.83203125 183.000976562 1323.49902344 c 0
 163.000976562 1297.16601562 149.000976562 1266.83300781 141.000976562 1232.5 c 0
 133.000976562 1198.16699219 129.000976562 1159.33398438 129.000976562 1116.00097656 c 0
 129.000976562 1062.00097656 135.66796875 1016.50097656 149.000976562 979.500976562 c 0
 162.333984375 942.500976562 186.000976562 911.66796875 220.000976562 887.000976562 c 1
 191.333984375 852.333984375 168.833984375 819.333984375 152.500976562 788.000976562 c 0
 136.16796875 756.66796875 128.000976562 727.000976562 128.000976562 699.000976562 c 0
 128.000976562 677.000976562 130.500976562 656.16796875 135.500976562 636.500976562 c 0
 140.500976562 616.833984375 150.16796875 599.000976562 164.500976562 583.000976562 c 0
 178.833984375 567.000976562 199.166992188 552.500976562 225.5 539.500976562 c 0
 251.833007812 526.500976562 286.333007812 515.66796875 329 507.000976562 c 0
 371.666992188 498.333984375 423.666992188 491.666992188 485 487 c 0
 546.333007812 482.333007812 619.333007812 480 704 480 c 0
703.999023438 640.001953125 m 0
 623.999023438 640.001953125 559 641.333007812 509 644 c 0
 459 646.666992188 420.166992188 651.333984375 392.5 658.000976562 c 0
 364.833007812 664.66796875 346 674.000976562 336 686.000976562 c 0
 326 698.000976562 321 713.66796875 321 733.000976562 c 0
 321 745.66796875 324.166992188 760.16796875 330.5 776.500976562 c 2
 352 832.000976562 l 1
 401.333007812 820.66796875 462.666015625 812.500976562 535.999023438 807.500976562 c 0
 609.33203125 802.500976562 697.665039062 800.000976562 800.998046875 800.000976562 c 0
 871.665039062 800.000976562 931.498046875 798.66796875 980.498046875 796.000976562 c 0
 1029.49804688 793.333984375 1069.33105469 788.666992188 1099.99804688 782 c 0
 1130.66503906 775.333007812 1152.66503906 766 1165.99804688 754 c 0
 1179.33105469 742 1185.99804688 726.666992188 1185.99804688 708 c 0
 1185.99804688 694.666992188 1183.16503906 679.833984375 1177.49804688 663.500976562 c 0
 1171.83105469 647.16796875 1163.6640625 628.334960938 1152.99707031 607.001953125 c 1
 1101.6640625 619.001953125 1039.33105469 627.501953125 965.998046875 632.501953125 c 0
 892.665039062 637.501953125 805.33203125 640.001953125 703.999023438 640.001953125 c 0
EndSplineSet
Validated: 524297
EndChar

StartChar: dieresis
Encoding: 168 168 106
Width: 1088
GlyphClass: 2
Flags: W
LayerCount: 2
Back
Fore
SplineSet
256 1536 m 1
 64 1536 l 1
 64 1344 l 1
 256 1344 l 1
 256 1536 l 1
1024 1536 m 1
 832 1536 l 1
 832 1344 l 1
 1024 1344 l 1
 1024 1536 l 1
EndSplineSet
Validated: 9
EndChar

StartChar: copyright
Encoding: 169 169 107
Width: 1920
GlyphClass: 2
Flags: W
LayerCount: 2
Back
Fore
SplineSet
960 1664 m 0
 842.666992188 1664 740.666992188 1656.83300781 654 1642.5 c 0
 567.333007812 1628.16699219 493.166015625 1606.5 431.499023438 1577.5 c 0
 369.83203125 1548.5 319.33203125 1512 279.999023438 1468 c 0
 240.666015625 1424 209.666015625 1372.33300781 186.999023438 1313 c 0
 164.33203125 1253.66699219 148.83203125 1186.66699219 140.499023438 1112 c 0
 132.166015625 1037.33300781 127.999023438 954.666015625 127.999023438 863.999023438 c 0
 127.999023438 773.33203125 132.166015625 690.665039062 140.499023438 615.998046875 c 0
 148.83203125 541.331054688 164.33203125 474.331054688 186.999023438 414.998046875 c 0
 209.666015625 355.665039062 240.666015625 303.998046875 279.999023438 259.998046875 c 0
 319.33203125 215.998046875 369.83203125 179.498046875 431.499023438 150.498046875 c 0
 493.166015625 121.498046875 567.333007812 99.8310546875 654 85.498046875 c 0
 740.666992188 71.1650390625 842.666992188 63.998046875 960 63.998046875 c 0
 1077.33300781 63.998046875 1179.33300781 71.1650390625 1266 85.498046875 c 0
 1352.66699219 99.8310546875 1426.83398438 121.498046875 1488.50097656 150.498046875 c 0
 1550.16796875 179.498046875 1600.66796875 215.998046875 1640.00097656 259.998046875 c 0
 1679.33398438 303.998046875 1710.33398438 355.665039062 1733.00097656 414.998046875 c 0
 1755.66796875 474.331054688 1771.16796875 541.331054688 1779.50097656 615.998046875 c 0
 1787.83398438 690.665039062 1792.00097656 773.33203125 1792.00097656 863.999023438 c 0
 1792.00097656 954.666015625 1787.83398438 1037.33300781 1779.50097656 1112 c 0
 1771.16796875 1186.66699219 1755.66796875 1253.66699219 1733.00097656 1313 c 0
 1710.33398438 1372.33300781 1679.33398438 1424 1640.00097656 1468 c 0
 1600.66796875 1512 1550.16796875 1548.5 1488.50097656 1577.5 c 0
 1426.83398438 1606.5 1352.66699219 1628.16699219 1266 1642.5 c 0
 1179.33300781 1656.83300781 1077.33300781 1664 960 1664 c 0
960 224 m 0
 874.666992188 224 799.666992188 226.5 735 231.5 c 0
 670.333007812 236.5 614.166015625 246.666992188 566.499023438 262 c 0
 518.83203125 277.333007812 479.33203125 299.333007812 447.999023438 328 c 0
 416.666015625 356.666992188 391.499023438 394.666992188 372.499023438 442 c 0
 353.499023438 489.333007812 339.999023438 547.5 331.999023438 616.5 c 0
 323.999023438 685.5 319.999023438 768 319.999023438 864 c 0
 319.999023438 960 323.999023438 1042.5 331.999023438 1111.5 c 0
 339.999023438 1180.5 353.499023438 1238.66699219 372.499023438 1286 c 0
 391.499023438 1333.33300781 416.666015625 1371.33300781 447.999023438 1400 c 0
 479.33203125 1428.66699219 518.83203125 1450.66699219 566.499023438 1466 c 0
 614.166015625 1481.33300781 670.333007812 1491.5 735 1496.5 c 0
 799.666992188 1501.5 874.666992188 1504 960 1504 c 0
 1045.33300781 1504 1120.33300781 1501.5 1185 1496.5 c 0
 1249.66699219 1491.5 1305.83398438 1481.33300781 1353.50097656 1466 c 0
 1401.16796875 1450.66699219 1440.66796875 1428.66699219 1472.00097656 1400 c 0
 1503.33398438 1371.33300781 1528.50097656 1333.33300781 1547.50097656 1286 c 0
 1566.50097656 1238.66699219 1580.00097656 1180.5 1588.00097656 1111.5 c 0
 1596.00097656 1042.5 1600.00097656 960 1600.00097656 864 c 0
 1600.00097656 768 1596.00097656 685.5 1588.00097656 616.5 c 0
 1580.00097656 547.5 1566.50097656 489.333007812 1547.50097656 442 c 0
 1528.50097656 394.666992188 1503.33398438 356.666992188 1472.00097656 328 c 0
 1440.66796875 299.333007812 1401.16796875 277.333007812 1353.50097656 262 c 0
 1305.83398438 246.666992188 1249.66699219 236.5 1185 231.5 c 0
 1120.33300781 226.5 1045.33300781 224 960 224 c 0
448 893 m 0
 448 799 455 720.993164062 469 658.993164062 c 0
 483 596.993164062 508.833007812 547.493164062 546.5 510.493164062 c 0
 584.166992188 473.493164062 636.166992188 447.493164062 702.5 432.493164062 c 0
 768.833007812 417.493164062 854.333007812 409.993164062 959 409.993164062 c 0
 1060.33300781 409.993164062 1144 416.826171875 1210 430.493164062 c 0
 1276 444.16015625 1328.5 465.16015625 1367.5 493.493164062 c 0
 1406.5 521.826171875 1433.66699219 557.993164062 1449 601.993164062 c 0
 1464.33300781 645.993164062 1472 698.326171875 1472 758.993164062 c 1
 1312 758.993164062 l 1
 1312 736.326171875 1311.33300781 715.493164062 1310 696.493164062 c 0
 1308.66699219 677.493164062 1304.5 659.993164062 1297.5 643.993164062 c 0
 1290.5 627.993164062 1279.83300781 613.826171875 1265.5 601.493164062 c 0
 1251.16699219 589.16015625 1230.83398438 578.66015625 1204.50097656 569.993164062 c 0
 1178.16796875 561.326171875 1145.00097656 554.826171875 1105.00097656 550.493164062 c 0
 1065.00097656 546.16015625 1016.33398438 543.993164062 959.000976562 543.993164062 c 0
 901.000976562 543.993164062 852.16796875 546.326171875 812.500976562 550.993164062 c 0
 772.833984375 555.66015625 740.000976562 563.493164062 714.000976562 574.493164062 c 0
 688.000976562 585.493164062 668.000976562 599.993164062 654.000976562 617.993164062 c 0
 640.000976562 635.993164062 629.66796875 657.826171875 623.000976562 683.493164062 c 0
 616.333984375 709.16015625 612.500976562 739.327148438 611.500976562 773.994140625 c 0
 610.500976562 808.661132812 610.000976562 848.328125 610.000976562 892.995117188 c 0
 610.000976562 937.662109375 610.500976562 977.329101562 611.500976562 1011.99609375 c 0
 612.500976562 1046.66308594 616.333984375 1076.83007812 623.000976562 1102.49707031 c 0
 629.66796875 1128.1640625 640.000976562 1149.83105469 654.000976562 1167.49804688 c 0
 668.000976562 1185.16503906 688.000976562 1199.49804688 714.000976562 1210.49804688 c 0
 740.000976562 1221.49804688 772.833984375 1229.33105469 812.500976562 1233.99804688 c 0
 852.16796875 1238.66503906 901.000976562 1240.99804688 959.000976562 1240.99804688 c 0
 1016.33398438 1240.99804688 1065.00097656 1238.83105469 1105.00097656 1234.49804688 c 0
 1145.00097656 1230.16503906 1178.16796875 1223.83203125 1204.50097656 1215.49902344 c 0
 1230.83398438 1207.16601562 1251.16699219 1196.83300781 1265.5 1184.5 c 0
 1279.83300781 1172.16699219 1290.5 1158 1297.5 1142 c 0
 1304.5 1126 1308.66699219 1108.33300781 1310 1089 c 0
 1311.33300781 1069.66699219 1312 1049 1312 1027 c 1
 1472 1027 l 1
 1472 1087 1464.33300781 1139 1449 1183 c 0
 1433.66699219 1227 1406.5 1263.16699219 1367.5 1291.5 c 0
 1328.5 1319.83300781 1276 1340.83300781 1210 1354.5 c 0
 1144 1368.16699219 1060.33300781 1375 959 1375 c 0
 854.333007812 1375 768.833007812 1367.5 702.5 1352.5 c 0
 636.166992188 1337.5 584.166992188 1311.5 546.5 1274.5 c 0
 508.833007812 1237.5 483 1188.16699219 469 1126.5 c 0
 455 1064.83300781 448 987 448 893 c 0
EndSplineSet
Validated: 524297
EndChar

StartChar: ordfeminine
Encoding: 170 170 108
Width: 1600
GlyphClass: 2
Flags: W
LayerCount: 2
Back
Fore
SplineSet
1280 158 m 2
 1278 150 1263.00390625 130 1235.00390625 98 c 0
 1215.00390625 74 1188.33691406 52.8330078125 1155.00390625 34.5 c 0
 1121.67089844 16.1669921875 1077.17089844 1.833984375 1021.50390625 -8.4990234375 c 0
 965.836914062 -18.83203125 892.669921875 -23.9990234375 802.002929688 -23.9990234375 c 0
 681.3359375 -23.9990234375 578.3359375 -17.83203125 493.002929688 -5.4990234375 c 0
 407.669921875 6.833984375 338.002929688 25.833984375 284.002929688 51.5009765625 c 0
 230.002929688 77.16796875 190.502929688 110.000976562 165.502929688 150.000976562 c 0
 140.502929688 190.000976562 128.002929688 237.66796875 128.002929688 293.000976562 c 0
 128.002929688 351.000976562 134.8359375 400.16796875 148.502929688 440.500976562 c 0
 162.169921875 480.833984375 182.169921875 514.666992188 208.502929688 542 c 0
 234.8359375 569.333007812 266.668945312 590.666015625 304.001953125 605.999023438 c 0
 341.334960938 621.33203125 383.834960938 632.999023438 431.501953125 640.999023438 c 0
 479.168945312 648.999023438 531.3359375 653.999023438 588.002929688 655.999023438 c 0
 644.669921875 657.999023438 705.002929688 658.999023438 769.002929688 658.999023438 c 0
 860.3359375 658.999023438 936.668945312 655.166015625 998.001953125 647.499023438 c 0
 1059.33496094 639.83203125 1109.50195312 630.165039062 1148.50195312 618.498046875 c 0
 1187.50195312 606.831054688 1217.00195312 594.331054688 1237.00195312 580.998046875 c 0
 1257.00195312 567.665039062 1271.33496094 555.33203125 1280.00195312 543.999023438 c 1
 1280.00195312 618.666015625 1276.83496094 682.333007812 1270.50195312 735 c 0
 1264.16894531 787.666992188 1253.8359375 831.666992188 1239.50292969 867 c 0
 1225.16992188 902.333007812 1206.66992188 930.5 1184.00292969 951.5 c 0
 1161.3359375 972.5 1133.50292969 988.333007812 1100.50292969 999 c 0
 1067.50292969 1009.66699219 1029.00292969 1016.5 985.002929688 1019.5 c 0
 941.002929688 1022.5 890.669921875 1024 834.002929688 1024 c 0
 746.002929688 1024 673.002929688 1021.83300781 615.002929688 1017.5 c 0
 557.002929688 1013.16699219 511.002929688 1004.66699219 477.002929688 992 c 0
 443.002929688 979.333007812 419.002929688 961.833007812 405.002929688 939.5 c 0
 391.002929688 917.166992188 384.002929688 888 384.002929688 852 c 1
 192.002929688 852 l 1
 192.002929688 912.666992188 202.8359375 964 224.502929688 1006 c 0
 246.169921875 1048 282.169921875 1082.16699219 332.502929688 1108.5 c 0
 382.8359375 1134.83300781 449.002929688 1154 531.002929688 1166 c 0
 613.002929688 1178 714.002929688 1184 834.002929688 1184 c 0
 951.3359375 1184 1050.66894531 1174.33300781 1132.00195312 1155 c 0
 1213.33496094 1135.66699219 1279.16796875 1101.66699219 1329.50097656 1053 c 0
 1379.83398438 1004.33300781 1416.16699219 938.833007812 1438.5 856.5 c 0
 1460.83300781 774.166992188 1472 670 1472 544 c 2
 1472 0 l 1
 1280 0 l 1
 1280 158 l 2
834.00390625 128 m 0
 918.670898438 128 989.502929688 132 1046.50292969 140 c 0
 1103.50292969 148 1149.3359375 160 1184.00292969 176 c 0
 1218.66992188 192 1243.33691406 212 1258.00390625 236 c 0
 1272.67089844 260 1280.00390625 288 1280.00390625 320 c 0
 1280.00390625 352 1271.50390625 379.166992188 1254.50390625 401.5 c 0
 1237.50390625 423.833007812 1209.17089844 442 1169.50390625 456 c 0
 1129.83691406 470 1077.33691406 480.166992188 1012.00390625 486.5 c 0
 946.670898438 492.833007812 866.00390625 496 770.00390625 496 c 0
 674.00390625 496 596.50390625 494.333007812 537.50390625 491 c 0
 478.50390625 487.666992188 433.00390625 480 401.00390625 468 c 0
 369.00390625 456 347.50390625 438.333007812 336.50390625 415 c 0
 325.50390625 391.666992188 320.00390625 360 320.00390625 320 c 0
 320.00390625 280 325.836914062 247.5 337.50390625 222.5 c 0
 349.170898438 197.5 373.00390625 178 409.00390625 164 c 0
 445.00390625 150 496.836914062 140.5 564.50390625 135.5 c 0
 632.170898438 130.5 722.00390625 128 834.00390625 128 c 0
EndSplineSet
Validated: 524289
EndChar

StartChar: guillemotleft
Encoding: 171 171 109
Width: 1344
GlyphClass: 2
Flags: W
LayerCount: 2
Back
Fore
SplineSet
768 256 m 1
 672 128 l 1
 128 512 l 1
 128 704 l 1
 672 1088 l 1
 768 960 l 1
 256 608 l 1
 768 256 l 1
1216 256 m 1
 1120 128 l 1
 576 512 l 1
 576 704 l 1
 1120 1088 l 1
 1216 960 l 1
 704 608 l 1
 1216 256 l 1
EndSplineSet
Validated: 1
EndChar

StartChar: logicalnot
Encoding: 172 172 110
Width: 1216
GlyphClass: 2
Flags: W
LayerCount: 2
Back
Fore
SplineSet
1088 640 m 1
 896 640 l 1
 896 928 l 1
 128 928 l 1
 128 1088 l 1
 1088 1088 l 1
 1088 640 l 1
EndSplineSet
Validated: 1
EndChar

